<?xml version="1.0" standalone="no"?>
<!DOCTYPE svg PUBLIC "-//W3C//DTD SVG 1.1//EN" "http://www.w3.org/Graphics/SVG/1.1/DTD/svg11.dtd" >
<!--
2013-9-30: Created.
-->
<svg>
<metadata>
Created by iconfont
</metadata>
<defs>

<font id="iconfont" horiz-adv-x="1024" >
  <font-face
    font-family="iconfont"
    font-weight="500"
    font-stretch="normal"
    units-per-em="1024"
    ascent="896"
    descent="-128"
  />
    <missing-glyph />
    
    <glyph glyph-name="x" unicode="x" horiz-adv-x="1001"
d="M281 543q-27 -1 -53 -1h-83q-18 0 -36.5 -6t-32.5 -18.5t-23 -32t-9 -45.5v-76h912v41q0 16 -0.5 30t-0.5 18q0 13 -5 29t-17 29.5t-31.5 22.5t-49.5 9h-133v-97h-438v97zM955 310v-52q0 -23 0.5 -52t0.5 -58t-10.5 -47.5t-26 -30t-33 -16t-31.5 -4.5q-14 -1 -29.5 -0.5
t-29.5 0.5h-32l-45 128h-439l-44 -128h-29h-34q-20 0 -45 1q-25 0 -41 9.5t-25.5 23t-13.5 29.5t-4 30v167h911zM163 247q-12 0 -21 -8.5t-9 -21.5t9 -21.5t21 -8.5q13 0 22 8.5t9 21.5t-9 21.5t-22 8.5zM316 123q-8 -26 -14 -48q-5 -19 -10.5 -37t-7.5 -25t-3 -15t1 -14.5
t9.5 -10.5t21.5 -4h37h67h81h80h64h36q23 0 34 12t2 38q-5 13 -9.5 30.5t-9.5 34.5q-5 19 -11 39h-368zM336 498v228q0 11 2.5 23t10 21.5t20.5 15.5t34 6h188q31 0 51.5 -14.5t20.5 -52.5v-227h-327z" />
    

    
    <glyph glyph-name="jianhao" unicode="&#58923;" d="M128 332l768 0 0-64-768 0 0 64Z"  horiz-adv-x="1024" />

    
    <glyph glyph-name="delete" unicode="&#59037;" d="M972.657609 686.651592C987.158609 686.63161 998.930114 698.428798 998.949999 713.00135 998.969882 727.573903 987.230618 739.40349 972.729617 739.423472L32.457975 740.719194C17.956974 740.739177 6.18547 728.941988 6.165585 714.369436 6.1457 699.796884 17.884965 687.967297 32.385966 687.947314L972.657609 686.651592ZM180.466902-96.356169 180.466902-123.014859 206.993296-122.74074 833.361858-116.267947 859.348284-115.999407 859.348284-89.883377 859.348284 606.602703C859.348284 621.175268 847.59289 632.988668 833.091874 632.988668 818.590859 632.988668 806.835465 621.175268 806.835465 606.602703L806.835465-89.883377 832.82189-63.498805 206.453329-69.971599 232.979723-96.356169 232.979723 613.32995C232.979723 627.902517 221.224329 639.715915 206.723313 639.715915 192.222298 639.715915 180.466902 627.902517 180.466902 613.32995L180.466902-96.356169ZM656.410257 48.920973C656.410257 34.348407 668.165651 22.535008 682.666667 22.535008 697.167682 22.535008 708.923076 34.348407 708.923076 48.920973L708.923076 523.868341C708.923076 538.440909 697.167682 550.254306 682.666667 550.254306 668.165651 550.254306 656.410257 538.440909 656.410257 523.868341L656.410257 48.920973ZM341.333333 48.920973C341.333333 34.348407 353.08873 22.535008 367.589743 22.535008 382.090758 22.535008 393.846155 34.348407 393.846155 48.920973L393.846155 523.868341C393.846155 538.440909 382.090758 550.254306 367.589743 550.254306 353.08873 550.254306 341.333333 538.440909 341.333333 523.868341L341.333333 48.920973ZM498.871795 48.920973C498.871795 34.348407 510.627189 22.535008 525.128205 22.535008 539.62922 22.535008 551.384614 34.348407 551.384614 48.920973L551.384614 523.868341C551.384614 538.440909 539.62922 550.254306 525.128205 550.254306 510.627189 550.254306 498.871795 538.440909 498.871795 523.868341L498.871795 48.920973ZM392.147755 779.278223C392.147755 793.936331 403.758665 805.636493 418.40134 805.636493L622.925796 805.636493C637.408947 805.636493 649.179381 793.8381 649.179381 779.450415L649.179381 724.355125 701.692203 724.355125 701.692203 779.450415C701.692203 823.013393 666.38105 858.408423 622.925796 858.408423L418.40134 858.408423C374.724427 858.408423 339.634933 823.049196 339.634933 779.278223L339.634933 730.689199 392.147755 730.689199 392.147755 779.278223Z"  horiz-adv-x="1024" />

    
    <glyph glyph-name="edit" unicode="&#59038;" d="M34.155089 665.059773 9.17948 665.059773 9.17948 639.796614 9.17948 41.841988C9.17948-27.769568 65.248004-84.289737 134.081773-84.289737L927.938515-84.289737 952.914125-84.289737 952.914125-59.026579 952.914125 424.899439C952.914125 438.851895 941.732164 450.162598 927.938515 450.162598 914.144868 450.162598 902.962906 438.851895 902.962906 424.899439L902.962906-59.026579 927.938515-33.76342 134.081773-33.76342C92.797081-33.76342 59.130699 0.174153 59.130699 41.841988L59.130699 639.796614 34.155089 614.533457 598.93821 614.533457C612.731859 614.533457 623.91382 625.844158 623.91382 639.796614 623.91382 653.749072 612.731859 665.059773 598.93821 665.059773L34.155089 665.059773ZM437.016339 302.496211 431.876019 295.895108 431.668623 287.494786 427.984924 138.290259 427.077935 101.553579 461.312335 113.853545 605.005395 165.480553 611.980762 167.986709 616.479561 173.932757 1003.181673 685.035772 1018.529978 705.321579 998.306108 720.620695 869.49174 818.067219 849.985487 832.823464 834.913446 813.46823 437.016339 302.496211ZM839.575373 777.604982 968.389739 680.158458 963.514174 715.743381 576.81206 204.640367 588.286225 213.092572 444.593165 161.465564 477.920574 137.028849 481.604275 286.233378 476.256559 271.231953 874.153664 782.20397 839.575373 777.604982ZM891.217762 585.494287 920.474916 626.446748 808.309143 708.435734 779.051989 667.483275 891.217762 585.494287Z"  horiz-adv-x="1024" />

    
    <glyph glyph-name="duoren" unicode="&#58888;" d="M632.832 664.832q23.552-5.12 38.912-25.088t17.408-49.664q0-9.216 1.024-28.672t1.024-40.96-1.536-38.912-5.632-21.504q-6.144-7.168-11.776-6.656t-5.632-5.632q0-3.072-1.536-21.504t-8.704-51.2q-4.096-17.408-11.776-31.232t-15.872-25.088q-10.24-12.288-20.48-22.528-1.024-13.312-1.024-25.6v-21.504q0-11.264 1.024-17.408 1.024-12.288 6.144-17.408t20.48-9.216q5.12-2.048 18.432-6.144t31.744-10.752 38.4-13.824 38.4-13.824 32.768-12.288 21.504-8.704q20.48-10.24 27.136-21.504t11.776-28.672q2.048-9.216 5.632-33.792t7.68-51.2 6.656-50.176 3.584-29.696q1.024-13.312-4.608-22.528t-26.112-14.336q-17.408-4.096-50.688-8.704t-77.312-8.704-96.768-6.656-111.104-2.56-111.616 2.048-97.792 5.632-78.848 8.192-53.76 9.728q-4.096 1.024-10.24 4.096t-11.776 7.68-8.704 11.264-2.048 14.848q1.024 7.168 5.632 32.256t10.752 53.76 11.264 53.76 7.168 31.232q4.096 12.288 11.776 25.6t26.112 27.648q9.216 7.168 33.792 15.36t51.2 15.36 50.176 12.288 30.72 7.168q15.36 3.072 27.136 7.68t11.776 12.8v59.392q-11.264 9.216-21.504 20.48-9.216 9.216-18.432 22.016t-16.384 27.136q-14.336 27.648-18.432 50.688t-5.12 27.136-7.68 6.656-9.728 10.752q-8.192 17.408-7.68 36.864t2.56 55.296q3.072 35.84 11.776 68.608t38.4 60.416q15.36 13.312 40.96 22.016t52.224 12.8 50.688 4.096 36.352-3.072q13.312-4.096 21.504-8.704t12.8-8.704 7.68-7.68 6.144-5.632q5.12-4.096 13.312-2.56t28.672-2.56zM538.624 103.68l27.648-106.496 45.056 120.832-43.008 30.72zM464.896 150.784l-40.96-32.768 46.080-120.832 24.576 107.52zM829.44 551.168q14.336-2.048 23.040-14.336t9.728-29.696q0-5.12 1.024-16.896t1.024-24.064-1.024-23.040-3.072-12.8q-4.096-4.096-7.68-3.584t-3.584-3.584q0-2.048-0.512-12.8t-5.632-31.232q-2.048-10.24-6.144-18.432t-9.216-14.336q-5.12-7.168-12.288-13.312-1.024-8.192-1.024-15.36v-23.552q1.024-7.168 4.096-10.24t12.288-5.12q4.096-1.024 19.456-6.144t33.28-11.776 33.28-12.288 21.504-8.704q12.288-6.144 16.896-12.8t6.656-17.92q1.024-5.12 3.072-19.456t4.096-30.72 4.096-29.696 2.048-17.408q1.024-8.192-2.56-13.824t-15.872-7.68q-10.24-2.048-26.624-5.12t-43.008-5.12q-2.048 12.288-6.144 23.552-3.072 10.24-7.168 21.504t-10.24 19.456q-11.264 15.36-23.552 24.576t-24.576 15.36-24.576 9.728-24.576 7.68q-52.224 18.432-83.968 25.6t-35.84 12.288q-2.048 3.072-2.56 7.168t-0.512 9.216 1.024 11.264q14.336 4.096 21.504 5.12t11.264 2.048q8.192 2.048 15.36 4.608t7.168 7.68v35.84l-6.144 3.072q-2.048 1.024-4.096 5.12 6.144 13.312 12.288 31.744 5.12 16.384 10.752 39.936t9.728 56.32q3.072 25.6 4.096 46.080t1.024 35.84v31.744q12.288 2.048 26.112 2.048t22.016-2.048q17.408-5.12 20.992-10.24t7.68-8.192q4.096-2.048 8.704-1.536t16.896-1.536zM777.216 223.488l7.168-27.648 18.432-6.144 14.336 36.864-21.504 18.432zM723.968 241.92l-17.408-17.408 1.024-4.096 31.744-9.216 4.096 11.264zM269.312 573.696q-16.384 2.048-32.768 1.024-14.336-1.024-31.232-5.12t-31.232-14.336q-12.288-8.192-19.456-19.456t-10.752-23.040-4.608-22.016-1.024-16.384q-1.024-13.312-2.048-24.064t1.024-18.944 3.072-11.264 4.096-5.12 5.12-2.56 4.096-13.824q1.024-13.312 6.656-26.112t11.776-20.992q3.072-5.12 7.68-9.728t8.704-9.728 10.24-10.24v-29.696q-1.024-6.144-4.608-10.24t-13.824-6.144q-5.12-1.024-16.896-4.096t-25.6-6.656-27.648-7.68-22.016-7.168q-29.696-14.336-35.84-49.152-4.096-16.384-9.216-40.96t-7.168-34.816 0.512-21.504 16.896-14.336q7.168-2.048 17.92-3.072t20.992-3.072q11.264-2.048 23.552-3.072 2.048 12.288 6.144 24.576 3.072 11.264 8.704 22.528t13.824 21.504q8.192 9.216 19.968 17.92t23.040 16.896q12.288 9.216 26.624 17.408l-10.24 25.6 22.528 17.408 23.552-26.624 12.288 3.072q2.048 0 6.144 2.048 2.048 1.024 4.096 1.024l19.456 22.528 17.408-14.336q5.12 1.024 9.216 2.048t9.216 2.048l10.24 2.048q11.264 2.048 18.944 4.096t8.704 10.24q0 4.096 0.512 6.656t0.512 4.608v3.072q-9.216 3.072-17.408 6.144l-14.336 4.096q-7.168 2.048-11.264 4.096-8.192 3.072-9.216 8.704t-1.024 14.848v10.24q0 5.12 1.024 10.24 0 5.12 1.024 12.288-8.192 12.288-16.384 26.624-7.168 12.288-13.824 28.16t-10.752 33.28q-5.12 23.552-7.168 50.176t-1.024 48.128q0 25.6 3.072 50.176z"  horiz-adv-x="1024" />

    
    <glyph glyph-name="duoxuanxuanzhong01" unicode="&#58954;" d="M917.22590777-124.20198286000004L102.53955186-124.20198286000004c-56.24127261 0-101.83623111 45.59495851-101.83623111 101.83856014L0.70332075 792.31943907c0 56.24127261 45.59495851 101.83623111 101.83623111 101.83623112l814.68519083 0c56.24127261 0 101.83623111-45.59495851 101.8362311-101.83623112l0-814.68286293C1019.06213774-78.60702434999996 973.46717923-124.20198286000004 917.22590777-124.20198286000004zM968.14402219 741.40248747c0 76.41035549-27.04191715 101.83623111-101.83623112 101.83623111L153.45766741 843.23871858c-76.99832491 0-101.83623111-26.64256398-101.83623111-101.83623111l0-712.8501248c0-76.3824128 24.80996352-101.83623111 101.83623111-101.83623112l712.8501248 0c75.40673309 0 101.83623111 25.06960099 101.83623112 101.83623112L968.14402219 741.40248747zM178.91730659 715.94284829L840.84931584 715.94284829 840.84931584 54.01083903999995 178.91730659 54.01083903999995 178.91730659 715.94284829z"  horiz-adv-x="1024" />

    
    <glyph glyph-name="iconup" unicode="&#58907;" d="M528.681054 481.779697C528.681054 491.335671 520.887116 499.082312 511.122137 499.082312L511.122137 499.082312C501.424687 499.082312 493.56322 491.07746 493.56322 481.779697L493.56322 275.795191C493.56322 266.239217 501.356882 258.492548 511.122137 258.492548L511.122137 258.492548C520.819588 258.492548 528.681054 266.4974 528.681054 275.795191L528.681054 481.779697ZM472.590546 787.876598 184.625248 211.946058C166.855722 176.407254 202.33721 136.347539 239.995367 150.831418L508.660413 254.434203C509.746948 254.776631 513.422514 254.776631 517.398635 253.782587L521.657321 270.817166 515.339864 254.434203 783.990242 150.836953C821.66279 136.347539 857.144278 176.407254 839.374752 211.946058L551.409731 787.876598C533.825076 820.13825 487.241612 820.13825 472.310471 787.289935L472.590546 787.876598ZM504.280508 772.758123C506.908285 778.539315 516.5133 778.539315 520.289604 771.615933L807.964587 196.240948C811.519212 189.131643 804.082286 180.734935 796.611319 183.608386L527.975055 287.200129 525.916008 287.851773C515.845216 290.369457 505.473594 290.369457 496.790169 287.474973L227.374566 183.602851C219.917991 180.734935 212.480788 189.131643 216.035413 196.240948L504.00071 772.171488 504.280508 772.758123ZM512-73.623134C527.284555-73.623134 539.675373-61.232454 539.675373-45.947761 539.675373-30.663068 527.284555-18.272388 512-18.272388 496.715445-18.272388 484.324627-30.663068 484.324627-45.947761 484.324627-61.232454 496.715445-73.623134 512-73.623134ZM512-211.999997C527.284555-211.999997 539.675373-199.609318 539.675373-184.324625 539.675373-169.039931 527.284555-156.649252 512-156.649252 496.715445-156.649252 484.324627-169.039931 484.324627-184.324625 484.324627-199.609318 496.715445-211.999997 512-211.999997ZM512 64.75373C527.284555 64.75373 539.675373 77.14441 539.675373 92.429103 539.675373 107.713796 527.284555 120.104475 512 120.104475 496.715445 120.104475 484.324627 107.713796 484.324627 92.429103 484.324627 77.14441 496.715445 64.75373 512 64.75373Z"  horiz-adv-x="1024" />

    
    <glyph glyph-name="yonghu1" unicode="&#58890;" d="M511.936 769.952c-150.954667 0-273.728-122.794667-273.728-273.728 0-91.306667 45.12-172.117333 114.048-221.866667-182.997333-59.136-309.589333-231.424-309.589333-425.066667 0-10.624 8.618667-19.242667 19.242667-19.242667s19.242667 8.618667 19.242667 19.242667c0 157.909333 92.053333 300.394667 230.677333 367.658667 3.925333 1.92 7.978667 3.626667 11.968 5.418667 5.205333 2.304 10.410667 4.565333 15.722667 6.677333 3.989333 1.578667 8 3.114667 12.032 4.586667 6.485333 2.304 13.034667 4.458667 19.669333 6.464 9.024 2.752 18.24 5.034667 27.52 7.210667 34.538667-15.765333 72.789333-24.789333 113.194667-24.789333 72.106667 0 140.16 27.797333 191.594667 78.250667 25.258667 24.725333 45.226667 53.653333 59.349333 85.952 15.125333 34.624 22.762667 71.488 22.762667 109.525333C785.664 647.157333 662.869333 769.952 511.936 769.952zM731.541333 400.416c-12.352-28.288-29.824-53.568-51.968-75.221333-44.992-44.138667-104.533333-68.48-167.637333-68.48-132.074667 0-239.530667 107.456-239.530667 239.530667 0 132.074667 107.434667 239.530667 239.530667 239.530667 132.053333 0 239.530667-107.434667 239.530667-239.530667C751.466667 462.922667 744.746667 430.666667 731.541333 400.416zM905.749333 98.037333c-10.666667 15.893333-24.32 29.973333-37.504 43.584-27.648 28.544-53.781333 55.488-53.781333 97.984 0 10.624-8.597333 19.242667-19.221333 19.242667-10.645333 0-19.242667-8.618667-19.242667-19.242667 0-58.090667 34.304-93.504 64.597333-124.778667 12.565333-12.949333 24.448-25.216 33.194667-38.229333 45.162667-67.285333 69.034667-145.898667 69.034667-227.306667 0-10.624 8.618667-19.242667 19.242667-19.242667s19.242667 8.618667 19.242667 19.242667C981.333333-61.642667 955.178667 24.394667 905.749333 98.037333z"  horiz-adv-x="1024" />

    
    <glyph glyph-name="qq" unicode="&#58914;" d="M512 812C229.248 812 0 582.752 0 300c0-282.816 229.248-512 512-512 282.784 0 512 229.184 512 512C1024 582.752 794.784 812 512 812zM839.36 104.992c-14.944-8-38.272 10.112-60.16 43.36-8.608-36.256-30.112-68.992-60.672-95.328 32.128-12.256 53.088-31.936 53.088-54.368 0-36.8-56.768-66.688-126.848-66.688-63.136 0-115.52 24.256-125.248 56.064-2.528 0.064-12.48 0.064-15.072 0-9.696-31.872-62.016-56.064-125.216-56.064-70.048 0-126.848 29.824-126.848 66.688 0 22.432 20.992 42.112 53.12 54.368-30.656 26.304-52.064 59.072-60.736 95.328-21.92-33.248-45.248-51.36-60.192-43.36-21.632 11.488-17.248 73.312 9.664 138.112 21.152 50.816 49.984 88.352 71.776 96.672-0.256 3.296-0.384 6.528-0.384 9.792 0 19.712 5.344 37.888 14.432 52.672-0.064 1.152-0.16 2.304-0.16 3.456 0 9.024 2.112 17.504 5.76 24.896C291.104 562.976 375.488 668 512 668c136.48 0 220.768-105.024 226.336-237.376 3.552-7.36 5.696-15.872 5.696-24.896 0-1.152 0-2.304-0.128-3.456 9.12-14.816 14.496-33.024 14.496-52.672 0-3.264-0.192-6.528-0.512-9.792 21.952-8.256 50.656-45.792 71.808-96.672C856.736 178.368 860.992 116.512 839.36 104.992z"  horiz-adv-x="1024" />

    
    <glyph glyph-name="hanbao" unicode="&#58974;" d="M0-212l0 146.287386 1462.815348 0L1462.815348-212 0-212zM0 373.143693l1462.815348 0 0-146.287386L0 226.856307 0 373.143693zM0 812l1462.815348 0 0-146.28446L0 665.71554 0 812z"  horiz-adv-x="1463" />

    
    <glyph glyph-name="xiazai" unicode="&#59090;" d="M323.19563852 378.65517510999996c-0.02305897-0.05461333-0.07039052-0.10073125-0.10073127-0.16262636-0.25607585-0.62137837-0.32646637-1.29737008-0.4429748-1.98064357-0.11650845-0.62137837-0.26457125-1.21969778-0.24029867-1.87141688 0-0.13956741-0.06189511-0.25607585-0.05461333-0.40413867 0.03155437-0.3810797 0.24029867-0.69905067 0.31797096-1.06435318 0.15534459-0.81555911 0.34224355-1.60805925 0.71482784-2.4078412 0.17840355-0.3810797 0.41142045-0.69905067 0.63715557-1.05585777 0.34952533-0.57526045 0.58254222-1.19663882 1.05585777-1.74034489l170.28073244-190.29712592c0.36530252-0.41991585 0.83861808-0.64443733 1.24275675-0.99396267 0.22573511-0.2172397 0.32646637-0.5121517 0.58254222-0.71482785 0.22573511-0.17112178 0.5121517-0.20146252 0.76094578-0.35680712 0.6759917-0.42719763 1.36654697-0.71482785 2.097152-0.97818548 0.24879408-0.0776723 0.47331555-0.18689897 0.72210963-0.24029866 2.96732445-0.87017245 6.10455703-0.60560118 8.43472592 1.27431111 0.55098785 0.45025659 0.85439525 1.06435318 1.25853392 1.61534103 0.28763022 0.24879408 0.62866015 0.39564325 0.89323142 0.68327349L688.62680178 368.07717925c0.54370608 0.589824 0.82284089 1.2658157 1.21120237 1.91025305 0.19418075 0.28763022 0.39564325 0.55098785 0.55098785 0.86167703 0.3810797 0.78400475 0.56676503 1.56922311 0.72210963 2.37628682 0.07039052 0.35680711 0.27185303 0.64443733 0.3034074 1.01702163l0 0.62137837c0 0.12379022 0 0.22573511 0 0.34224355 0.36530252 5.38244741-3.8132243 9.74787318-9.41412503 9.76365038l-112.76439703-0.03155438L569.23598697 508.62519941c0 11.37170963-9.2199443 20.60621748-20.60621749 20.60621748l-82.44186073 0c-11.39476859 0-20.60621748-9.23572148-20.6062175-20.60621748L445.58169125 384.77672297l0.00121364 0-113.75835971-0.57526045C327.81714015 384.19418075 324.62408059 381.89435259000004 323.19563852 378.65517510999996zM921.43858725 561.77974992c-6.37276918 16.68740741-22.52253867 28.54456889-41.44909273 28.5445689-24.50196859 0-44.36423111-19.86226252-44.36423111-44.36423112 0-6.83758933 1.54980503-13.31230341 4.3132397-19.09767585l-0.00121363 0c15.49805037-40.87261867 38.44293215-95.58789689 38.44293215-141.89150815 0-204.89223585-166.07914667-370.9786643-370.97016888-370.97866429S136.43867022 180.07866785 136.43867022 384.9709037c0 204.86796325 166.07914667 370.97016889 370.97016889 370.97016889 48.55732148 0 102.42791348-20.29310103 144.93165037-37.257216l0.00485452 0.00728178c6.51719111-3.76103822 14.07203555-5.92372622 22.13660445-5.92372622 24.50196859 0 44.36423111 19.86226252 44.3642311 44.3642311 0 15.94102518-8.41166697 29.91111585-21.03462873 37.73295883l0.00242726 0.00364089c-0.0121363 0.00606815-0.02305897 0.01092267-0.03519526 0.01699081-2.41148208 1.49155082-4.97588148 2.75615289-7.66528474 3.76953363-58.28699022 28.10887585-112.50953482 39.7269523-182.70465897 39.72695229-250.41548325 0-453.41202963-202.99654637-453.41202963-453.41202962s202.99654637-453.41202963 453.41202963-453.41202963 453.41202963 202.99654637 453.41202964 453.41202963C960.82086875 450.92196503 946.75732859 505.72462459 921.43858725 561.77974992zM466.18790875 549.84612978l82.44186073 0c11.39476859 0 20.60621748 9.23572148 20.60621749 20.60621747l0 20.6147129c0 11.37170963-9.2199443 20.60621748-20.60621749 20.60621748l-82.44186073 0c-11.39476859 0-20.60621748-9.23572148-20.6062175-20.60621748l0-20.6147129C445.58169125 559.0891330300001 454.79314015 549.84612978 466.18790875 549.84612978z"  horiz-adv-x="1024" />

    
    <glyph glyph-name="45357" unicode="&#58965;" d="M929.758349 801.783899C814.574856 917.026562 638.866709 928.058917 537.33784 826.532738L260.821613 549.981546l-191.334179-191.301905c-101.528869-101.558453-90.466929-277.239705 24.716564-392.514641 115.213078-115.180804 290.923914-126.213159 392.450093-24.713875l191.301905 191.334179 276.548502 276.518917C1056.062951 510.859985 1044.971427 686.568132 929.758349 801.783899zM437.34199-9.177605c-74.184657-74.184657-205.957026-63.060858-293.766722 24.716564-87.777422 87.807007-98.901221 219.552481-24.716564 293.769412l191.301905 191.301905L628.646585 182.1243 437.34199-9.177605z"  horiz-adv-x="1024" />

    
    <glyph glyph-name="bianji-copy" unicode="&#58958;" d="M865.415-91.885h-696.21c-64.080 0-116.035 51.982-116.035 116.097v696.66c0 64.123 52.716 121.611 116.803 121.611h467.187v-58.397h-467.18c-32.044 0-58.785-31.145-58.785-63.205v-696.66c0-32.054 25.974-58.043 58.010-58.043h696.21c32.018 0 63.734 26.698 63.734 58.733v467.18h58.397v-467.187c0.006-64.123-58.054-116.785-122.133-116.785zM518.645 189.445c-8.476-8.484-19.097-12.743-30.055-14.883l-254.013-125.642c-28.588-13.257-51.486 12.364-40.954 40.971l125.572 254.201c2.13 10.958 6.371 21.58 14.866 30.066l451.254 451.582c22.66 22.65 59.387 22.65 82.046 0l102.549-102.628c22.66-22.66 22.66-59.44 0-82.1l-451.263-451.564zM249.195 125.021c-6.637-13.397 6.177-27.131 20.46-20.494l156.863 95.003-82.382 82.445-94.94-156.953zM395.586 312.595l61.535-61.579c11.321-11.338-17.939 17.957 20.511-20.502l328.193 328.39-103.291 101.893-327.461-327.655c10.907-10.922 9.191-9.21 20.511-20.547zM908.383 702.57l-61.535 61.579c-11.321 11.356-29.694 11.356-41.025 0l-60.068-60.094 101.083-104.105 61.535 61.588c11.347 11.338 11.347 29.711 0.006 41.031z"  horiz-adv-x="1024" />

    
    <glyph glyph-name="chenggong2" unicode="&#58911;" d="M248.7296 351.4368c-18.1248 18.1248-18.1248 47.4112 0 65.536 18.1248 18.1248 47.4112 18.1248 65.536 0L466.944 263.9872l248.0128 246.5792c18.1248 18.1248 47.4112 18.1248 65.536 0 18.1248-18.1248 17.1008-46.3872-1.024-64.512 0 0-272.9984-274.1248-278.016-278.9376-9.5232-9.216-23.3472-13.6192-35.1232-13.5168-11.8784 0-23.8592 5.4272-32.9728 14.5408M157.2864 156.672l0.4096-4.3008c0-25.6-20.7872-46.3872-46.3872-46.3872-21.0944 0-35.1232 16.2816-44.3392 33.5872-39.8336 72.704-62.6688 155.9552-62.6688 244.736 0 281.6 228.2496 509.8496 509.7472 509.8496 281.6 0 509.7472-228.2496 509.7472-509.8496S795.7504-125.44 514.2528-125.44c-108.8512 0-209.2032 34.7136-291.9424 92.8768-21.4016 13.2096-33.5872 25.088-35.1232 44.544 0 0-0.8192 18.2272 9.1136 31.8464 8.2944 11.3664 26.2144 18.7392 37.7856 18.7392 13.4144 0 19.5584-5.0176 33.8944-14.9504 69.0176-50.2784 153.6-80.384 245.5552-80.384 230.7072 0 417.792 187.0848 417.792 417.8944 0 230.8096-187.0848 417.8944-417.792 417.8944-230.7072 0-417.792-187.0848-417.792-417.8944 0-63.6928 14.6432-123.904 40.2432-177.9712"  horiz-adv-x="1024" />

    
    <glyph glyph-name="yonghudenglu" unicode="&#58903;" d="M636.741567 283.704532c-5.569658 1.806223-40.750083 17.588096-18.766374 84.074034l-0.3048 0c57.293956 58.700835 101.084985 153.21145 101.084985 246.222054 0 143.040157-95.615516 217.996999-206.716572 217.996999-111.1702 0-206.241027-74.956841-206.241027-217.996999 0-93.387371 43.55114-188.276164 101.186585-246.833066 22.462076-58.633101-17.710863-80.398088-26.116855-83.463022-116.367324-41.862039-252.866979-118.174959-252.866979-193.507155l0-28.226467c0-102.638619 200.016614-125.972762 385.127655-125.972762 185.386208 0 382.872698 23.334143 382.872698 125.972762l0 28.226467C896.000882 167.807108 758.818249 243.506194 636.741567 283.704532L636.741567 283.704532zM636.741567 283.704532"  horiz-adv-x="1024" />

    
    <glyph glyph-name="chenggong" unicode="&#58898;" d="M512.697 820.556c-247.54 0-448.208-200.668-448.208-448.208s200.668-448.208 448.208-448.208c247.54 0 448.208 200.668 448.208 448.208 0 247.54-200.668 448.208-448.208 448.208zM782.651 497.675l-310.141-316.86c-1.057-1.586-2.234-3.101-3.62-4.505-12.156-12.346-31.862-12.346-44.026 0l-154.053 156.424c-12.147 12.347-12.147 32.355 0 44.684 12.155 12.347 31.861 12.347 44.016 0l131.584-133.592 292.213 298.55c12.165 12.346 31.862 12.346 44.026 0 12.147-12.346 12.147-32.353 0-44.701z"  horiz-adv-x="1024" />

    
    <glyph glyph-name="dingzhifuwu" unicode="&#58901;" d="M637.746904 301.519876l46.907275 104.998915c-39.80298 42.413521-79.70465 84.985216-120.275515 128.273424l-107.81765-40.055787c-48.045585-15.146817-58.129493-22.470122-76.354613-69.454456l-114.402812-217.580701c-3.379779-1.351912-7.8857-1.80345-13.081096-4.673558-2.620005-1.446545-5.986264-3.746147-9.828397-7.590983-3.709645-3.712349-6.696018-9.895993-7.720767-15.613227-2.576743-14.408673 2.949871-33.728841 11.053229-47.123581l194.778009 179.349995c-2.809272 8.477837-0.836833 18.142653 6.121456 24.669682 9.518809 8.911801 24.431746 8.44404 33.377344-1.072066 8.942895-9.513402 8.462966-24.48447-1.076122-33.417902-6.931251-6.51351-16.72585-7.868125-24.965751-4.543775L279.341632 133.552977l283.278195 97.575568C610.678931 246.255084 619.517729 254.56258 637.746904 301.519876zM567.93284 258.718356l-214.621367-80.507685 106.72801 97.422802c25.933719-7.641004 44.829387 23.442146 44.829387 23.442146 12.833696 24.777835 0.258215 46.801826-15.303639 57.987542-9.091605 6.537844-26.121635 10.73553-38.104979 6.643293-36.363717-12.415956-31.391386-45.09301-31.391386-45.09301L257.195969 168.306567c-1.800746 19.59731 21.661679 24.799466 21.661679 24.799466l139.202277 250.002244c12.853975 16.693404 33.304341 24.442561 33.304341 24.442561 42.717701 15.00757 100.693076 38.149592 100.693076 38.149592l99.745386-105.810062-42.152602-99.228956C596.091805 264.851979 567.93284 258.718356 567.93284 258.718356zM744.219403 444.7157c20.293544 19.051138 26.824629 26.04052 45.244424 44.887519-30.055698 61.529551-78.519023 112.430373-138.410057 145.69686-19.68924-16.907006-26.744866-22.694539-46.688266-41.418514-21.637344-20.257043-12.310507-12.478144-31.811831-32.610811 45.718945-48.701262 91.393277-97.422802 137.113574-146.186252C730.970669 433.270417 722.613152 424.416748 744.219403 444.7157zM710.295886 444.945525c-35.693169 38.080645-69.907347 77.305007-108.966775 115.826374 15.549687 16.045838 2.238766 4.055735 19.489157 20.200262 15.909295 14.9224 16.681237 15.068406 32.268777 28.784901 87.330783-59.742324 109.950967-115.580327 109.950967-115.580327-14.676352-15.026497-14.493844-16.729905-31.21699-31.326495C711.559923 445.178054 729.136125 459.73003 710.295886 444.945525zM306.440699 789.194931c5.050742-8.754979 2.053554-19.943399-6.698722-24.999548-8.754979-5.050742-19.954215-2.052202-25.003604 6.704129-5.048038 8.756331-2.056257 19.948807 6.702777 24.999548C290.192074 800.949802 301.387253 797.951263 306.440699 789.194931zM159.86104 706.705344c5.814572-8.261532 3.840781-19.678425-4.422103-25.499756-8.264235-5.825387-19.679777-3.844836-25.498404 4.418047-5.828091 8.262883-3.842133 19.68248 4.419399 25.50246C142.616057 716.947426 154.042413 714.974987 159.86104 706.705344zM862.849642 727.369312c-77.027865 42.859652-153.615006 87.237501-227.680833 131.996589C554.485375 908.149629 471.094063 908.149629 390.214602 859.734973c-35.973015-21.489986-72.316453-42.806927-108.7721-63.811577l19.122789-31.241324c36.358309 20.955981 72.590891 42.222902 108.442234 63.661515 34.600824 20.743731 69.335488 31.26701 103.434753 31.26701 34.233104 0 69.15298-10.650359 103.822752-31.583358 74.438954-44.93754 151.407335-89.564141 228.808327-132.553576 70.980764-39.582618 104.82587-98.459719 103.376621-179.901575-1.645276-87.111773-1.769652-176.117574-0.440723-264.479865 1.259982-81.441856-32.7095-140.191876-103.94172-179.402719-74.510605-41.219783-151.593898-85.593576-229.06519-131.864101-69.33684-41.602374-138.042337-41.352271-207.380529 0.501559-78.164822 46.901868-155.062903 91.531172-228.683951 132.506259-71.102436 39.579915-104.88941 98.327231-103.376621 179.893463 1.634461 87.425416 1.764245 176.432569 0.375831 264.490681-1.051787 71.654016 25.223966 125.772388 80.218376 164.542507l-21.608954 29.504118C70.11304 665.526118 38.094367 600.220678 39.371923 516.58467 40.758984 428.969986 40.634608 340.4698 38.997444 253.355323c-1.764245-94.929878 39.329811-166.412201 122.157376-212.55159 73.246568-40.718224 149.767466-85.098777 227.557809-131.869509 40.591144-24.458784 81.935304-36.934224 122.907687-36.934224 40.72228 0 81.817687 12.22804 122.164136 36.432665 77.149537 46.004198 153.798866 90.261727 227.929584 131.235462 83.018185 45.76491 124.358288 116.99037 122.845499 211.922952-1.316762 87.990515-1.197794 176.55289 0.447483 263.357779C986.709074 609.747599 945.609611 681.227219 862.849642 727.369312z"  horiz-adv-x="1024" />

    
    <glyph glyph-name="yduidunpaishixin" unicode="&#59006;" d="M834.868967 720.965521c-7.667633-0.277316-15.22168-0.384763-22.611997-0.384763l-0.031722 0c-194.412828 0-280.05844 89.102341-280.771685 89.870844l-19.426445 21.268396-19.454074-21.268396c-0.848321-0.931209-91.220584-96.714715-303.444057-89.48608l-27.254737 0.930185L161.874249 317.972191c0-105.752556 35.307134-260.001639 340.617701-378.013403l9.508561-3.679809 9.504468 3.679809c305.310567 118.011764 340.617701 272.26187 340.617701 378.013403L862.122681 721.895707 834.868967 720.965521zM477.185588 198.220806 273.371646 378.819001l54.153364 43.88244 108.368126-79.957053c0 0 149.629879 154.797575 294.097178 227.033783l20.635993-23.245424C750.626307 546.53377 570.056766 396.897751 477.185588 198.220806z"  horiz-adv-x="1024" />

    
    <glyph glyph-name="weibo1" unicode="&#58916;" d="M380.579343 309.263855c-21.801539-2.281973-37.480636-21.334911-37.480636-39.550785 0-18.260899 17.622356-30.872125 39.447431-28.318976 21.732977 2.485611 39.423895 19.324114 39.423895 37.517475C421.969009 297.217495 405.656485 311.682951 380.579343 309.263855M436.02105 324.315666c-7.478322-5.424546-9.014304-15.819291-4.925173-22.282492 3.885494-6.600325 13.035898-7.368828 20.37812-1.854231 7.207146 5.695722 10.05296 15.639189 6.167466 22.284539C453.710944 328.926684 444.69664 330.802404 436.02105 324.315666M511.998465 819.106726c-240.065588 0-435.105702-194.865129-435.105702-435.236686 0-240.270249 195.040115-434.975742 435.105702-434.975742 240.317321 0 435.106726 194.705494 435.106726 434.975742C947.105191 624.241596 752.315786 819.106726 511.998465 819.106726M749.829152 274.752854c-47.939849-101.907994-206.064192-151.49332-323.251172-142.318356-111.358227 8.747221-254.570953 45.76737-269.336238 180.580798 0 0-7.816013 61.068867 51.319829 140.082432 0 0 85.128843 118.924553 184.262654 152.860457 99.226932 33.788547 110.793362-23.404036 110.793362-57.168024-5.26491-28.647457-15.136745-45.496194 22.095227-33.923624 0 0 97.532337 45.246507 137.676639 5.107321 32.353872-32.443923 5.334495-76.968999 5.334495-76.968999s-13.420661-14.904455 14.186094-20.272719C710.653921 417.19503 797.815049 376.818437 749.829152 274.752854M653.676232 556.292018c-10.618848 0-19.113313 8.588609-19.113313 19.10922 0 10.724249 8.494465 19.299555 19.113313 19.299555 0 0 119.559003 22.12695 105.280812-106.379842 0-0.792039-0.090051-1.36816-0.24764-2.035356-1.379417-9.097192-9.375531-16.09149-18.819624-16.09149-10.618848 0-19.294438 8.520047-19.294438 19.165502C720.59534 489.360629 739.572554 575.219089 653.676232 556.292018M855.60729 466.656535c-3.118014-46.286186-13.963013-30.092365-26.794249-30.092365-15.363919 0-27.788903 7.762801-27.788903 23.14207 0 13.358239 5.514597 24.556279 5.514597 24.556279 1.62501 5.628184 14.638395 39.325657-8.586562 91.465155-42.473347 71.442122-128.101563 71.883167-138.220015 67.814502-10.212596-3.988848-25.261337-6.338359-25.261337-6.338359-15.497972 0-27.876907 12.350283-27.876907 27.675316 0 12.825097 8.584516 23.470551 20.288069 26.803459 0 0 0.272199 0.045025 0.677429 0.135076 0.857531 0.157589 1.717108 0.293689 2.664689 0.397043 11.883655 2.304486 54.403051 18.577101 95.748714 8.903787 73.967642-17.266245 175.497013-95.601358 129.813554-234.460939L855.60729 466.657558zM435.25357 446.450331c-116.305913-5.321192-210.357985-67.677379-210.357985-145.413857 0-77.655637 94.053096-136.012743 210.357985-130.587174 116.393917 5.28947 210.606649 78.199013 210.606649 155.832138C645.859195 403.860327 551.647487 451.842131 435.25357 446.450331M514.506589 250.931309c-35.627429-46.01501-106.115829-68.457138-174.548408-31.392988-32.577976 17.696034-31.381731 52.389184-31.381731 52.389184s-13.509688 109.670795 103.428627 123.3217C529.193079 408.889877 550.112528 296.946318 514.506589 250.931309"  horiz-adv-x="1024" />

    
    <glyph glyph-name="wechat" unicode="&#58925;" d="M290.016 603.008q-18.016 0-31.488-10.496t-13.504-27.008 13.504-27.008 31.488-10.496q16.992 0 27.488 10.496t10.496 27.488-10.496 27.008-27.488 10.016zM600.992 384q-12 0-20.992-9.504t-8.992-20.992 8.992-20.992 20.992-9.504q16 0 27.008 8.992t11.008 20.992-11.008 21.504-27.008 9.504zM1020.992 737.984q0 64-45.504 109.504t-109.504 45.504h-708.992q-64 0-109.504-45.504t-45.504-109.504v-708.992q0-64 45.504-109.504t109.504-45.504h708.992q64 0 109.504 45.504t45.504 109.504v708.992zM388.992 216.992q-28.992 0-106.016 15.008l-106.016-52.992 30.016 91.008q-120.992 84.992-120.992 204.992 0 107.008 88.512 182.016t214.496 75.008q111.008 0 198.496-60.512t106.496-151.488q-16 0.992-28.992 0.992-107.008 0-182.016-70.016t-75.008-168.992q0-32 8.992-64-16-0.992-28-0.992zM836 111.008l22.016-76-83.008 46.016q-60-16-91.008-16-107.008 0-182.016 64.512t-75.008 155.488 75.008 155.488 182.016 64.512q103.008 0 180.512-64.992t77.504-155.008q0-95.008-106.016-174.016v0zM767.008 384q-11.008 0-20.512-9.504t-9.504-20.992 9.504-20.992 20.512-9.504q16.992 0 27.488 8.992t10.496 20.992-10.496 21.504-27.488 9.504zM502.016 528q16.992 0 27.488 10.496t10.496 27.488-10.496 27.008-27.488 10.016q-18.016 0-31.488-10.496t-13.504-27.008 13.504-27.008 31.488-10.496z"  horiz-adv-x="1024" />

    
    <glyph glyph-name="weibo" unicode="&#58887;" d="M471.451492 385.750877c-88.793302-4.100388-160.598698-51.671846-160.598698-111.01542 0-59.272965 71.805396-103.802134 160.598698-99.651604 88.889493 4.03592 160.823825 59.663868 160.823825 118.925576C632.274294 353.21895 560.340985 389.835915 471.451492 385.750877zM531.974937 236.498598c-27.198455-35.109636-81.011059-52.256154-133.285632-23.954575-24.863271 13.501502-23.940249 40.001039-23.940249 40.001039s-10.342556 83.672678 79.000262 94.111424C543.191396 357.046115 559.172369 271.60721 531.974937 236.498598zM429.729252 281.025721c-16.695241-1.736551-28.624944-16.291035-28.624944-30.181393 0-13.95585 13.420661-23.566742 30.115901-21.608134 16.597003 1.883907 30.116925 14.718213 30.116925 28.628014C461.337133 271.801638 448.888614 282.856415 429.729252 281.025721zM472.050126 292.517449c-5.722328-4.15053-6.889921-12.059664-3.777023-17.001209 2.982938-5.077645 9.952676-5.66093 15.592117-1.430582 5.51255 4.364401 7.653307 11.949146 4.670369 17.007349C485.552651 296.034553 478.68115 297.445692 472.050126 292.517449zM512.24457 829.018469c-246.678192 0-446.650643-199.972451-446.650643-446.650643s199.972451-446.650643 446.650643-446.650643 446.650643 199.972451 446.650643 446.650643S758.922762 829.018469 512.24457 829.018469zM711.664436 254.685819c-36.629245-77.771271-157.354817-115.635647-246.827595-108.615767-85.031629 6.694469-194.361663 34.930557-205.658963 137.825019 0 0-5.963829 46.616714 39.226397 106.915032 0 0 64.964594 90.753957 140.6606 116.655883 75.760474 25.755594 84.578304-17.847483 84.578304-43.618427-4.0175-21.883403-11.540847-34.737152 16.889669-25.900903 0 0 74.463945 34.523281 105.099686 3.888564 24.736381-24.733311 4.085038-58.756195 4.085038-58.756195s-10.243295-11.361769 10.862395-15.44783C681.745009 363.416196 748.266052 332.58705 711.664436 254.685819zM638.241192 469.553515c-8.106632 0-14.623046 6.548136-14.623046 14.604626 0 8.184403 6.516414 14.731516 14.623046 14.731516 0 0 91.269703 16.892739 80.362282-81.205487 0-0.583285-0.064468-1.037632-0.194428-1.556449-1.037632-6.935969-7.148817-12.269441-14.344706-12.269441-8.118911 0-14.734586 6.500041-14.734586 14.603603C689.329754 418.46086 703.789071 484.025111 638.241192 469.553515zM792.548604 391.099698l-0.130983 0c-2.399653-16.59598-10.647501-17.927301-20.455891-17.927301-11.735275 0-21.23258 7.393387-21.23258 19.128663 0 10.178827 4.211928 20.518313 4.211928 20.518313 1.25048 4.28049 11.18576 30.928407-6.547113 70.704318-32.451086 54.525847-97.835236 55.336306-105.553011 52.222385-7.779174-3.045359-19.285229-4.600785-19.285229-4.600785-11.803837 0-21.283746 9.628288-21.283746 21.299095 0 9.82067 6.565533 18.121729 15.512299 20.648272 0 0 0.191358 0.324388 0.518816 0.38988 0.647753 0.12996 1.297552 0.796132 2.010797 0.860601 9.092076 1.733481 41.558511 8.118911 73.101925 0.728594C749.887992 561.877223 827.399343 507.285884 792.548604 391.099698z"  horiz-adv-x="1024" />

    
    <glyph glyph-name="dingdan" unicode="&#58988;" d="M705.46627 176.821427 407.558299 176.821427c-13.113669 0-23.743774 10.630105-23.743774 23.743774s10.630105 23.743774 23.743774 23.743774l297.90797 0c13.113669 0 23.743774-10.630105 23.743774-23.743774S718.579939 176.821427 705.46627 176.821427zM705.46627 297.168376 407.558299 297.168376c-13.113669 0-23.743774 10.630105-23.743774 23.743774 0 13.113669 10.630105 23.743774 23.743774 23.743774l297.90797 0c13.113669 0 23.743774-10.630105 23.743774-23.743774C729.210044 307.798481 718.579939 297.168376 705.46627 297.168376zM705.46627 420.616966 407.558299 420.616966c-13.113669 0-23.743774 10.630105-23.743774 23.743774 0 13.113669 10.630105 23.743774 23.743774 23.743774l297.90797 0c13.113669 0 23.743774-10.630105 23.743774-23.743774C729.210044 431.24707 718.579939 420.616966 705.46627 420.616966zM705.46627 540.964938 407.558299 540.964938c-13.113669 0-23.743774 10.630105-23.743774 23.743774s10.630105 23.743774 23.743774 23.743774l297.90797 0c13.113669 0 23.743774-10.630105 23.743774-23.743774S718.579939 540.964938 705.46627 540.964938zM766.254751-44.073542l-508.511549 0c-59.486836 0-107.883079 48.394197-107.883079 107.877963L149.860123 704.18944c0 59.487859 48.396243 107.884103 107.883079 107.884103l508.511549 0c59.487859 0 107.885126-48.397267 107.885126-107.884103l0-640.383996C874.139877 4.320655 825.742611-44.073542 766.254751-44.073542zM257.743202 761.357464c-31.521924 0-57.167001-25.6461-57.167001-57.168024l0-640.383996c0-31.519878 25.645077-57.162908 57.167001-57.162908l508.511549 0c31.523971 0 57.171094 25.64303 57.171094 57.162908L823.425845 704.18944c0 31.522947-25.647123 57.168024-57.171094 57.168024L257.743202 761.357464zM341.564259 564.15101c0-11.329023-9.225105-20.488637-20.554128-20.488637-11.265578 0-20.488637 9.160637-20.488637 20.488637 0 11.329023 9.224082 20.4958 20.488637 20.4958C332.339154 584.645786 341.564259 575.479009 341.564259 564.15101zM341.564259 439.156204c0-11.329023-9.225105-20.488637-20.554128-20.488637-11.265578 0-20.488637 9.160637-20.488637 20.488637 0 11.335163 9.224082 20.559245 20.488637 20.559245C332.339154 459.714426 341.564259 450.491367 341.564259 439.156204zM341.564259 316.024839c0-11.271718-9.225105-20.4958-20.554128-20.4958-11.265578 0-20.488637 9.224082-20.488637 20.4958 0 11.329023 9.224082 20.552082 20.488637 20.552082C332.339154 336.577944 341.564259 327.353862 341.564259 316.024839zM341.564259 196.666404c0-11.335163-9.225105-20.559245-20.554128-20.559245-11.265578 0-20.488637 9.224082-20.488637 20.559245 0 11.329023 9.224082 20.488637 20.488637 20.488637C332.339154 217.155041 341.564259 207.994404 341.564259 196.666404z"  horiz-adv-x="1024" />

    
    <glyph glyph-name="shenqingchenggong" unicode="&#58957;" d="M981.04266525 583.3657344000001c-25.6855131 60.72264363-62.44696519 115.25123869-109.26559802 162.07103545-46.82096071 46.81979677-101.34839182 83.5824128-162.07103544 109.26559801-62.88241095 26.59715641-129.6628827 40.08318521-198.48785579 40.08318521s-135.60544483-13.48602994-198.48785579-40.08318521c-60.72264363-25.68318407-115.25123869-62.44580125-162.07103544-109.26559801-46.81979677-46.81863282-83.5824128-101.34722674-109.26559802-162.07103545C14.79885824 520.48332345 1.31282944 453.70168775 1.31282944 384.87787861c0-58.13208747 9.71138503-115.16624555 28.86287474-169.5155382 18.51112675-52.53066411 45.42613618-101.45783467 79.99522019-145.42161579 9.94191587-12.63958699 28.24696263-14.82962603 40.88887752-4.89120313 12.64191602 9.94075079 14.83195506 28.24812658 4.89236821 40.8900426-63.06637027 80.20246414-96.4001371 176.65732381-96.40013711 278.93831566 0 249.05086179 202.61761024 451.66847203 451.66847204 451.66847204 249.05086179 0 451.66847203-202.61761024 451.66847204-451.66847204S760.27020174-66.79059456000005 511.21933995-66.79059456000005c-74.78616405 0-148.86210787 18.64734947-214.21981128 53.92665373-14.15200654 7.64010382-31.81669035 2.35886137-39.45563022-11.79314404s-2.35886137-31.81669035 11.79314404-39.45679531c73.82794923-39.85149155 157.46974151-60.9159168 241.88229746-60.9159168 68.82380914 0 135.60544483 13.48602994 198.48785578 40.08318521 60.72264363 25.6855131 115.25007474 62.44696519 162.07103545 109.26559801 46.81863282 46.82096071 83.58008491 101.34839182 109.26559801 162.07103545 26.59715641 62.88241095 40.08318521 129.6628827 40.08318521 198.48785578S1007.63982165 520.48332345 981.04266525 583.3657344000001zM375.95270485 209.35574186999997c15.33260117-15.33260117 35.4679205-22.99715584 55.61022464-22.99715584 20.13648327 0 40.27995136 7.66804765 55.6090607 22.99715584l0.20724508 0.20724508 311.72253582 324.5437531c11.13997539 11.59870691 10.76856491 30.03182649-0.82897806 41.17180189-11.59870691 11.13997539-30.03066254 10.76972885-41.17180188-0.82897807L445.83020089 250.37735025999996c-7.75886279-7.59120327-20.11785443-7.74023395-28.05951033-0.45291065L266.46007011 426.70983509c-10.45886293 12.218112-28.83842389 13.64553842-41.05770097 3.18783944-12.218112-10.45769785-13.64553842-28.83958898-3.18783943-41.05770098L375.15399851 210.15444821000006 375.95270485 209.35574186999997z"  horiz-adv-x="1024" />

    
    <glyph glyph-name="danxuan" unicode="&#59280;" d="M301.443493 384.002047c0-116.288516 94.266967-210.559577 210.556507-210.559577s210.556507 94.27106 210.556507 210.559577c0 116.285446-94.266967 210.556507-210.556507 210.556507S301.443493 500.287493 301.443493 384.002047zM512-63.434495c-246.720148 0-447.432449 200.716394-447.432449 447.436542S265.279852 831.434495 512 831.434495s447.432449-200.712301 447.432449-447.432449S758.720148-63.434495 512-63.434495zM512 778.793578c-217.715557 0-394.795625-177.076998-394.795625-394.791531 0-217.718627 177.080068-394.795625 394.795625-394.795625s394.795625 177.076998 394.795625 394.795625C906.795625 601.717603 729.714534 778.793578 512 778.793578z"  horiz-adv-x="1024" />

    
    <glyph glyph-name="jingshi" unicode="&#58966;" d="M511.998 831.209c-246.991 0-447.209-200.218-447.209-447.209 0-246.994 200.215-447.211 447.209-447.211 246.994 0 447.212 200.217 447.212 447.211 0 246.991-200.218 447.209-447.212 447.209l0 0zM445.022 590.355c0 36.644 29.648 66.298 66.298 66.298 36.583 0 67.683-29.652 67.683-66.298l0-205.182c0-36.602-31.079-66.297-67.683-66.297-36.65 0-66.298 29.695-66.298 66.297l0 205.182zM513.397 111.347c-40.158 0-75.509 32.533-75.509 72.717 0 40.132 35.35 72.695 75.509 72.695 40.162 0 72.717-32.559 72.717-72.695 0-40.185-32.555-72.717-72.717-72.717z"  horiz-adv-x="1024" />

    
    <glyph glyph-name="editing" unicode="&#58967;" d="M989.845 502.963c-1.478 13.473-12.889 23.96-26.755 23.96-13.865 0-25.276-10.487-26.752-23.96h-0.173v-467.327c0-42.895-34.894-77.787-77.788-77.787h-691.11c-42.89 0-77.786 34.891-77.786 77.787v696.722c0 42.893 34.896 77.788 77.786 77.788l463.972 0.038c14.528 0.394 26.191 12.265 26.191 26.888s-11.663 26.496-26.191 26.888v0.039h-463.972c-72.587 0-131.639-59.054-131.639-131.639v-696.724c0-72.586 59.053-131.637 131.639-131.637h691.11c72.588 0 131.639 59.052 131.639 131.637v467.326h-0.172zM296.383 220.952l-0.122-0.502c-2.204-9.35-4.103-26.841 7.958-38.894 7.478-7.491 17.050-9.599 25.465-9.599 5.136 0 9.846 0.788 13.387 1.618l147.077 38.835 468.748 468.748c16.388 16.387 25.413 38.174 25.413 61.347 0 23.175-9.025 44.963-25.413 61.349l-32.439 32.439c-33.831 33.827-88.87 33.836-122.703 0.001l-468.792-468.793-38.578-146.551zM378.206 323.259l67.73-67.722-91.081-23.352 23.351 91.074zM410.621 367.009l366.34 366.337 78.983-78.982-366.339-366.339-78.983 78.983zM888.374 798.219l32.441-32.441c12.832-12.832 12.832-33.709 0-46.543l-26.796-26.792-78.978 78.982 26.792 26.794c12.834 12.836 33.715 12.828 46.54 0.001z"  horiz-adv-x="1024" />

    
    <glyph glyph-name="zhiding" unicode="&#58929;" d="M510.358617 820.768575c-240.301971 0-435.106726-194.803731-435.106726-435.106726 0-240.301971 194.804754-435.104679 435.106726-435.104679S945.465342 145.360901 945.465342 385.661849C945.465342 625.965867 750.660588 820.768575 510.358617 820.768575zM650.864698 291.134962c-7.590885 0-14.432711 3.176342-19.289322 8.267291l-0.01842-0.01842c0 0-110.313431 109.566418-113.239064 112.459305-5.600555 5.529947-10.222829 5.529947-15.916505 0-3.25309-3.15997-113.239064-112.459305-113.239064-112.459305l-0.021489 0.01842c-4.853541-5.090948-11.698436-8.267291-19.286252-8.267291-14.72333 0-26.65815 11.93482-26.65815 26.656103 0 8.107655 3.624551 15.365966 9.335622 20.2543 0 0 124.331703 123.475196 129.056308 128.169101 4.727675 4.694929 14.356986 13.976316 28.768207 13.976316 14.776542 0 23.411199-8.701173 29.40368-14.605649 5.000897-4.927219 128.423905-127.539768 128.423905-127.539768 5.711072-4.888334 9.335622-12.146645 9.335622-20.2543C677.521824 303.069783 665.587004 291.134962 650.864698 291.134962z"  horiz-adv-x="1024" />

    
    <glyph glyph-name="zhanghuzhongxinyinxingqia" unicode="&#58935;" d="M964.41944291 723.4024869L59.39077689 723.4024869c-31.24269397 0-56.5707685-25.32923847-56.5707685-56.56960341l0-56.57658938 0-18.89534406 37.7371318 0 942.76230372 0 37.66960242 0 0 18.9640374 0 56.50789604C1020.98904633 698.07324729 995.72850119 723.4024869 964.41944291 723.4024869L964.41944291 723.4024869zM40.55714019 478.27762745L2.82000953 478.27762745l0-18.90000214 0-358.20235889c0-31.2473509 25.32923847-56.57658937 56.5707685-56.57658937l905.0903734 0c31.2473509 0 56.5707685 25.2652032 56.5707685 56.57658937l0 358.26523022 0 18.83829362L983.38231637 478.27879139 40.55714019 478.27879139 40.55714019 478.27762745zM115.96620231 308.56066617l226.28772864 0 0-37.67076636L115.96620231 270.88989981 115.96620231 308.56066617 115.96620231 308.56066617zM493.06972729 157.74487096999997l-377.10352498 0 0 37.73829575 377.10352498 0L493.06972729 157.74487096999997 493.06972729 157.74487096999997z"  horiz-adv-x="1024" />

    
    <glyph glyph-name="shaixuan" unicode="&#58968;" d="M598.051353-63.799816c-0.277316 0.487094-0.415462 1.072425-0.792039 1.414209-7.649214 6.682189-10.82044 15.19405-10.785647 25.251104 0.104377 18.636452 0.035816 37.307697 0.035816 55.945173 0 127.767965 0.067538 255.536954-0.105401 383.304919-0.029676 12.127202 3.962242 21.564132 12.474103 30.040177 84.156702 83.951017 168.20698 168.074973 252.262374 252.128321 7.062859 7.094582 12.814864 14.94641 15.639189 24.835641 8.509814 29.352515-13.296841 59.873646-43.88858 61.216223-1.614777 0.068562-3.269463 0.068562-4.888334 0.068562L205.96135 770.404514c-22.843264 0-40.99467-12.160971-47.919383-32.586163-5.443989-16.090467-2.892887-31.245631 7.370875-44.853557 3.413749-4.477988 7.204076-8.644891 11.162224-12.608156 80.126922-80.230276 160.285566-160.459528 240.585427-240.551658 8.40646-8.372691 12.266371-17.774829 12.232602-29.659507-0.208754-87.050612-0.173962-174.137039-0.069585-261.155928 0-13.294794-4.790096-23.662933-16.709567-30.004361-19.015076-10.126638-42.748616 2.963495-44.50768 24.358781-0.172939 2.339278-0.172939 4.752234-0.172939 7.094582 0 82.191954-0.029676 164.351162 0.068562 246.51037 0 3.581572-1.029446 6.02932-3.546779 8.510838-79.091336 78.991052-158.254304 157.943218-237.108233 237.176794-21.494547 21.560038-33.414017 47.915289-33.518395 78.749552-0.172939 51.635007 34.485419 94.557586 81.676208 106.545618 9.921977 2.51631 20.465101 3.720741 30.695093 3.755534 203.900923 0.172939 407.727145 0.172939 611.593276 0.104377 42.681078 0 75.376735-18.428721 97.627505-54.910611 22.11467-36.307927 19.050891-86.842881-7.097652-120.362298-4.544503-5.825682-9.437953-11.43954-14.674211-16.639982-80.675414-80.779791-161.390737-161.491021-242.170528-242.101967-2.615571-2.615571-3.685949-5.131881-3.685949-8.887414 0.069585-139.340535-0.033769-278.651394 0.208754-417.957137 0.033769-13.262048-1.379417-25.319665-11.712763-34.762735C623.509165-63.799816 610.797655-63.799816 598.051353-63.799816L598.051353-63.799816zM598.051353-63.799816"  horiz-adv-x="1024" />

    
    <glyph glyph-name="baidu" unicode="&#59007;" d="M455.102 298.654l-40.004 0c0 0-41.978-4.827-56.678-53.387-5.119-32.398 4.534-52.802 6.216-56.898 1.755-4.022 15.285-31.886 49.292-31.886l69.623 0 0 188.683-28.449 0.585L455.102 298.654zM455.102 184.932l-30.423 0c0 0-22.086 2.194-28.888 28.156-3.437 11.555 0.512 25.889 2.34 31.082 1.682 5.193 9.069 26.109 24.353 26.109l32.691 0 0-85.346L455.102 184.933zM597.346 184.932l-45.343 0c0 0-11.555 2.413-11.555 12.213L540.448 298.654 512 298.654l0-112.479c0 0 1.682-29.692 36.859-29.692l76.936 0L625.795 298.654l-28.449 0L597.346 184.932zM512 895.932C229.267 895.932 0.068 666.733 0.068 384S229.267-127.932 512-127.932 1023.932 101.267 1023.932 384 794.733 895.932 512 895.932zM609.998 660.297c37.225-3.876 63.333-45.562 58.433-93.098-4.9-47.537-39.053-83.006-76.278-79.13-37.225 3.876-63.333 45.562-58.433 93.098C538.62 628.703 572.847 664.173 609.998 660.297zM435.43 663.515c37.371 1.975 69.623-35.104 72.182-82.86 2.487-47.756-25.67-88.052-63.041-90.027-37.371-1.975-69.623 35.104-72.182 82.86C369.902 621.244 398.132 661.54 435.43 663.515zM246.965 436.363c-2.56 47.756 25.743 88.052 63.041 90.027 37.371 1.975 69.696-35.104 72.182-82.86 2.56-47.756-25.67-88.052-63.041-90.027C281.777 351.529 249.525 388.607 246.965 436.363zM718.967 148.511C685.764 68.796 564.51 110.19 564.51 110.19s-44.684 14.7-96.536 2.925c-51.851-11.848-96.609-7.386-96.609-7.386s-60.701-1.463-77.96 76.717c-17.259 78.326 60.554 121.182 66.332 128.495 5.704 7.46 46.147 35.47 72.036 79.715 26.035 44.319 103.922 79.715 158.699-7.386 40.443-59.092 109.7-113.722 109.7-113.722S752.096 228.226 718.967 148.511zM701.415 337.999c-37.152 3.876-63.333 45.562-58.433 93.098 4.9 47.537 39.053 83.006 76.278 79.13 37.225-3.876 63.406-45.562 58.433-93.098C772.793 369.593 738.64 334.123 701.415 337.999zM597.346 184.932l-45.343 0c0 0-11.555 2.413-11.555 12.213L540.448 298.654 512 298.654l0-112.479c0 0 1.682-29.692 36.859-29.692l76.936 0L625.795 298.654l-28.449 0L597.346 184.932zM455.102 345.751l0-47.098-40.004 0c0 0-41.978-4.827-56.678-53.387-5.119-32.398 4.534-52.802 6.216-56.898 1.755-4.022 15.285-31.886 49.292-31.886l69.623 0L483.551 345.166 455.102 345.751zM455.176 184.932l-0.073 0-30.423 0c0 0-22.086 2.194-28.888 28.156-3.437 11.555 0.512 25.889 2.34 31.082 1.682 5.193 9.069 26.109 24.353 26.109l32.691 0L455.176 184.932z"  horiz-adv-x="1024" />

    
    <glyph glyph-name="mima" unicode="&#58896;" d="M133.4272-128 133.4272 384 256.2816 384 256.2816 624C256.2816 773.9904 373.376 896 517.2992 896 661.248 896 778.3424 773.9904 778.3424 624L778.3424 384 901.1712 384 901.1712-128 133.4272-128ZM747.6224 624C747.6224 756.352 644.3008 864 517.2992 864 390.2976 864 286.976 756.352 286.976 624L286.976 384 747.6224 384 747.6224 624ZM870.4768 352 164.1472 352 164.1472-96 870.4768-96 870.4768 352ZM517.2992 224C559.6416 224 594.0736 188.1088 594.0736 144 594.0736 105.3696 567.6544 73.0624 532.6592 65.6128L532.6592 16 501.9392 16 501.9392 65.6128C466.944 73.0624 440.5248 105.3696 440.5248 144 440.5248 188.1088 474.9824 224 517.2992 224ZM517.2992 96C542.6944 96 563.3792 117.5296 563.3792 144 563.3792 170.4704 542.6944 192 517.2992 192 491.904 192 471.2448 170.4704 471.2448 144 471.2448 117.5296 491.904 96 517.2992 96Z"  horiz-adv-x="1024" />

    
    <glyph glyph-name="loginuser" unicode="&#59040;" d="M788.48 193.248c-107.776 24.864-208.096 46.624-159.488 138.24 147.872 278.816 39.2 427.936-116.992 427.936-159.264 0-265.28-154.848-116.992-427.936 50.016-92.128-54.048-113.888-159.52-138.24-87.136-20.096-98.368-61.12-99.488-130.624-0.448-29.856 24.256-54.048 54.112-54.048l643.712 0c29.856 0 54.592 24.224 54.112 54.048-1.088 69.504-12.32 110.528-99.456 130.624z"  horiz-adv-x="1024" />

    
    <glyph glyph-name="jiantou2" unicode="&#58885;" d="M505.015 144.275l419.975 430.914-47.561 48.761-372.385-382.101-372.384 382.071-47.562-48.727z"  horiz-adv-x="1024" />

    
    <glyph glyph-name="shoukuanbishu" unicode="&#58953;" d="M924.352489 273.950582c-15.925714 36.602639-64.184835 36.334533-91.033319 30.203906l-123.891681-33.401738c-12.561084 32.128745-47.085388 44.796252-72.073502 45.057195L115.827005 315.809945l-0.007163-0.001023-0.007163 0.001023c-11.952216 0-21.648043-9.69685-21.648043-21.649066l0-192.793958c0-9.42772 6.088672-17.758456 15.066137-20.61962 142.266168-45.354977 313.63721-95.304599 420.062078-95.304599 12.347213 0 23.848151 0.676405 34.292014 2.099824C631.420857-1.562333 853.925487 136.673032 897.208269 172.120358 929.200914 198.363046 939.855578 238.334409 924.352489 273.950582L924.352489 273.950582zM869.765243 205.608054c-43.832298-35.898605-258.275321-166.522618-312.538179-175.233-89.299839-12.220323-278.655488 42.198078-419.766342 86.834694L137.460722 272.512836l499.665067 0c5.652743-0.056282 33.854039-1.720178 33.854039-28.709879 0-8.78099-3.255137-13.051247-5.722328-15.489786-9.738805-9.710153-30.316469-11.825326-38.054711-11.825326l-186.549743-9.653871c-11.952216-0.620124-21.12718-10.79588-20.507056-22.734794 0.592494-11.571546 10.161431-20.534685 21.60711-20.534685 0.36532 0 0.747014 0.014326 1.127683 0.028653l185.140651 9.626241c4.213975 0.027629 43.142589 0.083911 67.582211 24.199145 8.181333 8.068769 13.522991 18.042935 16.330944 29.167297l131.840724 35.552727c12.204973 2.790556 37.025265 3.38305 40.886199-5.468548C890.680599 242.830817 889.920282 222.154915 869.765243 205.608054L869.765243 205.608054zM208.693066 475.172489l506.670621 0c11.952216 0 21.648043 9.69685 21.648043 21.649066l0.001023 270.226514c0 11.952216-9.69685 21.649066-21.649066 21.649066L208.693066 788.697135c-11.952216 0-21.649066-9.69685-21.649066-21.649066l0-270.226514C187.045023 484.869339 196.74085 475.172489 208.693066 475.172489L208.693066 475.172489zM230.341109 745.400027l463.374536 0 0-226.930429L230.341109 518.469598 230.341109 745.400027 230.341109 745.400027zM288.38099 395.483542c0-11.951193 9.69685-21.648043 21.649066-21.648043l506.670621 0c11.952216 0 21.648043 9.69685 21.648043 21.648043l0.001023 270.227538c0 11.952216-9.69685 21.649066-21.649066 21.649066-11.951193 0-21.648043-9.69685-21.648043-21.649066l0-248.578472L310.030056 417.132608C298.077839 417.132608 288.38099 407.435759 288.38099 395.483542L288.38099 395.483542zM462.036052 712.701301c-44.537356 0-80.759325-36.22197-80.759325-80.758302 0-44.537356 36.22197-80.759325 80.759325-80.759325 44.536332 0 80.759325 36.22197 80.759325 80.759325C542.795377 676.479331 506.573407 712.701301 462.036052 712.701301L462.036052 712.701301zM462.036052 594.479759c-20.661575 0-37.462217 16.800641-37.462217 37.462217 0 20.661575 16.800641 37.462217 37.462217 37.462217 20.661575 0 37.462217-16.800641 37.462217-37.462217C499.498268 611.2804 482.697627 594.479759 462.036052 594.479759L462.036052 594.479759z"  horiz-adv-x="1024" />

    
    <glyph glyph-name="renyuanguanli" unicode="&#58933;" d="M185.112169 602.616095C166.566993 602.616095 151.540171 587.588109 151.540171 569.058101 151.540171 550.530429 166.566993 535.503609 185.112169 535.503609L473.770202 535.503607C492.316545 535.503607 507.3422 550.530429 507.3422 569.058101 507.3422 587.588107 492.316545 602.616095 473.770202 602.616095L185.112169 602.616095 185.112169 602.616095 185.112169 602.616095ZM436.034524 353.372981C436.034524 371.902989 421.006536 386.958984 402.463695 386.958984L185.112169 386.958984C166.566993 386.958984 151.540171 371.902987 151.540171 353.372981 151.540171 334.842976 166.566993 319.816154 185.112169 319.816154L402.463695 319.816154C421.006536 319.816154 436.034524 334.842976 436.034524 353.372981L436.034524 353.372981 436.034524 353.372981ZM1066.796922-68.736341C1055.978124 9.560202 1031.123247 65.320595 983.724052 117.689832 953.671578 150.905909 920.961957 175.705941 886.024626 191.91605 936.07513 226.434444 968.939956 284.109804 968.939956 349.41702 968.939956 454.777475 883.183102 540.55767 777.784135 540.55767 672.368831 540.55767 586.61431 454.777475 586.61431 349.41702 586.61431 283.040877 620.594741 224.45763 672.073594 190.167957 669.701182 189.149211 667.298433 188.13513 664.910852 187.060369 598.859124 157.231948 547.564649 103.563896 516.536603 31.847789 493.415814-21.563534 489.589382-66.531971 489.420174-68.453937 488.092187-84.949949 500.393009-99.465646 516.903026-100.766796 533.441046-102.121626 547.875056-89.865145 549.20188-73.338793 549.243891-72.973537 552.705064-34.782749 572.336673 9.787757 597.743518 67.467785 637.188777 108.706647 689.58602 132.375904 783.771759 174.914747 867.763017 156.440754 939.265574 77.410202 967.935212 45.775342 996.040047 5.128123 1007.396808-76.954005 1009.45881-91.955153 1022.310436-102.855638 1037.067691-102.855638 1038.422519-102.855638 1039.807691-102.744776 1041.204529-102.546396 1057.587349-100.288345 1069.057304-85.147163 1066.796922-68.736341L1066.796922-68.736341 1066.796922-68.736341ZM777.784135 480.591587C850.1374 480.591587 908.984376 421.728274 908.984376 349.41702 908.984376 277.049754 850.1374 218.188773 777.784135 218.188773 705.44721 218.188773 646.579229 277.049756 646.579229 349.41702 646.579229 421.728272 705.446044 480.591587 777.784135 480.591587L777.784135 480.591587 777.784135 480.591587ZM338.573156-52.183147 157.953731-52.662764C111.461258-52.662764 73.611219-13.713457 73.611219 34.161851L73.611219 736.245927C73.611219 784.151577 111.461258 823.10555 157.953731 823.10555L845.475433 823.10555C891.981909 823.10555 929.81561 784.151577 929.81561 736.245927L929.576383 626.848988C929.576383 608.264136 944.60554 593.267656 963.149548 593.267656 981.677221 593.267656 996.702876 608.264136 996.702876 626.848988L996.702876 626.848988 996.960772 626.848988 996.960772 736.245927C996.960772 821.182417 928.998743 890.218039 845.47543 890.218039L157.952564 890.218039C74.429251 890.218039 6.484728 821.182417 6.484728 736.245927L6.484728 34.161851C6.484728-50.741963 74.430418-119.803258 157.952564-119.803258L338.57199-119.323641C357.099662-119.323641 372.127651-104.327161 372.127651-85.765648 372.128817-67.207633 357.100829-52.183147 338.573156-52.183147L338.573156-52.183147 338.573156-52.183147Z"  horiz-adv-x="1069" />

    
    <glyph glyph-name="haoping" unicode="&#58934;" d="M526.790868 165.596781l-28.581965 0c-45.156456 0-86.742597 5.426593-123.605156 16.129352-36.052101 10.467399-68.798922 26.323529-97.331769 47.12632-52.806693 38.501896-92.538603 93.89039-121.467469 169.328523-26.620287 69.421092-27.990494 255.926834-28.03552 263.832897l-0.001023 0.150426c0 0.848321 0.016373 1.692548 0.034792 2.536776l0.017396 0.893346 0.397043 25.953092 0.353041 0c0.013303 3.974521 0.002047 7.820106-0.061398 11.533684 1.107217 41.687448 22.031782 59.631122 29.611411 65.10274 6.083555 3.084245 40.196491 14.295588 78.828346-7.691169l123.57855-62.895469c13.468756 27.998681 32.992415 53.91391 56.694233 74.894757 30.80868 27.270087 67.289546 53.453423 96.411817 53.453423 29.284977 0 61.104683-25.761734 90.977038-52.29504 23.194258-20.6012 42.3659-46.505173 55.637158-74.8088l130.124639 62.007239c28.381397 14.985296 58.266032 21.521153 81.880869 12.281721 17.853623-15.360849 25.915229-42.948161 25.872251-69.644173l-0.008186-5.583159c-0.067538-45.166689-0.152473-101.342106-3.096525-138.607848-4.03592-77.367065-12.896728-131.990127-26.335808-162.349575-33.906228-76.589352-73.103972-129.730667-123.359562-167.237909C687.522596 186.568419 616.039541 165.596781 526.790868 165.596781zM180.839695 638.834966c1.430582-62.588477 7.364735-177.919179 24.183795-221.779106 51.994188-135.592165 145.155984-198.744483 293.184389-198.744483l28.581965 0c145.723919 0 230.812853 57.93755 293.692972 199.976544 10.543124 23.815405 18.325367 74.994018 21.913079 144.109142l0.048095 0.729617c2.808976 35.210943 2.891863 90.462315 2.959402 134.859477l0.008186 5.589298c0.019443 12.248975-0.867764 19.127639-1.670036 22.835078-4.52506-1.038656-13.353123-4.015454-29.199019-12.406564l-0.9967-0.50142-183.568852-87.47426-9.080819 28.970822c-9.435906 30.102598-27.65178 58.245566-51.2922 79.243809-19.755949 17.547655-39.901779 38.993083-55.970756 38.993083-30.798447 0-93.338828-54.266951-114.242927-120.169917l-9.392928-29.611411-178.704055 90.988294c-16.97358 9.752108-25.243941 9.04398-26.381857 8.347109-0.786922-0.532119-3.921309-5.550413-3.696182-18.807345 0.124843-7.291057 0.067538-14.667048 0.007163-22.474874-0.040932-5.301749-0.082888-10.782577-0.063445-16.21531l0.098237-26.454512L180.839695 638.838036zM487.571634 166.593482l49.751101 0 0-200.001103-49.751101 0 0 200.001103ZM616.641245-29.446403l-38.807864 18.054191c0.696872 1.717108 17.550725 42.535769 58.255799 84.929298 23.802102 24.789593 50.992371 45.197388 80.814584 60.653405 37.135782 19.247366 78.386278 30.78719 122.605386 34.298154l3.140527-45.075615c-69.743434-5.54018-128.856763-32.752961-175.698604-80.885192C631.626541 6.231167 616.786555-29.093363 616.641245-29.446403zM413.407518-29.446403l38.527478 18.054191c-0.691755 1.717108-17.423835 42.535769-57.83522 84.929298-23.630187 24.789593-50.622958 45.197388-80.230276 60.653405-36.867676 19.247366-77.819366 30.78719-121.718179 34.298154l-3.116991-45.075615c69.238944-5.54018 127.925554-32.752961 174.427658-80.885192C398.529669 6.231167 413.263232-29.093363 413.407518-29.446403z"  horiz-adv-x="1024" />

    
    <glyph glyph-name="shimingrenzheng" unicode="&#58926;" d="M176.923077 856.769231C96.923077 856.769231 39.230769 799.076923 39.230769 719.076923l0-669.230769c0-80 57.692308-137.692308 137.692308-137.692308l906.153846 0c80 0 137.692308 57.692308 137.692308 137.692308l0 669.230769c0 80-57.692308 137.692308-137.692308 137.692308L176.923077 856.769231zM1083.076923-29.384615 176.923077-29.384615c-50 0-78.461538 29.230769-78.461538 78.461538l0 669.230769c0 50 29.230769 78.461538 78.461538 78.461538l906.153846 0c50 0 78.461538-29.230769 78.461538-78.461538l0-669.230769C1161.538462 49.076923 1143.076923-29.384615 1083.076923-29.384615zM756.153846 502.153846l201.538462 0c15.384615 0 27.692308 13.076923 27.692308 29.230769 0 16.153846-12.307692 29.230769-27.692308 29.230769l-201.538462 0c-15.384615 0-27.692308-13.076923-27.692308-29.230769C728.461538 515.230769 740.769231 502.153846 756.153846 502.153846L756.153846 502.153846zM756.153846 344.461538l201.538462 0c15.384615 0 27.692308 13.076923 27.692308 29.230769 0 16.153846-12.307692 29.230769-27.692308 29.230769L756.153846 402.923077c-15.384615 0-27.692308-13.076923-27.692308-29.230769C728.461538 357.538462 740.769231 344.461538 756.153846 344.461538L756.153846 344.461538zM1055.384615 246 756.153846 246c-15.384615 0-27.692308-13.076923-27.692308-29.230769 0-16.153846 12.307692-29.230769 27.692308-29.230769l299.230769 0c15.384615 0 27.692308 13.076923 27.692308 29.230769C1083.076923 232.923077 1070.769231 246 1055.384615 246L1055.384615 246zM603.076923 285.230769c-32.307692 34.615385-73.076923 59.230769-119.230769 72.307692l-3.846154 0.769231 3.846154 1.538462c49.230769 26.153846 80 76.153846 80 130.769231 0 82.307692-67.692308 149.230769-150.769231 149.230769-83.076923 0-150.769231-66.923077-150.769231-149.230769 0-54.615385 30.769231-104.615385 80-130.769231l3.846154-1.538462L342.307692 357.538462c-45.384615-13.076923-86.923077-37.692308-119.230769-71.538462-33.076923-34.615385-55.384615-77.692308-63.846154-124.615385-1.538462-6.923077 0-14.615385 3.846154-20 3.846154-6.153846 10.769231-10 17.692308-11.538462 1.538462 0 3.846154-0.769231 5.384615-0.769231 13.076923 0 23.846154 9.230769 26.923077 22.307692 18.461538 94.615385 103.076923 154.615385 200.769231 154.615385 97.692308 0 181.538462-60 199.230769-155.384615 2.307692-13.076923 13.846154-22.307692 26.923077-22.307692 1.538462 0 3.846154 0 5.384615 0.769231 14.615385 3.076923 24.615385 16.923077 21.538462 31.538462C657.692308 206.769231 635.384615 250.615385 603.076923 285.230769L603.076923 285.230769zM413.846154 580.615385c54.615385 0 98.461538-43.846154 98.461538-98.461538 0-54.615385-43.846154-98.461538-98.461538-98.461538-54.615385 0-98.461538 43.846154-98.461538 98.461538C315.384615 536.769231 359.230769 580.615385 413.846154 580.615385L413.846154 580.615385z"  horiz-adv-x="1261" />

    
    <glyph glyph-name="shoushang" unicode="&#59716;" d="M800.894178 352.119919c-37.907355 79.850629-174.329421 167.663604-174.329421 167.663604L565.884746 104.643548c0 0-75.815733 63.850214-75.815733 95.776344-7.566326 47.924499 106.154715 319.363631 106.154715 319.363631l-75.813686-23.961738-90.949408 23.961738c-83.380012-7.963369-265.349437-231.514841-295.688419-311.363424-22.702048-71.852468 0-159.66442 30.338982-175.627996 53.077869-31.924083 166.763095-23.961738 166.763095-23.961738l-12.57541-121.467469 411.645384 0-24.213471 278.248212c0 0 34.517141-92.89369 42.12133-140.816143 7.568373-47.89073 6.307659-137.432069 6.307659-137.432069l145.180544 0c-0.334621 7.385201-1.725294 42.361807-7.498788 145.429207C884.27419 168.492738 846.367859 264.305921 800.894178 352.119919zM505.240551 56.720072c-7.567349-7.964392-75.779917-15.927761-144.026254-15.927761-68.24736 0-144.025231 0-159.195745 15.927761-15.134699 15.997346-45.473681 39.924291-30.338982 103.776551 0 87.847767 174.401052 271.473925 189.534727 287.436478 0 0 90.947362-231.513818 113.721041-271.439132 22.737864-39.926338 45.473681-63.850214 45.473681-63.850214S520.411065 72.717418 505.240551 56.720072zM899.340327-112.637104c0.106424-2.341325 0.106424-1.916653 0.106424 0L899.340327-112.637104zM526.536576 550.376285c90.515526 0 163.879418 74.30124 163.879418 165.970032 0 91.631954-73.363891 165.896354-163.879418 165.896354-90.551342 0-163.952072-74.264401-163.952072-165.896354C362.584504 624.677525 435.985234 550.376285 526.536576 550.376285z"  horiz-adv-x="1024" />

    
    <glyph glyph-name="baodan" unicode="&#58904;" d="M588.682868 614.054746H245.636233c-10.379126 0-18.682836-11.936455-18.682836-26.46846 0-14.530981 8.30371-26.46846 18.682836-26.468459h343.046635c10.380149 0 18.682836 11.936455 18.682835 26.468459-0.51911 15.051114-8.82282 26.46846-18.682835 26.46846zM712.719407 525.308461H251.863503c-14.012895 0-24.91113-11.936455-24.91113-26.468459 0-14.530981 11.417345-26.46846 24.91113-26.46846H712.719407c14.012895 0 24.91113 11.936455 24.91113 26.46846-0.001024 15.051114-11.418369 26.46846-24.91113 26.468459zM712.719407 444.866911H251.863503c-14.012895 0-24.91113-11.936455-24.91113-26.46846 0-14.530981 11.417345-26.46846 24.91113-26.468459H712.719407c14.012895 0 24.91113 11.936455 24.91113 26.468459-0.001024 15.051114-11.418369 26.46846-24.91113 26.46846zM910.451117 37.467036l-55.012334 99.12541c4.670965 13.493785 7.7846 27.505655 7.7846 40.99944 0 32.17662-12.455565 62.277825-36.328475 85.112515-23.3538 22.834691-55.012335 34.77217-89.78348 36.328475-12.455565 0-24.91113-1.55733-36.328476-6.22727-50.34137-15.05009-88.227175-60.720495-88.227174-115.73283 0-13.493785 3.113635-29.062985 7.7846-42.55677l-53.974115-97.04897c-4.670965-9.34193-4.670965-18.16475 1.55733-27.505656 6.227271-7.7846 15.5692-10.898235 26.468459-9.341929l36.328475 7.7846 12.455565-33.21484c3.113635-9.34193 10.898235-15.05009 21.797495-16.60742h1.55733c9.34193 0 17.12653 4.670965 21.797494 11.936455l47.227735 83.55621h3.113635l47.227734-83.55621c4.670965-7.7846 10.898235-11.936455 20.240166-11.936455h3.113635c9.34193 0 18.682836 7.7846 21.797495 16.60742l12.455565 33.21484 36.328475-7.7846c9.34193-1.55733 20.240165 1.55733 26.468459 9.341929 7.263442 7.7846 8.819748 18.682836 4.149807 27.505656z m-244.959444-37.885805l-17.12653 47.227734-51.897675-10.898235 44.113075 74.73339c3.113635-4.670965 6.228294-7.7846 9.34193-10.898236 15.5692-15.05009 34.77217-25.94935 55.012334-30.620314l-39.443134-69.544339z m72.13784 94.454445c-23.3538 0-47.226711 9.34193-64.35324 25.94935-17.12653 16.60742-26.46846 39.44211-26.468459 62.277825 0 39.44211 26.46846 73.17606 64.35324 83.556209 7.7846 3.113635 17.12653 4.670965 26.468459 4.670965 23.3538 0 47.227734-9.34193 64.353241-25.94935 17.12653-16.60742 26.46846-37.885805 26.468459-62.277824 0.51911-48.78404-40.48033-88.227175-90.8217-88.227175z m86.669845-47.226711l-17.126529-47.227734-39.442111 68.505095c26.46846 7.7846 50.34137 22.834691 65.91057 42.55677l42.55677-76.289696-51.8987 12.455565zM510.316733-7.16515H311.546803c-64.87235 0-117.808245 52.935895-117.808246 117.808246V677.888876c0 64.87235 52.935895 117.808245 117.808246 117.808246h403.24802c64.87235 0 117.808245-52.935895 117.808245-117.808246v-307.755355h31.138401V677.888876c0 81.99888-66.42968 148.94767-148.94767 148.94767h-403.246996c-82.51799 0-148.94767-66.42968-148.94767-148.94767v-567.24578c0-81.99888 66.42968-148.94767 148.94767-148.94767h198.76993v31.139424z"  horiz-adv-x="1024" />

    
    <glyph glyph-name="gouwuche1" unicode="&#58883;" d="M355.728 69.616c-26.554 0-48.061-21.507-48.061-48.061s21.507-48.061 48.061-48.061 48.061 21.507 48.061 48.061-21.507 48.061-48.061 48.061z m412.756 0c-26.554 0-48.061-21.507-48.061-48.061s21.507-48.061 48.061-48.061 48.061 21.507 48.061 48.061-21.507 48.061-48.061 48.061z m73.253 46.619H351.918c-19.974 0-39.496 7.668-54.971 21.592-15.492 13.939-25.371 32.746-27.815 52.955l-0.004 0.034-51.159 360.168-29.084 168.179-0.058 0.417c-2.246 16.221-17.087 29.925-32.408 29.925H118c-13.807 0-25 11.193-25 25s11.193 25 25 25h38.418c40.122 0 75.994-31.859 81.871-72.613l29.074-168.122 51.404-361.965c0.994-8.221 5.121-15.959 11.622-21.809 6.28-5.65 13.925-8.762 21.528-8.762h489.819c13.808 0 25-11.193 25-25s-11.191-24.999-24.999-24.999zM389.532 238.731c-12.972 0-23.937 10.019-24.906 23.163-1.015 13.77 9.325 25.755 23.094 26.771l408.873 30.139 0.59 0.016c16.205 0.428 30.604 12.955 32.781 28.521l0.132 0.841 47.394 271.179c0.016 0.086 0.024 0.151 0.032 0.216 1.395 11.716-1.94 23.753-8.703 31.425-4.64 5.25-10.736 8.037-17.613 8.037H329.09c-13.807 0-25 11.193-25 25s11.193 25 25 25h522.116c21.316 0 40.886-8.861 55.102-24.952 16.142-18.311 23.936-44.625 20.865-70.411a53.075 53.075 0 0 0-0.433-2.946l-47.323-270.777c-5.732-39.299-40.099-69.724-80.271-71.097L391.396 238.8a25.4 25.4 0 0 0-1.864-0.069z"  horiz-adv-x="1024" />

    
    <glyph glyph-name="danxuan1" unicode="&#58889;" d="M1017.1182159644443 386.19477333333333c0-280.51625642666664-227.40367473777778-507.9199311644444-507.91993002666663-507.9199311644444s-507.9199311644444 227.40367473777778-507.9199311644444 507.9199311644444 227.40367473777778 507.9199311644444 507.9199311644444 507.9199311644444 507.9199311644444-227.40367473777778 507.91993002666663-507.9199311644444z m-507.91993002666663 459.1036996266667c-253.55572679111108 0-459.1036996266667-205.54797283555556-459.1036996266667-459.1036996266667s205.54797283555556-459.1036996266667 459.1036996266667-459.1036996266667 459.1036996266667 205.54797283555556 459.1036996266667 459.1036996266667S762.754011591111 845.2984729599998 509.19828593777777 845.2984729599998z"  horiz-adv-x="1024" />

    
    <glyph glyph-name="close" unicode="&#58975;" d="M918.8591388444445 864.4154608197531l-406.8591388444445-406.84489892345675-406.8591388444445 406.84489892345675c-21.92041655308642 21.92041655308642-57.463259338271605 21.92041655308642-79.38238135308642 0-21.92041655308642-21.92041655308642-21.92041655308642-57.460670261728396 0-79.3784977382716l406.8591388444445-406.8436043851852-406.8591388444445-406.8461934617284c-21.92041655308642-21.92041655308642-21.92041655308642-57.460670261728396 0-79.3784977382716 21.92041655308642-21.92041655308642 57.463259338271605-21.92041655308642 79.38238135308642 0l406.8591388444445 406.8436043851852 406.8591388444445-406.8436043851852c21.92041655308642-21.92041655308642 57.461964800000004-21.92041655308642 79.38497042962963 0s21.92041655308642 57.460670261728396 0 79.3784977382716l-406.8591388444445 406.84489892345675 406.8591388444445 406.8436043851852c21.92041655308642 21.92041655308642 21.92041655308642 57.460670261728396 0 79.3784977382716-21.921711091358024 21.91782747654321-57.463259338271605 21.91782747654321-79.38497042962963 0.0012945382716049384z"  horiz-adv-x="1024" />

    
    <glyph glyph-name="QQ" unicode="&#59198;" d="M512 896C229.003636 896 0 666.996364 0 384s229.003636-512 512-512 512 229.003636 512 512S794.996364 896 512 896z m210.385455-641.396364c-7.447273-9.309091-26.996364 1.861818-41.89091 32.581819-3.723636-13.963636-13.032727-36.305455-34.443636-64.232728 35.374545-8.378182 44.683636-42.821818 33.512727-61.44-8.378182-13.032727-26.996364-24.203636-59.578181-24.203636-58.647273 0-83.781818 15.825455-95.883637 26.996364-1.861818 2.792727-5.585455 3.723636-10.24 3.723636-4.654545 0-7.447273-0.930909-10.24-3.723636-11.170909-11.170909-37.236364-26.996364-95.883636-26.996364-32.581818 0-52.130909 11.170909-59.578182 24.203636-12.101818 18.618182-1.861818 53.061818 33.512727 61.44-20.48 27.927273-29.789091 50.269091-34.443636 64.232728-13.963636-30.72-34.443636-42.821818-41.890909-32.581819-5.585455 8.378182-8.378182 26.065455-7.447273 38.167273 3.723636 46.545455 34.443636 85.643636 53.061818 106.123636-2.792727 5.585455-8.378182 40.029091 14.894546 63.301819v1.861818c0 92.16 65.163636 158.254545 148.014545 158.254545 81.92 0 148.014545-66.094545 148.014546-158.254545v-1.861818c23.272727-23.272727 17.687273-57.716364 14.894545-63.301819 17.687273-20.48 49.338182-59.578182 53.061818-106.123636 0.930909-12.101818-0.930909-29.789091-7.447272-38.167273z"  horiz-adv-x="1024" />

    
    <glyph glyph-name="tishi" unicode="&#59218;" d="M512 896C230.4 896 0 665.6 0 384s230.4-512 512-512 512 230.4 512 512S793.6 896 512 896z m22.4-809.6c-6.4-6.4-19.2-9.6-28.8-9.6-9.6 0-19.2 6.4-28.8 12.8s-9.6 16-9.6 25.6 3.2 19.2 9.6 28.8c6.4 6.4 19.2 9.6 28.8 9.6 9.6 0 19.2-3.2 28.8-9.6s12.8-16 12.8-28.8c0-9.6-3.2-19.2-12.8-28.8z m112 316.8c-6.4-9.6-28.8-32-60.8-57.6-19.2-16-32-32-38.4-44.8-9.6-19.2-16-38.4-16-57.6v-22.4h-44.8v22.4c0 22.4 6.4 44.8 12.8 60.8 9.6 22.4 32 51.2 70.4 83.2l35.2 35.2c16 19.2 25.6 44.8 25.6 67.2 0 32-9.6 57.6-28.8 80-19.2 19.2-48 28.8-83.2 28.8-41.6 0-70.4-12.8-92.8-41.6-19.2-22.4-28.8-57.6-28.8-96H352c0 51.2 16 96 41.6 124.8 32 35.2 70.4 51.2 124.8 51.2 48 0 86.4-12.8 115.2-41.6 28.8-25.6 41.6-60.8 41.6-105.6 0-35.2-9.6-60.8-28.8-86.4z"  horiz-adv-x="1024" />

    
    <glyph glyph-name="weixuanze" unicode="&#58969;" d="M512 865.882353c265.035294 0 481.882353-216.847059 481.882353-481.882353s-216.847059-481.882353-481.882353-481.882353-481.882353 216.847059-481.882353 481.882353 216.847059 481.882353 481.882353 481.882353zM512-128c-283.105882 0-512 228.894118-512 512s228.894118 512 512 512 512-228.894118 512-512-228.894118-512-512-512z m0 963.764706c-246.964706 0-451.764706-204.8-451.764706-451.764706s204.8-451.764706 451.764706-451.764706c252.988235 0 451.764706 204.8 451.764706 451.764706s-198.776471 451.764706-451.764706 451.764706z"  horiz-adv-x="1024" />

    
    <glyph glyph-name="xinxi" unicode="&#58959;" d="M1009.558974 608.492308H227.117949v-563.2c0-38.071795 31.507692-68.266667 68.266666-68.266667h714.174359c38.071795 0 68.266667 31.507692 68.266667 68.266667V540.225641c1.312821 36.758974-30.194872 68.266667-68.266667 68.266667M928.164103 67.610256H129.969231c-32.820513 0-59.076923 26.25641-59.076923 59.076923V705.641026c0 32.820513 26.25641 59.076923 59.076923 59.076923h798.194872c32.820513 0 59.076923-26.25641 59.076923-59.076923v-578.953847c0-32.820513-26.25641-59.076923-59.076923-59.076923z m-791.63077 65.641026h785.066667V699.076923H136.533333v-565.825641zM529.066667 275.035897c-10.502564 0-21.005128 2.625641-28.882052 9.189744L95.835897 583.548718l15.753847 21.005128L515.938462 305.230769c6.564103-5.251282 19.692308-5.251282 26.25641 0l404.348718 300.635898 15.753846-21.005129-404.348718-300.635897c-7.876923-6.564103-18.379487-9.189744-28.882051-9.189744z"  horiz-adv-x="1142" />

    
    <glyph glyph-name="wenjian1" unicode="&#58960;" d="M630.153846 713.517949H408.287179c-36.758974 0-65.641026-30.194872-65.641025-65.641026v-669.538461c0-36.758974 28.882051-65.641026 65.641025-65.641026h525.128206c36.758974 0 65.641026 30.194872 65.641025 65.641026V343.302564c0 36.758974-21.005128 86.646154-45.948718 111.589744L741.74359 666.25641c-24.94359 26.25641-76.14359 47.261538-111.589744 47.261539M815.261538-3.282051h-525.128205c-53.825641 0-98.461538 44.635897-98.461538 98.461538V764.717949c0 53.825641 44.635897 98.461538 98.461538 98.461538H512c44.635897 0 103.712821-23.630769 135.220513-56.451282l211.364102-211.364102c31.507692-31.507692 56.451282-90.584615 56.451282-135.220513V95.179487c-1.312821-53.825641-44.635897-98.461538-99.774359-98.461538zM257.312821 798.851282v-735.179487h590.76923V461.45641c0 27.569231-17.066667 69.579487-36.758974 89.271795l-210.051282 211.364103c-19.692308 19.692308-61.702564 36.758974-89.271795 36.758974H257.312821zM880.902564 513.969231H564.512821V831.671795h26.25641v-291.446154h290.133333zM395.158974 406.317949h317.702564v-26.256411H395.158974zM395.158974 302.605128h317.702564v-26.25641H395.158974zM395.158974 200.205128h317.702564v-26.25641H395.158974z"  horiz-adv-x="1142" />

    
    <glyph glyph-name="xin" unicode="&#58961;" d="M774.564103 679.384615H485.74359c-144.410256 0-262.564103-118.153846-262.564103-262.564102v-78.769231c0-114.215385 74.830769-212.676923 177.230769-248.123077v-150.974359l136.533334 136.533333h236.307692c144.410256 0 262.564103 118.153846 262.564103 262.564103v78.769231c1.312821 144.410256-116.841026 262.564103-261.251282 262.564102M262.564103-34.789744V172.635897C154.912821 219.897436 85.333333 326.235897 85.333333 443.076923v78.769231C85.333333 684.635897 217.928205 817.230769 380.717949 817.230769h288.820513c162.789744 0 295.384615-132.594872 295.384615-295.384615v-78.769231C964.923077 280.287179 832.328205 147.692308 669.538462 147.692308H446.358974L262.564103-34.789744zM380.717949 751.589744c-126.030769 0-229.74359-103.712821-229.74359-229.74359v-78.769231c0-97.148718 63.015385-185.107692 154.91282-216.615385l22.317949-7.876923v-95.835897l90.584616 90.584615H669.538462c126.030769 0 229.74359 103.712821 229.743589 229.74359v78.769231C899.282051 649.189744 795.569231 751.589744 669.538462 751.589744H380.717949zM353.148718 483.774359m-38.071795 0a38.071795 38.071795 0 1 1 76.14359 0 38.071795 38.071795 0 1 1-76.14359 0ZM523.815385 483.774359m-38.071795 0a38.071795 38.071795 0 1 1 76.143589 0 38.071795 38.071795 0 1 1-76.143589 0ZM691.85641 483.774359m-38.071795 0a38.071795 38.071795 0 1 1 76.14359 0 38.071795 38.071795 0 1 1-76.14359 0Z"  horiz-adv-x="1142" />

    
    <glyph glyph-name="up" unicode="&#58941;" d="M880.102 185.173c18.020-17.82 47.144-17.82 65.097 0 17.954 17.753 17.954 46.611 0 64.429l-401.157 395.954c-18.020 17.82-47.077 17.82-65.097 0l-401.157-395.953c-17.954-17.82-18.020-46.611 0-64.429s47.21-17.82 65.097-0.067l368.641 350.142 368.576-350.076z"  horiz-adv-x="1024" />

    
    <glyph glyph-name="qiye" unicode="&#58917;" d="M887.168-63.456V779.808L753.856 896 310.112 730.176v-41.472L713.088 824.512v-948.832h268.256v60.864h-94.176zM165.728 196.32l211.296 42.272V345.824L165.728 290.24v-93.92z m0-322.08h211.296V-13.248l-211.296-15.328v-97.184z m0 161.568l211.296 20.416v107.04l-211.296-35.52v-91.936z m0 324.096l211.296 58.208V529.44l-211.296-71.488v-98.048z m445.664 276.928l-119.296 72.512L42.88 547.36 42.656-128h59.168V514.688L437.92 625.376v-749.92h173.504V636.832z m0 0"  horiz-adv-x="1024" />

    
    <glyph glyph-name="icon" unicode="&#58915;" d="M408.750675 458.750874c-1.125612 17.191166-16.679524 30.084541-33.256721 28.958929-68.866993-4.707105-98.644549-56.075947-104.784251-82.681323-3.888478-16.577196 6.344359-32.847407 22.921555-37.04287 2.455881-0.61397 5.01409-0.920955 7.469971-0.920955 13.81433 0 26.503048 9.41421 30.289198 23.330868 1.432597 5.423404 10.64215 32.438093 48.401319 34.996303 17.191166 1.22794 30.186869 16.167882 28.958929 33.359048zM677.77196 473.179175m-22.921555 0a22.921555 22.921555 0 1 1 45.84311 0 22.921555 22.921555 0 1 1-45.84311 0ZM697.21435 447.801739c-15.860897-6.651344-23.433197-24.865794-16.781853-40.726692 12.893375-30.903168 19.340062-63.750575 19.340062-97.518936 0-139.98521-113.891476-253.876686-253.876686-253.876687-14.018987 0-28.037973 1.125612-41.749975 3.376837-5.116419 0.818627-10.130509 1.841911-15.144599 2.967522-16.781853 3.78615-33.563705-6.651344-37.349855-23.433196-3.78615-16.781853 6.651344-33.461377 23.433197-37.349856 6.242031-1.432597 12.484061-2.660538 18.82842-3.683821 17.088838-2.762866 34.484661-4.195463 51.880484-4.195463 174.367543 0 316.296992 141.827121 316.296992 316.296992 0 42.05696-8.18627 82.88598-24.149496 121.463775-6.549016 15.758569-24.763466 23.330868-40.726691 16.679525zM863.190966 779.447986H562.652543c-17.191166 0-31.210153-13.916658-31.210153-31.210152s13.916658-31.210153 31.210153-31.210153h225.020086l-153.492555-153.492556c-54.234036 40.317378-120.031178 62.215649-188.386529 62.215649-174.367543 0-316.296992-141.827121-316.296993-316.296992 0-108.877386 54.950335-208.647547 146.841212-267.077046 5.218747-3.274508 10.949136-4.911762 16.679524-4.911761 10.335165 0 20.363346 5.116419 26.298391 14.4283 9.209553 14.530629 4.911762 33.768362-9.618867 43.080244-73.881083 46.968722-117.984611 127.091836-117.984611 214.480263 0 139.98521 113.891476 253.876686 253.876687 253.876687 63.238933 0 123.715-23.330868 170.479064-65.694814 12.791046-11.563106 32.438093-10.64215 44.0012 2.148896 1.125612 1.22794 1.637254 2.865194 2.558209 4.195463l169.148796 169.148796v-225.020086c0-17.191166 13.916658-31.210153 31.210153-31.210153s31.210153 13.916658 31.210152 31.210153V748.237834c0.204657 17.191166-13.712002 31.210153-31.005496 31.210152z"  horiz-adv-x="1024" />

    
    <glyph glyph-name="chenggong1" unicode="&#58927;" d="M517.116 826.621c-243.234 0-440.42-197.186-440.42-440.42 0-243.235 197.186-440.422 440.42-440.422S957.538 142.966 957.538 386.2c0 243.235-197.29 440.421-440.422 440.421z m0-828.962c-214.685 0-388.643 173.958-388.643 388.643 0 214.583 173.958 388.541 388.643 388.541S905.76 600.885 905.76 386.2c-0.103-214.583-174.061-388.54-388.644-388.54zM494.911 218.484zM707.754 537.134L471.171 300.45 340.907 430.713c-11.87 11.87-31.108 11.87-42.978 0-11.87-11.87-11.87-31.108 0-42.978l151.753-151.753c11.87-11.87 31.108-11.87 42.978 0l258.072 258.174c11.87 11.87 11.87 31.108 0 42.978-11.87 11.87-31.108 11.87-42.978 0z"  horiz-adv-x="1024" />

    
    <glyph glyph-name="dunpai" unicode="&#58972;" d="M918.016 685.568c-124.416 27.648-222.208 77.824-282.624 115.712-65.536 40.96-102.4 75.776-102.4 75.776-11.776 11.264-30.208 11.264-41.984 0-1.536-1.536-145.92-138.752-385.024-191.488-13.824-3.072-24.064-15.36-24.064-29.696v-394.752c0-3.584 0.512-6.656 1.536-10.24 1.024-3.072 25.6-71.68 89.6-151.552 37.376-46.592 80.896-87.552 129.024-121.344 60.416-42.496 128-74.24 201.216-94.208 2.56-0.512 5.12-1.024 8.192-1.024 2.56 0 5.632 0.512 8.192 1.024 73.216 19.968 141.312 51.712 201.216 94.208 48.128 33.792 91.648 74.752 129.024 121.344 64 79.872 88.576 148.48 89.6 151.552 1.024 3.072 1.536 6.656 1.536 10.24v394.752c1.024 14.336-9.216 26.624-23.04 29.696z m-36.864-418.816c-6.144-15.872-30.208-70.144-79.872-131.072-75.776-93.184-173.056-157.696-289.28-190.976-116.224 33.28-214.016 97.792-289.28 190.976-49.152 60.928-73.216 115.2-79.872 131.072v365.056c122.368 30.208 218.624 80.896 279.552 118.784 40.96 25.6 71.168 49.152 89.6 64.512 18.432-15.36 48.64-38.4 89.6-64.512 60.928-37.888 157.184-88.064 279.552-118.784v-365.056z m-531.968 111.104c-13.824 9.728-32.768 6.144-42.496-7.68-9.728-13.824-6.144-32.768 7.68-42.496l124.928-86.016c5.12-3.584 11.264-5.12 17.408-5.12 7.68 0 15.872 3.072 21.504 8.704l234.496 234.496c11.776 11.776 11.776 31.232 0 43.008-11.776 11.776-31.232 11.776-43.008 0l-216.576-216.576-103.936 71.68z"  horiz-adv-x="1024" />

    
    <glyph glyph-name="yanzhengma" unicode="&#59104;" d="M859.022222 715.507071L538.246465 819.458586c-17.583838 5.688889-36.589899 5.559596-54.044445 0L163.167677 715.507071C135.886869 706.715152 117.656566 681.632323 117.656566 652.929293v-227.814141c0-131.878788 63.224242-257.034343 169.50303-335.127273l185.018182-136.016162c11.377778-8.274747 24.824242-12.8 39.046464-12.8 14.092929 0 27.668687 4.525253 39.046465 12.8l185.018182 136.016162c106.149495 78.092929 169.50303 203.248485 169.50303 334.99798V652.929293c-0.129293 28.70303-18.488889 53.785859-45.769697 62.577778m12.282829-290.391919c0-117.785859-65.680808-238.933333-160.581819-308.751516L524.282828-21.074747c-7.628283-5.430303-18.488889-5.559596-26.246464 0.129292L312.888889 115.070707C218.117172 184.888889 151.014141 307.2 151.014141 425.115152V652.929293c0 9.567677 16.549495 28.444444 25.6 31.288889l321.034344 103.822222c4.39596 1.551515 9.050505 2.19798 13.575757 2.19798s9.179798-0.775758 13.575758-2.19798L845.575758 684.218182c9.179798-2.973737 25.729293-21.721212 25.729293-31.288889v-227.814141M707.878788 573.026263H314.440404c-12.153535 0-21.850505-7.240404-21.850505-19.264647s9.69697-19.264646 21.850505-19.264646h177.519192v-328.791919c0-12.153535 7.111111-21.850505 19.264646-21.850506 12.024242 0 19.264646 9.69697 19.264647 21.850506V534.49697h177.519192c12.153535 0 21.850505 7.240404 21.850505 19.264646-0.129293 12.024242-9.826263 19.264646-21.979798 19.264647m0 0z"  horiz-adv-x="1024" />

    
    <glyph glyph-name="jiantou" unicode="&#58886;" d="M549.39-128v624.578h261.46l-325.918 353.248-325.963-353.248h261.417v-624.578h129.005z"  horiz-adv-x="1025" />

    
    <glyph glyph-name="weixinzhifu1" unicode="&#59736;" d="M790.55700878-122.75942172999999H233.44066219c-125.51100643 0-228.2018304 102.69082397-228.2018304 228.2018304V662.55875527c0 125.51100643 102.69082397 228.2018304 228.2018304 228.2018304h557.11634659c125.51100643 0 228.2018304-102.69082397 228.2018304-228.2018304v-557.1163466c0-125.51100643-102.69082397-228.2018304-228.2018304-228.2018304zM397.05671794 257.91616l-83.82458767 244.49031851 117.00583197-89.06391438 373.96807794 171.93959992C739.82634553 663.82201515 632.96385251 715.21050624 511.99941746 715.21050624c-196.71929173 0-356.19278507-135.87789027-356.19278507-303.4909696 0-102.6698661 59.84476615-193.42084437 151.4235574-248.34064157l-29.33441422-103.3672795 123.83558656 63.06404125c34.72277163-9.62406286 71.77646194-14.84709091 110.26689138-14.84708978 196.72045682 0 356.19278507 135.87789027 356.19278507 303.4909696 0 50.1135872-14.26610745 97.38513067-39.51035279 139.04244395L397.05671794 257.91616z"  horiz-adv-x="1024" />

    
    <glyph glyph-name="querenmima" unicode="&#59060;" d="M746.514 512.016h-453.17v85.178c0 107.223 96.067 196.692 211.966 197.358 113.271-0.613 204.032-88.284 204.032-197.358v-42.645c0-11.752 6.23-21.325 18.040-21.325 11.806 0 19.133 9.519 19.133 21.325v42.645c0 132.851-102.916 233.201-239.804 234.484h-2.738c-139.131-1.283-247.807-103.813-247.807-234.484v-87.417c-72.135-10.522-127.935-72.134-127.935-147.072v-277.126c0-82.38 66.932-149.258 149.254-149.258h469.028c82.376 0 149.254 66.878 149.254 149.258v277.129c-0.003 82.323-66.99 149.308-149.253 149.308zM858.589 85.635c0-58.819-53.256-112.072-112.076-112.072l-469.027 5.464c-58.82 0-112.023 47.789-112.023 106.608v277.134c0 58.808 53.256 112.016 112.023 112.016h469.027c58.876 0 112.076-53.262 112.076-112.016v-277.134zM320.782 211.495c-1.488 1.567-1.693 4.184-0.385 5.978l16.343 22.245c1.283 1.744 3.721 2.103 5.427 0.794l91.053-69.782c5.118-3.926 13.277-3.772 18.254 0.384l230.657 192.15c1.641 1.372 4.222 1.243 5.759-0.269l15.418-15.24c0.717-0.699 1.161-1.674 1.161-2.753 0-1.072-0.439-2.041-1.146-2.738l-255.275-251.222c-1.395-1.382-3.315-2.235-5.434-2.235-2.182 0-4.154 0.905-5.558 2.361l-116.273 120.328z"  horiz-adv-x="1024" />

    
    <glyph glyph-name="icon-alipay" unicode="&#58918;" d="M283.794286 104.594286c-149.211429 0-174.08 93.622857-165.302857 133.12 7.314286 39.497143 51.2 90.697143 134.582857 90.697143 95.085714 0 181.394286-24.868571 285.257143-74.605715-74.605714-93.622857-163.84-149.211429-254.537143-149.211428zM1024 193.828571V698.514286C1024 808.228571 936.228571 896 826.514286 896h-629.028572C87.771429 896 0 808.228571 0 698.514286v-630.491429C0-40.228571 87.771429-128 197.485714-128h630.491429c96.548571 0 178.468571 70.217143 194.56 162.377143-52.662857 21.942857-279.405714 119.954286-396.434286 177.005714-89.234286-109.714286-184.32-175.542857-326.217143-175.542857s-238.445714 87.771429-226.742857 194.56c7.314286 70.217143 55.588571 185.782857 264.777143 163.84 109.714286-10.24 159.451429-30.72 250.148571-59.977143 23.405714 42.422857 42.422857 89.234286 57.051429 138.971429H247.222857V514.194286h198.948572V584.411429H204.8v43.885714h241.371429v102.4s2.925714 16.091429 20.48 16.091428h98.011428v-118.491428H819.2v-43.885714H563.2v-70.217143h209.188571c-19.017143-77.531429-48.274286-149.211429-84.845714-213.577143 59.977143-21.942857 336.457143-106.788571 336.457143-106.788572z"  horiz-adv-x="1024" />

    
    <glyph glyph-name="danxuanxuan" unicode="&#58905;" d="M927.816213 384.790439c-0.001024-230.592286-185.405155-415.329867-416.795047-415.296078-229.345193 0.033788-415.775257 186.697298-415.077992 416.24522 0.720815 237.256755 195.627626 418.297087 422.186827 415.758875 225.22815-2.523877 409.687235-188.012991 409.686212-416.708017z m-798.711441 0.391125c1.514326-212.52071 171.079975-382.814341 383.440959-382.618779 218.732622 0.200682 387.254931 181.085382 382.248132 392.103028-4.76721 200.936471-169.635273 375.712672-387.479162 373.298351-207.101285-2.294527-376.630073-169.230838-378.209929-382.7826zM512.276449 688.421585c168.449614 0.003072 303.145824-135.733406 303.109988-305.45059-0.034812-165.440415-137.675716-301.780985-304.026365-300.892252-175.093606 0.935831-306.671061 145.706049-302.34617 311.052266 4.157998 159.007343 133.684611 295.12573 303.262547 295.290576z"  horiz-adv-x="1024" />

    
    <glyph glyph-name="zhifubao" unicode="&#59704;" d="M743.619048 258.031746s28.444444 52.825397 60.952381 150.349206c32.507937 101.587302 36.571429 154.412698 36.571428 154.412699l-256 4.063492V664.380952l308.825397 4.063492V737.52381h-308.825397V896h-150.349206v-158.47619H146.285714v-69.079366l288.507937 4.063493v-105.650794H203.174603v-56.888889h479.492064s-4.063492-44.698413-24.380953-101.587302-36.571429-105.650794-36.571428-105.650793-223.492063 89.396825-341.333334 89.396825C162.539683 392.126984 16.253968 339.301587 4.063492 184.888889c-12.190476-154.412698 65.015873-239.746032 182.857143-268.190476s219.428571 0 308.825397 52.825397c93.460317 48.761905 182.857143 166.603175 182.857143 166.603174l475.428571-260.063492s28.444444 48.761905 52.825397 97.52381 40.634921 101.587302 40.63492 101.587301l-503.873015 182.857143zM251.936508-2.031746c-166.603175 0-203.174603 93.460317-203.174603 158.47619s36.571429 138.15873 178.793651 150.349207c142.222222 12.190476 337.269841-113.777778 337.269841-113.777778s-142.222222-195.047619-312.888889-195.047619z"  horiz-adv-x="1247" />

    
    <glyph glyph-name="fanhui2" unicode="&#58899;" d="M0 384l512-512 51.2 102.4L153.6 384l409.6 409.6L512 896 0 384z m204.8 51.2H1024v-102.4H204.8L153.6 384l51.2 51.2z m0 0"  horiz-adv-x="1024" />

    
    <glyph glyph-name="Check" unicode="&#58902;" d="M512 733.8c47.4 0 93.4-9.3 136.6-27.6 41.8-17.7 79.3-43 111.6-75.3s57.6-69.8 75.3-111.6c18.3-43.2 27.6-89.2 27.6-136.6 0-47.4-9.3-93.4-27.6-136.6-17.7-41.8-43-79.3-75.3-111.6s-69.8-57.6-111.6-75.3c-43.2-18.3-89.2-27.6-136.6-27.6-47.4 0-93.4 9.3-136.6 27.6-41.8 17.7-79.3 43-111.6 75.3s-57.6 69.8-75.3 111.6c-18.3 43.2-27.6 89.2-27.6 136.6 0 47.4 9.3 93.4 27.6 136.6 17.7 41.8 43 79.3 75.3 111.6s69.8 57.6 111.6 75.3c43.2 18.4 89.2 27.6 136.6 27.6M512 797.8c-229.2 0-415-185.8-415-415s185.8-415 415-415 415 185.8 415 415c0.1 229.2-185.8 415-415 415z"  horiz-adv-x="1024" />

    
    <glyph glyph-name="danxuan2" unicode="&#58970;" d="M512 876.7019565932509c-271.6611001626337 0-492.7019565932509-221.04085643061725-492.7019565932509-492.7019565932509 0-271.69700202403294 221.00495456921806-492.7019565932509 492.7019565932509-492.7019565932509S1004.7019565932511 112.30299797596717 1004.7019565932511 384c0 271.6611001626337-221.00495456921806 492.7019565932509-492.7019565932509 492.7019565932509z m0-914.7048630465844c-232.70619970370367 0-422.00290645333325 189.33260861102872-422.00290645333325 422.00290645333325 0 232.70619970370367 189.29670674962964 422.00290645333325 422.00290645333325 422.00290645333325 232.6702978423045 0 422.00290645333325-189.29670674962964 422.00290645333325-422.00290645333325 0-232.6702978423045-189.33260861102872-422.00290645333325-422.00290645333325-422.00290645333325zM512 560.7476253497942c-97.4583644497119 0-176.74762534979425-79.2892609000823-176.74762534979425-176.74762534979425s79.2892609000823-176.74762534979425 176.74762534979425-176.74762534979425 176.74762534979425 79.2892609000823 176.74762534979425 176.74762534979425-79.2892609000823 176.74762534979425-176.74762534979425 176.74762534979425z"  horiz-adv-x="1024" />

    
    <glyph glyph-name="queding" unicode="&#58971;" d="M512 896c-281.6 0-512-230.4-512-512s230.4-512 512-512 512 230.4 512 512-230.4 512-512 512z m332.8-313.6l-384-390.4c-6.4-6.4-19.2-12.8-25.6-12.8-6.4 0-19.2 6.4-25.6 12.8l-204.8 211.2c-19.2 19.2-19.2 38.4 0 51.2 12.8 19.2 32 19.2 51.2 0l185.6-185.6 358.4 364.8c12.8 12.8 38.4 12.8 51.2 0 12.8-12.8 12.8-32-6.4-51.2z"  horiz-adv-x="1024" />

    
    <glyph glyph-name="duoxuan-weixuan" unicode="&#58956;" d="M920.06469919 912.72395114H105.61164157c-66.53029169 0-120.65925196-54.12896027-120.65925196-120.65925195v-814.45305762c0-66.53029169 54.12896027-120.65925196 120.65925196-120.65925196h814.45305762c66.53029169 0 120.65925196 54.12896027 120.65925195 120.65925196V792.06469919c0 66.53029169-54.12896027 120.65925196-120.65925195 120.65925195z m40.2183698-935.11230957c0-22.12106998-18.09868066-40.21975065-40.21975064-40.21975065H105.61026073c-22.12106998 0-40.21975065 18.09868066-40.21975065 40.21975065V792.06469919c0 22.12106998 18.09868066 40.21975065 40.21975065 40.21975066h814.45305762c22.12106998 0 40.21975065-18.09868066 40.21975064-40.21975066v-814.45305762z"  horiz-adv-x="1024" />

    
    <glyph glyph-name="baodanyangben" unicode="&#59316;" d="M312.211233 368.013911h399.581627c13.240559 0 23.975041 10.734482 23.975041 23.97504 0 13.240559-10.734482 23.975041-23.975041 23.975041H312.211233c-13.240559 0-23.975041-10.734482-23.975041-23.975041 0-13.240559 10.734482-23.975041 23.975041-23.97504z m0 175.816284h399.581627c13.240559 0 23.975041 10.734482 23.975041 23.975041 0 13.240559-10.734482 23.975041-23.975041 23.975041H312.211233c-13.240559 0-23.975041-10.734482-23.975041-23.975041 0-13.241582 10.734482-23.975041 23.975041-23.975041z m175.815261-303.682487H312.211233c-13.240559 0-23.975041-10.734482-23.975041-23.975041s10.734482-23.975041 23.975041-23.975041h175.816284c13.240559 0 23.975041 10.734482 23.975041 23.975041s-10.735505 23.975041-23.976064 23.975041z m175.816285 47.950082c-48.550763 0-87.908142-39.35738-87.908143-87.908143 0-48.550763 39.35738-87.908142 87.908143-87.908142 48.550763 0 87.908142 39.35738 87.908142 87.908142 0 48.550763-39.35738 87.908142-87.908142 87.908143z m0-127.866203c-22.067598 0-39.95806 17.890462-39.958061 39.95806s17.890462 39.95806 39.958061 39.958061 39.95806-17.890462 39.95806-39.958061-17.889439-39.95806-39.95806-39.95806z m119.873158 607.367021H240.28304c-44.13622 0-79.916121-35.778878-79.916121-79.916121v-607.364974c0-44.13622 35.779901-79.916121 79.916121-79.916121h543.432897c44.13622 0 79.916121 35.779901 79.91612 79.916121V687.682487c0 44.138266-35.779901 79.916121-79.91612 79.916121z m31.966039-687.282119c0-17.653055-14.312984-31.967062-31.967063-31.967062H240.28304c-17.653055 0-31.966039 14.312984-31.966039 31.967062V687.680441c0 17.653055 14.312984 31.967062 31.966039 31.967062h543.432897c17.653055 0 31.967062-14.312984 31.967062-31.967062v-607.363952z"  horiz-adv-x="1024" />

    
    <glyph glyph-name="weixin-" unicode="&#58891;" d="M512 831.5C264.8 831.5 64.5 631.1 64.5 384S264.8-63.5 512-63.5c247.1 0 447.5 200.4 447.5 447.5S759.1 831.5 512 831.5zM630.9 389.1c-19.2 3.7-9.9 13.9-9.9 13.9s18.8 30.6-3.8 52.9c-27.9 27.5-95.8-3.5-95.8-3.5-25.9-7.9-19 3.6-15.4 23.3 0 23.2-8 62.3-77.1 39.3-68.8-23.4-128-105-128-105-41.2-54.2-35.7-96.1-35.7-96.1C275.5 221.4 375.1 196 452.6 190c81.5-6.3 191.5 27.7 224.9 97.6 33.3 70-27.3 97.7-46.6 101.5M458.6 216c-80.9-3.7-146.4 36.3-146.4 89.6 0 53.4 65.5 96.1 146.4 99.8 81 3.7 146.5-29.3 146.5-82.5S539.6 219.7 458.6 216m-16.1 154.3c-81.4-9.4-72-84.6-72-84.6s-0.8-23.8 21.8-36c47.6-25.5 96.7-10.1 121.4 21.5 24.8 31.6 10.3 108.5-71.2 99.1m-20.6-105.6c-15.2-1.7-27.5 6.9-27.5 19.5 0 12.5 10.9 25.6 26 27.1 17.5 1.7 28.8-8.2 28.8-20.9 0.2-12.4-12.2-24-27.3-25.7m48 40.3c-5.2-3.8-11.5-3.3-14.2 1.3-2.8 4.5-1.8 11.5 3.4 15.3 6 4.5 12.3 3.1 15-1.3 2.8-4.5 0.8-11.3-4.2-15.3m200.7 116.7c6.6 0 12.1 4.8 13.1 11 0.1 0.5 0.2 0.9 0.2 1.4 9.9 88.2-73.2 73-73.2 73-7.3 0-13.3-5.9-13.3-13.3 0-7.3 5.9-13.1 13.3-13.1 59.7 13 46.6-45.9 46.6-45.9-0.2-7.2 5.8-13.1 13.3-13.1m-9.7 153.9c-28.7 6.7-58.4 0.9-66.6-0.7-0.7-0.1-1.3-0.7-1.8-0.7-0.3-0.1-0.5-0.3-0.5-0.3-8.2-2.3-14.1-9.7-14.1-18.6 0-10.5 8.6-19.1 19.4-19.1 0 0 10.4 1.4 17.5 4.1 7 2.8 66.6 2.1 96.2-46.9 16.1-35.8 7.1-59.7 5.9-63.6 0 0-3.8-9.3-3.8-18.5 0-10.6 8.6-17.2 19.4-17.2 8.9 0 16.4 1.2 18.6 16.2h0.1c31.8 104.4-38.9 153.5-90.3 165.3m0 0z"  horiz-adv-x="1024" />

    
    <glyph glyph-name="fanhui1" unicode="&#59031;" d="M360.439245 384.028798L803.038349 806.328244c21.50279 20.530045 21.50279 53.782575 0 74.287021-21.477192 20.504447-56.316832 20.504447-77.794024 0L282.645221 458.290221 204.8 384.028798l77.819623-74.261422 442.624702-422.299446c21.50279-20.555644 56.316832-20.555644 77.819623 0 21.477192 20.478848 21.477192 53.756976 0 74.235824L360.439245 384.028798z"  horiz-adv-x="1024" />

    
    <glyph glyph-name="fanhui" unicode="&#58880;" d="M745.8598323333337-8.817574000000036L352.8396443333333 384.202615 745.8598323333337 777.222803c12.258185 12.258185 12.432147 32.892131-0.187265 45.51052-12.707416 12.707416-32.995485 12.703323-45.511543 0.187265L288.50029033333334 411.260877c-7.120165-7.120165-10.163477-17.065677-8.990768-26.624381-1.500167-9.755178 1.5104-20.010753 8.990768-27.491121l411.660734-411.660734c12.258185-12.258185 32.892131-12.432147 45.511543 0.187265 12.707416 12.707416 12.7023 32.995485 0.187265 45.51052z"  horiz-adv-x="1024" />

    
    <glyph glyph-name="gengduo" unicode="&#58881;" d="M279.34255266666685-8.817574000000036L672.3627406666662 384.202615 279.34255266666685 777.222803c-12.258185 12.258185-12.432147 32.892131 0.187265 45.51052 12.707416 12.707416 32.995485 12.703323 45.511543 0.187265l411.660734-411.660734c7.120165-7.120165 10.163477-17.065677 8.990768-26.624381 1.500167-9.755178-1.5104-20.010753-8.990768-27.491121L325.0413606666668-54.51535899999999c-12.258185-12.258185-32.892131-12.432147-45.511543 0.187265-12.707416 12.707416-12.703323 32.995485-0.187265 45.51052z"  horiz-adv-x="1024" />

    
    </font>
</defs>
</svg>
