<?xml version="1.0" standalone="no"?>
<!DOCTYPE svg PUBLIC "-//W3C//DTD SVG 1.1//EN" "http://www.w3.org/Graphics/SVG/1.1/DTD/svg11.dtd" >
<!--
2013-9-30: Created.
-->
<svg>
<metadata>
Created by iconfont
</metadata>
<defs>

<font id="iconfont" horiz-adv-x="1024" >
  <font-face
    font-family="iconfont"
    font-weight="500"
    font-stretch="normal"
    units-per-em="1024"
    ascent="896"
    descent="-128"
  />
    <missing-glyph />
    
    <glyph glyph-name="x" unicode="x" horiz-adv-x="1001"
d="M281 543q-27 -1 -53 -1h-83q-18 0 -36.5 -6t-32.5 -18.5t-23 -32t-9 -45.5v-76h912v41q0 16 -0.5 30t-0.5 18q0 13 -5 29t-17 29.5t-31.5 22.5t-49.5 9h-133v-97h-438v97zM955 310v-52q0 -23 0.5 -52t0.5 -58t-10.5 -47.5t-26 -30t-33 -16t-31.5 -4.5q-14 -1 -29.5 -0.5
t-29.5 0.5h-32l-45 128h-439l-44 -128h-29h-34q-20 0 -45 1q-25 0 -41 9.5t-25.5 23t-13.5 29.5t-4 30v167h911zM163 247q-12 0 -21 -8.5t-9 -21.5t9 -21.5t21 -8.5q13 0 22 8.5t9 21.5t-9 21.5t-22 8.5zM316 123q-8 -26 -14 -48q-5 -19 -10.5 -37t-7.5 -25t-3 -15t1 -14.5
t9.5 -10.5t21.5 -4h37h67h81h80h64h36q23 0 34 12t2 38q-5 13 -9.5 30.5t-9.5 34.5q-5 19 -11 39h-368zM336 498v228q0 11 2.5 23t10 21.5t20.5 15.5t34 6h188q31 0 51.5 -14.5t20.5 -52.5v-227h-327z" />
    

    
    <glyph glyph-name="jianhao" unicode="&#58923;" d="M128 332l768 0 0-64-768 0 0 64Z"  horiz-adv-x="1024" />

    
    <glyph glyph-name="delete" unicode="&#59037;" d="M972.657609 686.651592C987.158609 686.63161 998.930114 698.428798 998.949999 713.00135 998.969882 727.573903 987.230618 739.40349 972.729617 739.423472L32.457975 740.719194C17.956974 740.739177 6.18547 728.941988 6.165585 714.369436 6.1457 699.796884 17.884965 687.967297 32.385966 687.947314L972.657609 686.651592ZM180.466902-96.356169 180.466902-123.014859 206.993296-122.74074 833.361858-116.267947 859.348284-115.999407 859.348284-89.883377 859.348284 606.602703C859.348284 621.175268 847.59289 632.988668 833.091874 632.988668 818.590859 632.988668 806.835465 621.175268 806.835465 606.602703L806.835465-89.883377 832.82189-63.498805 206.453329-69.971599 232.979723-96.356169 232.979723 613.32995C232.979723 627.902517 221.224329 639.715915 206.723313 639.715915 192.222298 639.715915 180.466902 627.902517 180.466902 613.32995L180.466902-96.356169ZM656.410257 48.920973C656.410257 34.348407 668.165651 22.535008 682.666667 22.535008 697.167682 22.535008 708.923076 34.348407 708.923076 48.920973L708.923076 523.868341C708.923076 538.440909 697.167682 550.254306 682.666667 550.254306 668.165651 550.254306 656.410257 538.440909 656.410257 523.868341L656.410257 48.920973ZM341.333333 48.920973C341.333333 34.348407 353.08873 22.535008 367.589743 22.535008 382.090758 22.535008 393.846155 34.348407 393.846155 48.920973L393.846155 523.868341C393.846155 538.440909 382.090758 550.254306 367.589743 550.254306 353.08873 550.254306 341.333333 538.440909 341.333333 523.868341L341.333333 48.920973ZM498.871795 48.920973C498.871795 34.348407 510.627189 22.535008 525.128205 22.535008 539.62922 22.535008 551.384614 34.348407 551.384614 48.920973L551.384614 523.868341C551.384614 538.440909 539.62922 550.254306 525.128205 550.254306 510.627189 550.254306 498.871795 538.440909 498.871795 523.868341L498.871795 48.920973ZM392.147755 779.278223C392.147755 793.936331 403.758665 805.636493 418.40134 805.636493L622.925796 805.636493C637.408947 805.636493 649.179381 793.8381 649.179381 779.450415L649.179381 724.355125 701.692203 724.355125 701.692203 779.450415C701.692203 823.013393 666.38105 858.408423 622.925796 858.408423L418.40134 858.408423C374.724427 858.408423 339.634933 823.049196 339.634933 779.278223L339.634933 730.689199 392.147755 730.689199 392.147755 779.278223Z"  horiz-adv-x="1024" />

    
    <glyph glyph-name="edit" unicode="&#59038;" d="M34.155089 665.059773 9.17948 665.059773 9.17948 639.796614 9.17948 41.841988C9.17948-27.769568 65.248004-84.289737 134.081773-84.289737L927.938515-84.289737 952.914125-84.289737 952.914125-59.026579 952.914125 424.899439C952.914125 438.851895 941.732164 450.162598 927.938515 450.162598 914.144868 450.162598 902.962906 438.851895 902.962906 424.899439L902.962906-59.026579 927.938515-33.76342 134.081773-33.76342C92.797081-33.76342 59.130699 0.174153 59.130699 41.841988L59.130699 639.796614 34.155089 614.533457 598.93821 614.533457C612.731859 614.533457 623.91382 625.844158 623.91382 639.796614 623.91382 653.749072 612.731859 665.059773 598.93821 665.059773L34.155089 665.059773ZM437.016339 302.496211 431.876019 295.895108 431.668623 287.494786 427.984924 138.290259 427.077935 101.553579 461.312335 113.853545 605.005395 165.480553 611.980762 167.986709 616.479561 173.932757 1003.181673 685.035772 1018.529978 705.321579 998.306108 720.620695 869.49174 818.067219 849.985487 832.823464 834.913446 813.46823 437.016339 302.496211ZM839.575373 777.604982 968.389739 680.158458 963.514174 715.743381 576.81206 204.640367 588.286225 213.092572 444.593165 161.465564 477.920574 137.028849 481.604275 286.233378 476.256559 271.231953 874.153664 782.20397 839.575373 777.604982ZM891.217762 585.494287 920.474916 626.446748 808.309143 708.435734 779.051989 667.483275 891.217762 585.494287Z"  horiz-adv-x="1024" />

    
    <glyph glyph-name="xinxi" unicode="&#58932;" d="M511.999488-35.420329c-28.600385 0-56.482409 2.585895-83.59286 7.079232L232.478284-147.233927 232.478284 50.691911C130.325719 122.413396 64.765561 232.390159 64.765561 355.909357c0 216.124316 200.234417 391.326617 447.233927 391.326617 247.001557 0 447.233927-175.202301 447.233927-391.326617C959.233416 139.780949 759.001045-35.420329 511.999488-35.420329z"  horiz-adv-x="1024" />

    
    <glyph glyph-name="sousuo" unicode="&#58914;" d="M990.875302-173.525842 793.964812 24.206997c-0.234957 0.302087-0.302087 0.620957-0.537044 0.855914-0.335652 0.386-0.822348 0.553826-1.191566 0.923044l-2.36635 2.332784c-0.100696-0.100696-0.268522-0.268522-0.369218-0.352435-6.729831 4.195655-15.591055 3.893568-21.716711-1.711827-77.267186-70.638051-177.409085-109.540166-282.166204-109.540166-56.490302 0-111.251993 11.07653-162.824987 32.877154-49.794036 21.045406-94.553286 51.237341-132.951922 89.65276-38.398636 38.381854-68.557006 83.157886-89.65276 132.951922-21.817407 51.589776-32.860372 106.334685-32.826806 162.808204-0.033565 56.473519 11.026182 111.268776 32.826806 162.824987 21.078972 49.794036 51.254124 94.536503 89.65276 132.951922 38.415419 38.415419 83.157886 68.590571 132.951922 89.65276C374.365727 742.20108 429.144201 753.260827 485.600937 753.260827c56.507084 0 111.251993-11.059747 162.824987-32.860372 49.827601-21.062189 94.553286-51.237341 132.918357-89.65276 38.432202-38.415419 68.624136-83.157886 89.65276-132.951922 21.850972-51.556211 32.893937-106.334685 32.893937-162.824987 0-74.565184-19.870623-147.703846-57.430128-211.612066-5.068351-8.693398-2.198523-19.803493 6.461309-24.871844 8.676615-5.085134 19.803493-2.232089 24.855061 6.427744 40.865682 69.463268 62.464915 149.080021 62.448132 230.072949 0.016783 61.374044-12.066704 120.918783-35.7302 176.989519-22.891495 54.123952-55.667953 102.726422-97.423114 144.498365-41.738378 41.738378-90.374413 74.514836-144.498365 97.439896-56.070736 23.697061-115.632257 35.713417-176.972736 35.696634-61.374044 0.016783-120.885218-12.016356-176.955954-35.696634-54.157517-22.92506-102.793552-55.701518-144.481583-97.439896-41.755161-41.755161-74.531619-90.35763-97.439896-144.498365-23.730626-56.087519-35.746982-115.598692-35.746982-176.972736 0-61.340479 12.049922-120.902 35.746982-176.939171 22.891495-54.157517 55.667953-102.793552 97.439896-144.548713 41.68803-41.68803 90.340848-74.498054 144.481583-97.389549 56.070736-23.730626 115.58191-35.763765 176.955954-35.7302 104.958511-0.033565 205.687801 36.015504 286.56325 101.769813l186.79057-187.529005c8.844441-8.844441 23.126451-8.844441 31.920545-0.033565C999.719743-196.635511 999.702961-182.370283 990.875302-173.525842zM984.363645 359.909761"  horiz-adv-x="1024" />

    
    <glyph glyph-name="shouye5" unicode="&#58897;" d="M882.648668 438.230112c-17.254989 0-31.235398-13.985526-31.235398-31.235398 0-109.47125-52.130288-207.711715-146.761552-276.624225L530.204617 3.462101c-10.320043-7.544837-25.581632-7.798617-36.665061 0.193405L319.182506 130.366396c-94.641497 68.916603-146.771785 167.158091-146.771785 276.628318 0 17.249873-13.980409 31.235398-31.235398 31.235398s-31.235398-13.985526-31.235398-31.235398c0-129.969097 61.251016-246.146073 172.495656-327.146898L456.905194-46.949033c16.258289-11.722996 35.282574-17.916045 55.007825-17.916045 20.081361 0 39.166021 6.192026 55.109132 17.86488l174.386726 126.863363c111.225197 80.986499 172.47519 197.162452 172.47519 327.131549C913.884067 424.244586 899.903657 438.230112 882.648668 438.230112zM850.193489 717.771783 547.733852 824.868963c-0.345877 0.121773-0.701988 0.243547-1.057075 0.356111-22.450315 7.04137-47.168276 7.04137-69.659523 0-0.356111-0.116657-0.712221-0.234337-1.067308-0.361227l-301.392328-106.782002c-38.647205-12.339026-64.615647-47.783283-64.615647-88.199785l0-119.556956c0-17.249873 13.980409-31.235398 31.235398-31.235398s31.235398 13.985526 31.235398 31.235398L172.412768 629.88206c0 13.121855 8.500605 24.651446 22.073738 29.003568l301.727972 106.883309c10.116405 3.070942 21.169135 3.070942 31.266098 0l302.795281-107.198487c12.638855-4.036943 21.138436-15.566534 21.138436-28.688389l0-119.556956c0-17.249873 13.980409-31.235398 31.235398-31.235398s31.235398 13.985526 31.235398 31.235398L913.88509 629.88206C913.884067 670.298562 887.915625 705.743842 850.193489 717.771783zM400.427902 667.289018c-17.254989 0-31.235398-13.985526-31.235398-31.235398l0-30.473035c0-17.249873 13.980409-31.235398 31.235398-31.235398 17.254989 0 31.235398 13.985526 31.235398 31.235398l0 30.473035C431.6633 653.303492 417.682891 667.289018 400.427902 667.289018zM623.397113 667.289018c-17.254989 0-31.235398-13.985526-31.235398-31.235398l0-30.473035c0-17.249873 13.980409-31.235398 31.235398-31.235398s31.235398 13.985526 31.235398 31.235398l0 30.473035C654.632511 653.303492 640.651079 667.289018 623.397113 667.289018zM545.781384 517.080971c-0.132006-0.198521-13.615089-19.766183-34.183544-19.766183-19.990287 0-32.434713 18.11866-33.268708 19.374256-9.191336 14.422478-28.296463 18.815531-42.836621 9.761318-14.651698-9.105379-19.156292-28.368094-10.045797-43.019793 11.215436-18.042935 41.97295-48.586578 86.151126-48.586578 43.965328 0 75.108628 30.315446 86.588077 48.225351 9.222035 14.392802 5.042853 33.355689-9.242502 42.75578C574.668295 535.250796 555.369763 531.239436 545.781384 517.080971zM397.382543 220.238262l83.294055 0 0-83.294055c0-17.249873 13.980409-31.235398 31.235398-31.235398 17.254989 0 31.235398 13.985526 31.235398 31.235398l0 83.294055 83.294055 0c17.254989 0 31.235398 13.985526 31.235398 31.235398 0 17.249873-13.980409 31.235398-31.235398 31.235398l-83.294055 0 0 83.294055c0 17.249873-13.980409 31.235398-31.235398 31.235398-17.254989 0-31.235398-13.985526-31.235398-31.235398l0-83.294055-83.294055 0c-17.254989 0-31.235398-13.985526-31.235398-31.235398C366.147144 234.224812 380.128577 220.238262 397.382543 220.238262z"  horiz-adv-x="1024" />

    
    <glyph glyph-name="shouye3" unicode="&#58898;" d="M949.408141 460.831876l-77.728292 67.567885 0 87.451748c0 17.253966-13.96199 31.233352-31.210839 31.233352s-31.210839-13.980409-31.210839-31.233352l0-33.189913L532.967544 822.836677c-0.01535 0.013303-0.031722 0.025583-0.048095 0.038886-2.004657 1.741667-4.186346 3.190669-6.487761 4.339842-0.002047 0.001023-0.005117 0.00307-0.007163 0.004093-0.421602 0.210801-0.848321 0.409322-1.278109 0.599657-0.046049 0.020466-0.092098 0.042979-0.13917 0.063445-0.381693 0.166799-0.76748 0.322341-1.154289 0.473791-0.094144 0.036839-0.187265 0.077771-0.282433 0.113587-0.341784 0.12996-0.686638 0.24764-1.032516 0.36532-0.140193 0.048095-0.278339 0.099261-0.418532 0.145309-0.309038 0.100284-0.621147 0.189312-0.933255 0.279363-0.176009 0.051165-0.352017 0.107447-0.529049 0.155543-0.298805 0.080841-0.599657 0.150426-0.900509 0.223081-0.188288 0.045025-0.375553 0.095167-0.563842 0.1361-0.315178 0.069585-0.633427 0.12689-0.950651 0.186242-0.173962 0.032746-0.346901 0.070608-0.51984 0.100284-0.364297 0.061398-0.729617 0.11154-1.094938 0.160659-0.125867 0.016373-0.25071 0.038886-0.3776 0.054235-0.452301 0.055259-0.906649 0.098237-1.360997 0.13303-0.036839 0.00307-0.074701 0.008186-0.11154 0.010233-4.9088 0.363274-9.899464-0.430812-14.536065-2.407839-0.052189-0.021489-0.104377-0.041956-0.155543-0.064468-0.330528-0.143263-0.656963-0.296759-0.983397-0.452301-0.149403-0.070608-0.299829-0.137123-0.448208-0.210801-0.237407-0.11768-0.470721-0.243547-0.706081-0.367367-0.234337-0.122797-0.468674-0.243547-0.699941-0.372483-0.157589-0.088004-0.313132-0.183172-0.468674-0.274246-0.303922-0.177032-0.607844-0.355087-0.906649-0.542352-0.096191-0.060375-0.189312-0.124843-0.284479-0.186242-0.352017-0.226151-0.701988-0.458441-1.045819-0.699941-0.060375-0.042979-0.119727-0.088004-0.180102-0.130983-0.370437-0.264013-0.737804-0.536212-1.098008-0.818645-0.055259-0.042979-0.10847-0.088004-0.162706-0.130983-0.356111-0.282433-0.708128-0.571005-1.054005-0.870834-0.021489-0.01842-0.042979-0.034792-0.064468-0.053212L205.507514 573.813067l0 31.627325c0 17.253966-13.96199 31.233352-31.210839 31.233352-17.248849 0-31.210839-13.980409-31.210839-31.233352l0-83.289961c0-0.844228 0.042979-1.677199 0.10847-2.50403l-67.661006-58.814524c-13.019525-11.31572-14.396895-31.04097-3.080152-44.054355 6.176676-7.106862 14.854313-10.746762 23.588231-10.746762 7.264451 0 14.564717 2.521426 20.476357 7.66661l395.9581 344.191086 395.9581-344.191086c5.907547-5.14416 13.20679-7.66661 20.476357-7.66661 8.723685 0 17.406438 3.6399 23.577998 10.746762C963.815269 429.791929 962.431759 449.516156 949.408141 460.831876zM845.633636 411.328415c-17.248849 0-31.233352-13.980409-31.233352-31.233352L814.400285 69.799972c0-39.133276-26.928303-72.197322-58.807361-72.197322L269.354658-2.397351c-31.879058 0-58.807361 33.064047-58.807361 72.197322L210.547297 380.09404c0 17.253966-13.985526 31.233352-31.233352 31.233352-17.248849 0-31.233352-13.980409-31.233352-31.233352L148.080593 69.799972c0-74.251098 54.405097-134.665049 121.275087-134.665049L755.592924-64.865077c66.86999 0 121.275087 60.413951 121.275087 134.665049L876.868011 380.09404C876.868011 397.348006 862.882486 411.328415 845.633636 411.328415zM390.586766 490.216113c-17.248849 0-31.233352-13.980409-31.233352-31.233352l0-30.470989c0-17.253966 13.985526-31.233352 31.233352-31.233352 17.248849 0 31.233352 13.980409 31.233352 31.233352l0 30.470989C421.820118 476.235704 407.835615 490.216113 390.586766 490.216113zM634.360815 490.216113c-17.248849 0-31.233352-13.980409-31.233352-31.233352l0-30.470989c0-17.253966 13.985526-31.233352 31.233352-31.233352 17.248849 0 31.233352 13.980409 31.233352 31.233352l0 30.470989C665.59519 476.235704 651.609665 490.216113 634.360815 490.216113zM589.269851 349.155401c-14.539134 9.31311-33.841759 5.053086-43.149752-9.455349-0.121773-0.193405-13.379729-19.449981-33.968649-19.449981-20.008706 0-32.454156 18.138102-33.276894 19.378349-9.175987 14.417361-28.269857 18.809391-42.834574 9.750061-14.650675-9.099239-19.145036-28.356838-10.044774-43.007513 11.214413-18.047028 41.980113-48.589648 86.157265-48.589648 43.958164 0 75.100442 30.308283 86.573751 48.223305C608.028077 320.53455 603.793636 339.852524 589.269851 349.155401z"  horiz-adv-x="1024" />

    
    <glyph glyph-name="shouye" unicode="&#58901;" d="M371.319957 256.000767c-0.201591 0.167822-0.348947 0.37453-0.555655 0.538259-68.492954 54.16155-97.717555 109.608374-97.717555 185.393407 0 17.250896-13.981433 31.236422-31.236422 31.236422s-31.237445-13.986549-31.237445-31.236422c0-83.274612 30.083156-151.037948 94.031607-210.831776C207.274764 154.812157 153.244196 76.620307 126.838803-24.827199c-4.341888-16.696264 5.664-33.758871 22.360264-38.10076 2.644223-0.681522 5.287423-1.017166 7.890714-1.017166 13.880125 0 26.549679 9.324366 30.210046 23.376407 25.166169 96.705506 80.644715 169.906691 185.489598 244.770749 14.042831 10.026354 17.295921 29.53364 7.270591 43.571355C377.636826 251.168716 374.640586 253.900943 371.319957 256.000767zM898.081149-24.725892c-26.666336 101.043301-79.924307 178.587398-175.113273 253.587556 65.422012 59.791781 96.186689 128.295991 96.186689 213.069747 0 17.250896-13.981433 31.236422-31.236422 31.236422s-31.237445-13.986549-31.237445-31.236422c0-75.748195-30.540573-133.269259-98.849332-186.244798-4.272303-2.204202-8.149611-5.301749-11.131525-9.484002-10.026354-14.037714-6.77224-33.545 7.270591-43.571355 104.58087-74.680886 157.811212-145.167241 183.710069-243.301282 3.691065-14.012132 16.340153-23.275099 30.179346-23.275099 2.63399 0 5.318122 0.335644 7.992021 1.046842C892.52869-58.493973 902.483412-41.411923 898.081149-24.725892zM237.548254 507.288954c16.950044 2.933819 28.329209 19.080567 25.460882 36.046984-0.152473 0.880043-14.224979 88.50473 39.96113 152.621003 40.98853 48.507784 111.281479 73.099878 208.927403 73.099878 97.726765 0 168.193677-24.638143 209.456453-73.226768 54.492078-64.161299 40.866756-151.766542 40.733727-152.528905-2.918469-17.001209 8.490372-33.154098 25.501814-36.07666 1.789763-0.310062 3.569292-0.457418 5.328355-0.457418 14.926968 0 28.125571 10.737552 30.749328 25.948999 0.803295 4.703115 18.953677 116.172883-54.146201 202.912409C715.89376 799.264818 629.209492 831.52864 511.898693 831.52864c-117.30159 0-203.823152-32.258705-257.1855-95.886861-72.794933-86.806042-54.074569-198.367907-53.240575-203.075115C204.470905 515.61662 220.658585 504.329553 237.548254 507.288954zM401.406183 529.084353c-17.256012 0-31.237445-13.986549-31.237445-31.237445l0-33.320896c0-17.250896 13.981433-31.236422 31.237445-31.236422s31.236422 13.986549 31.236422 31.236422l0 33.320896C432.642604 515.097804 418.661172 529.084353 401.406183 529.084353zM623.541399 529.084353c-17.256012 0-31.237445-13.986549-31.237445-31.237445l0-33.320896c0-17.250896 13.981433-31.236422 31.237445-31.236422s31.236422 13.986549 31.236422 31.236422l0 33.320896C654.778844 515.097804 640.797411 529.084353 623.541399 529.084353zM589.505211 397.013385c-14.317077 9.410324-33.585933 5.398964-43.164079-8.759501-0.132006-0.193405-13.615089-19.756973-34.175357-19.756973-19.990287 0-32.43676 18.119683-33.270754 19.37528-9.182127 14.418384-28.288277 18.816554-42.838667 9.761318-14.652721-9.105379-19.157315-28.369118-10.045797-43.021839 11.215436-18.043958 41.974997-48.588625 86.155219-48.588625 43.967374 0 75.112722 30.316469 86.582961 48.233538C607.970772 368.6545 603.781356 387.613294 589.505211 397.013385z"  horiz-adv-x="1024" />

    
    <glyph glyph-name="shouye4" unicode="&#58904;" d="M760.494561 656.235264 264.453021 656.235264c-73.224722 0-132.804678-59.579957-132.804678-132.804678l0-454.466656c0-73.224722 59.579957-132.804678 132.804678-132.804678L760.494561-63.840748c73.224722 0 132.804678 59.579957 132.804678 132.804678L893.299239 523.430586C893.299239 596.655308 833.719282 656.235264 760.494561 656.235264zM830.831512 68.962907c0-38.788421-31.549553-70.336952-70.336952-70.336952L264.453021-1.374044c-38.788421 0-70.336952 31.549553-70.336952 70.336952L194.116069 523.430586c0 38.788421 31.549553 70.336952 70.336952 70.336952l51.760874 0c-0.002047-0.135076-0.039909-0.260943-0.039909-0.396019l0-41.085744c0-17.253966 13.980409-31.233352 31.233352-31.233352s31.233352 13.980409 31.233352 31.233352l0 41.085744c0 0.1361-0.037862 0.260943-0.039909 0.396019l267.743974 0c-0.002047-0.135076-0.039909-0.260943-0.039909-0.396019l0-41.085744c0-17.253966 13.980409-31.233352 31.234375-31.233352s31.233352 13.980409 31.233352 31.233352l0 41.085744c0 0.1361-0.037862 0.260943-0.039909 0.396019l51.760874 0c38.788421 0 70.336952-31.549553 70.336952-70.336952L830.830489 68.962907zM333.745177 685.567313c15.352663-7.635911 34.030048-1.342578 41.808198 13.908778 1.454118 2.836605 36.663014 69.584821 137.349181 69.584821 100.493785 0 134.940318-66.534346 136.231731-69.096704 5.347798-11.245112 16.551978-17.822924 28.224832-17.822924 4.494361 0 9.069563 0.976234 13.400195 3.040243 15.575744 7.411807 22.195511 26.048259 14.783705 41.625026-2.033309 4.270257-51.446719 104.72311-192.639438 104.72311-141.009548 0-191.32756-100.228749-193.401802-104.499006C312.017316 711.626829 318.402747 693.203224 333.745177 685.567313zM390.588813 460.007091c-17.253966 0-31.234375-13.980409-31.234375-31.234375l0-30.470989c0-17.253966 13.980409-31.233352 31.234375-31.233352 17.253966 0 31.233352 13.980409 31.233352 31.233352l0 30.470989C421.822165 446.026682 407.842779 460.007091 390.588813 460.007091zM634.358769 460.007091c-17.253966 0-31.234375-13.980409-31.234375-31.234375l0-30.470989c0-17.253966 13.980409-31.233352 31.234375-31.233352s31.234375 13.980409 31.234375 31.233352l0 30.470989C665.593144 446.026682 651.612735 460.007091 634.358769 460.007091zM589.270874 318.946378c-14.539134 9.292644-33.846876 5.083785-43.149752-9.455349-0.121773-0.193405-13.379729-19.449981-33.968649-19.449981-19.989263 0-32.423457 18.098193-33.277918 19.36914-9.181103 14.427594-28.285207 18.819624-42.834574 9.760295-14.650675-9.099239-19.155269-28.356838-10.044774-43.007513 11.214413-18.047028 41.981137-48.589648 86.157265-48.589648 43.953048 0 75.095325 30.308283 86.574774 48.223305C608.030124 290.315294 603.800799 309.643502 589.270874 318.946378z"  horiz-adv-x="1024" />

    
    <glyph glyph-name="shouye21" unicode="&#58925;" d="M606.072539 4.861984 200.5015 4.861984c-40.135092 0-72.794933 32.659841-72.794933 72.794933L127.706567 493.627816c0 40.135092 32.659841 72.794933 72.794933 72.794933l72.794933 0 0-51.935859c0-17.2335 13.964036-31.197536 31.197536-31.197536s31.197536 13.964036 31.197536 31.197536l0 51.935859 353.574804 0 0-51.935859c0-17.2335 13.964036-31.197536 31.197536-31.197536s31.197536 13.964036 31.197536 31.197536l0 51.935859 72.794933 0c40.135092 0 72.794933-32.659841 72.794933-72.794933l0-207.984938c0-17.2335 13.964036-31.197536 31.197536-31.197536s31.197536 13.964036 31.197536 31.197536L959.64632 493.627816c0 74.541717-60.649312 135.190005-135.190005 135.190005L200.5015 628.817822c-74.541717 0-135.190005-60.649312-135.190005-135.190005l0-415.9709c0-74.541717 60.649312-135.190005 135.190005-135.190005l405.571039 0c17.2335 0 31.197536 13.964036 31.197536 31.197536S623.307062 4.861984 606.072539 4.861984zM304.493969 660.879028c17.2335 0 31.197536 13.964036 31.197536 31.197536 0 40.135092 32.659841 72.794933 72.794933 72.794933l207.984938 0c40.135092 0 72.794933-32.659841 72.794933-72.794933 0-17.2335 13.964036-31.197536 31.197536-31.197536s31.197536 13.964036 31.197536 31.197536c0 74.541717-60.649312 135.190005-135.190005 135.190005L408.486438 827.266569c-74.541717 0-135.190005-60.649312-135.190005-135.190005C273.296433 674.843064 287.260469 660.879028 304.493969 660.879028zM401.133983 460.988442c-17.2335 0-31.197536-13.964036-31.197536-31.197536l0-30.436196c0-17.2335 13.964036-31.197536 31.197536-31.197536s31.197536 13.964036 31.197536 31.197536l0 30.436196C432.331519 447.024405 418.368506 460.988442 401.133983 460.988442zM623.824855 460.988442c-17.2335 0-31.197536-13.964036-31.197536-31.197536l0-30.436196c0-17.2335 13.964036-31.197536 31.197536-31.197536s31.197536 13.964036 31.197536 31.197536l0 30.436196C655.022391 447.024405 641.058354 460.988442 623.824855 460.988442zM512.154519 228.822778c43.901883 0 75.008344 30.273491 86.47449 48.168046 9.292644 14.502295 5.067412 33.80799-9.445116 43.09961-14.512529 9.282411-33.797757 5.077645-43.09961-9.445116-0.121773-0.193405-13.364379-19.427468-33.929764-19.427468-19.965727 0-32.385595 18.076704-33.228799 19.346627-9.150404 14.400988-28.221762 18.777669-42.785455 9.759271-14.634302-9.099239-19.132756-28.334325-10.04375-42.967604C437.298648 259.329583 468.0183 228.822778 512.154519 228.822778zM928.449807 154.429441 808.977785 154.429441l0 110.414739c0 17.2335-13.964036 31.197536-31.197536 31.197536s-31.197536-13.964036-31.197536-31.197536l0-110.414739L637.270075 154.429441c-17.2335 0-31.197536-13.964036-31.197536-31.197536s13.964036-31.197536 31.197536-31.197536l109.311615 0 0-118.368898c0-17.2335 13.964036-31.197536 31.197536-31.197536s31.197536 13.964036 31.197536 31.197536L808.976762 92.033345 928.449807 92.033345c17.2335 0 31.197536 13.964036 31.197536 31.197536S945.683307 154.429441 928.449807 154.429441z"  horiz-adv-x="1024" />

    
    <glyph glyph-name="shouye1" unicode="&#58930;" d="M813.907051 831.52864 252.627694 831.52864c-74.503854 0-135.122467-60.618613-135.122467-135.122467l0-66.972321c0-17.225313 13.956873-31.182186 31.182186-31.182186s31.182186 13.956873 31.182186 31.182186l0 66.972321c0 40.114626 32.643468 72.758094 72.758094 72.758094l561.279357 0c40.114626 0 72.758094-32.643468 72.758094-72.758094l0-625.125477c0-40.114626-32.643468-72.758094-72.758094-72.758094L252.627694-1.477398c-40.114626 0-72.758094 32.643468-72.758094 72.758094L179.8696 126.225075c0 17.225313-13.956873 31.182186-31.182186 31.182186s-31.182186-13.956873-31.182186-31.182186l0-54.94438c0-74.503854 60.618613-135.122467 135.122467-135.122467l561.279357 0c74.503854 0 135.122467 60.618613 135.122467 135.122467L949.029518 696.406173C949.029518 770.91105 888.410905 831.52864 813.907051 831.52864zM221.445508 242.302791c0 17.225313-13.956873 31.182186-31.182186 31.182186l-83.152838 0c-17.225313 0-31.182186-13.956873-31.182186-31.182186s13.956873-31.182186 31.182186-31.182186l83.152838 0C207.488635 211.120604 221.445508 225.077477 221.445508 242.302791zM107.111506 502.154004l83.152838 0c17.225313 0 31.182186 13.956873 31.182186 31.182186 0 17.225313-13.956873 31.182186-31.182186 31.182186l-83.152838 0c-17.225313 0-31.182186-13.956873-31.182186-31.182186C75.92932 516.110877 89.886193 502.154004 107.111506 502.154004zM777.709641 348.6724c-17.225313 0-31.182186-13.956873-31.182186-31.182186 0-63.034639-25.670659-110.832248-83.23368-154.986887-13.662161-10.475586-16.240893-30.055526-5.755074-43.717687 6.130627-7.998161 15.398712-12.20088 24.756847-12.20088 6.627954 0 13.296841 2.100848 18.960841 6.445806 73.42836 56.32482 107.635439 121.2976 107.635439 204.460672C808.891827 334.715527 794.934954 348.6724 777.709641 348.6724zM427.671383 164.350394c-56.69014 44.823881-80.879052 90.622974-80.879052 153.139819 0 17.225313-13.956873 31.182186-31.182186 31.182186-17.225313 0-31.182186-13.956873-31.182186-31.182186 0-81.446987 33.222659-145.658428 104.569614-202.065112 5.724375-4.527107 12.545734-6.720052 19.315928-6.720052 9.206686 0 18.321274 4.060479 24.482601 11.845793C443.476347 134.061554 441.182095 153.661961 427.671383 164.350394zM767.800967 589.857485c-46.327118 54.964846-120.891348 82.83766-221.624587 82.83766-100.723006 0-175.166485-27.872814-221.259266-82.83766-63.014172-75.122955-46.814212-171.644265-46.092781-175.713954 2.680039-15.124466 15.824407-25.761734 30.664394-25.761734 1.807159 0 3.63376 0.162706 5.470595 0.487094 16.9613 3.004427 28.279067 19.173688 25.27464 36.136012-0.121773 0.710175-11.348466 72.535013 32.461319 124.779911 33.689287 40.175001 92.064812 60.546981 173.4811 60.546981 81.182974 0 139.578965-20.260439 173.552731-60.21236 44.682665-52.538587 33.567513-124.677581 33.466206-125.267005-2.913353-16.971533 8.476045-33.090653 25.457812-36.014238 16.951067-2.87242 33.090653 8.485255 36.014238 25.447579C815.356053 418.355459 831.058686 514.784672 767.800967 589.857485zM442.720124 458.134441c-17.225313 0-31.182186-13.956873-31.182186-31.182186l0-31.182186c0-17.225313 13.956873-31.182186 31.182186-31.182186s31.182186 13.956873 31.182186 31.182186l0 31.182186C473.90231 444.177568 459.945437 458.134441 442.720124 458.134441zM650.600685 458.134441c-17.225313 0-31.182186-13.956873-31.182186-31.182186l0-31.182186c0-17.225313 13.956873-31.182186 31.182186-31.182186 17.225313 0 31.182186 13.956873 31.182186 31.182186l0 31.182186C681.782871 444.177568 667.825998 458.134441 650.600685 458.134441zM107.111506 356.637816l83.152838 0c17.225313 0 31.182186 13.956873 31.182186 31.182186 0 17.225313-13.956873 31.182186-31.182186 31.182186l-83.152838 0c-17.225313 0-31.182186-13.956873-31.182186-31.182186C75.92932 370.594689 89.886193 356.637816 107.111506 356.637816zM546.370809 229.293499c42.155099 0 72.006987 29.05064 83.000366 46.214555 9.196453 14.363126 5.024433 33.262568-9.206686 42.652426-14.261818 9.419534-33.506115 5.399987-43.088354-8.67866-0.121773-0.183172-12.332886-17.823947-30.705326-17.823947-17.803481 0-29.030174 16.240893-29.822213 17.427928-9.175987 14.392802-28.227901 18.747993-42.753733 9.734712-14.627139-9.095145-19.123546-28.319999-10.038634-42.946115C474.506061 258.577452 503.992629 229.293499 546.370809 229.293499z"  horiz-adv-x="1024" />

    
    <glyph glyph-name="shouye2" unicode="&#58947;" d="M762.503311 754.886075c-14.285355 9.653871-33.714869 5.90243-43.363623-8.393157-9.658987-14.295588-5.907547-33.709753 8.388041-43.367717 106.359376-71.861678 169.863712-191.280488 169.863712-319.443449 0-212.412784-172.811858-385.220548-385.220548-385.220548S126.956484 171.267944 126.956484 383.681752c0 128.168078 63.49922 247.586888 169.858596 319.443449 14.295588 9.658987 18.057261 29.073152 8.398274 43.363623-9.648754 14.295588-29.073152 18.052145-43.363623 8.398274C138.267087 671.397592 64.488757 532.626016 64.488757 383.681752c0-246.854201 200.827935-447.687252 447.682136-447.687252S959.859167 136.826528 959.859167 383.681752C959.859167 532.626016 886.075721 671.392476 762.503311 754.886075zM400.698055 831.363887c-17.248849 0-31.233352-13.984503-31.233352-31.233352l0-30.470989c0-17.248849 13.985526-31.233352 31.233352-31.233352 17.248849 0 31.233352 13.985526 31.233352 31.233352L431.931407 800.130535C431.931407 817.378361 417.946904 831.363887 400.698055 831.363887zM623.649869 831.363887c-17.248849 0-31.233352-13.984503-31.233352-31.233352l0-30.470989c0-17.248849 13.985526-31.233352 31.233352-31.233352 17.248849 0 31.233352 13.985526 31.233352 31.233352L654.883221 800.130535C654.883221 817.378361 640.897695 831.363887 623.649869 831.363887zM425.695379 668.343023c11.209296-18.047028 41.974997-48.588625 86.157265-48.588625 43.958164 0 75.100442 30.3134 86.573751 48.223305 9.302877 14.528901 5.068436 33.846876-9.455349 43.149752-14.544251 9.29776-33.846876 5.063319-43.149752-9.455349-0.121773-0.198521-13.379729-19.449981-33.968649-19.449981-20.008706 0-32.443923 18.127869-33.276894 19.373233-9.165754 14.427594-28.285207 18.799158-42.829458 9.760295C421.089477 702.250274 416.59 682.993698 425.695379 668.343023zM356.00311 304.94141c-17.248849 0-31.233352-13.984503-31.233352-31.233352s13.984503-31.233352 31.233352-31.233352L480.93754 242.474706l0-98.250698c0-17.248849 13.984503-31.238468 31.233352-31.238468 17.248849 0 31.233352 13.989619 31.233352 31.238468l0 98.250698 124.93443 0c17.248849 0 31.238468 13.984503 31.238468 31.233352s-13.989619 31.233352-31.238468 31.233352L543.405267 304.94141l0 83.289961 124.93443 0c17.248849 0 31.238468 13.985526 31.238468 31.233352 0 17.248849-13.989619 31.233352-31.238468 31.233352l-80.761372 0 68.041676 68.038606c12.20088 12.20088 12.20088 31.976272 0.005117 44.171012-12.195763 12.20088-31.976272 12.195763-44.171012 0.005117l-99.280144-99.276051-99.280144 99.276051c-12.190647 12.190647-31.971156 12.195763-44.171012-0.005117-12.195763-12.195763-12.195763-31.971156 0.005117-44.171012l68.041676-68.038606-80.766488 0c-17.248849 0-31.233352-13.984503-31.233352-31.233352 0-17.248849 13.984503-31.233352 31.233352-31.233352L480.93754 388.231371l0-83.289961L356.00311 304.94141z"  horiz-adv-x="1024" />

    
    <glyph glyph-name="shenqingchenggong" unicode="&#58919;" d="M981.04266525 583.3657344000001c-25.6855131 60.72264363-62.44696519 115.25123869-109.26559802 162.07103545-46.82096071 46.81979677-101.34839182 83.5824128-162.07103544 109.26559801-62.88241095 26.59715641-129.6628827 40.08318521-198.48785579 40.08318521s-135.60544483-13.48602994-198.48785579-40.08318521c-60.72264363-25.68318407-115.25123869-62.44580125-162.07103544-109.26559801-46.81979677-46.81863282-83.5824128-101.34722674-109.26559802-162.07103545C14.79885824 520.48332345 1.31282944 453.70168775 1.31282944 384.87787861c0-58.13208747 9.71138503-115.16624555 28.86287474-169.5155382 18.51112675-52.53066411 45.42613618-101.45783467 79.99522019-145.42161579 9.94191587-12.63958699 28.24696263-14.82962603 40.88887752-4.89120313 12.64191602 9.94075079 14.83195506 28.24812658 4.89236821 40.8900426-63.06637027 80.20246414-96.4001371 176.65732381-96.40013711 278.93831566 0 249.05086179 202.61761024 451.66847203 451.66847204 451.66847204 249.05086179 0 451.66847203-202.61761024 451.66847204-451.66847204S760.27020174-66.79059456000005 511.21933995-66.79059456000005c-74.78616405 0-148.86210787 18.64734947-214.21981128 53.92665373-14.15200654 7.64010382-31.81669035 2.35886137-39.45563022-11.79314404s-2.35886137-31.81669035 11.79314404-39.45679531c73.82794923-39.85149155 157.46974151-60.9159168 241.88229746-60.9159168 68.82380914 0 135.60544483 13.48602994 198.48785578 40.08318521 60.72264363 25.6855131 115.25007474 62.44696519 162.07103545 109.26559801 46.81863282 46.82096071 83.58008491 101.34839182 109.26559801 162.07103545 26.59715641 62.88241095 40.08318521 129.6628827 40.08318521 198.48785578S1007.63982165 520.48332345 981.04266525 583.3657344000001zM375.95270485 209.35574186999997c15.33260117-15.33260117 35.4679205-22.99715584 55.61022464-22.99715584 20.13648327 0 40.27995136 7.66804765 55.6090607 22.99715584l0.20724508 0.20724508 311.72253582 324.5437531c11.13997539 11.59870691 10.76856491 30.03182649-0.82897806 41.17180189-11.59870691 11.13997539-30.03066254 10.76972885-41.17180188-0.82897807L445.83020089 250.37735025999996c-7.75886279-7.59120327-20.11785443-7.74023395-28.05951033-0.45291065L266.46007011 426.70983509c-10.45886293 12.218112-28.83842389 13.64553842-41.05770097 3.18783944-12.218112-10.45769785-13.64553842-28.83958898-3.18783943-41.05770098L375.15399851 210.15444821000006 375.95270485 209.35574186999997z"  horiz-adv-x="1024" />

    
    <glyph glyph-name="bangdan" unicode="&#58891;" d="M739.505689 40.97086c22.013487 12.912304 20.506103 60.010927 39.846118 76.506821 19.425338 16.552777 64.874371 6.88277 81.171177 26.59252 16.268365 19.624426-0.93856 63.366988 11.774656 85.693328 12.627892 22.127252 58.617308 28.782492 67.348755 53.128157 8.589242 23.919047-22.354781 58.958602-17.917954 84.612562C926.023061 392.418737 966.978386 414.659753 966.978386 440.825655c0 26.194343-40.955324 48.406918-45.249945 73.349848-4.436827 25.625519 26.507196 60.693515 17.917954 84.612562-8.731448 24.317224-54.720864 31.000905-67.348755 53.128157-12.741656 22.32634 4.465268 66.068902-11.774656 85.693328-16.296806 19.681309-61.74584 10.039743-81.171177 26.59252-19.340014 16.495894-17.832631 63.594517-39.846118 76.506821-21.814398 12.798539-61.262339-11.973744-85.238269-3.100091-23.577753 8.703006-38.054322 53.497892-63.338547 57.991602C566.38412 899.923463 537.715393 862.921465 511.919227 862.921465s-54.436452 37.001998-79.009646 32.622053c-25.255783-4.493709-39.732353-49.260154-63.310105-57.96316-24.004371-8.845212-63.42387 15.927071-85.238269 3.100091-22.013487-12.912304-20.506103-60.010927-39.874559-76.506821C225.06131 747.649292 179.612276 757.290858 163.31547 737.581108 147.047105 717.956682 164.25403 674.214121 151.512373 651.887781c-12.59945-22.09881-58.588867-28.782492-67.320314-53.128157-8.589242-23.919047 22.354781-58.987043 17.917954-84.612562C97.815393 489.261014 56.860068 467.019997 56.860068 440.825655c0-26.194343 40.955324-48.406918 45.249945-73.321407 4.436827-25.625519-26.507196-60.693515-17.917954-84.612562 8.731448-24.317224 54.720864-31.000905 67.320314-53.128157 12.741656-22.32634-4.465268-66.068902 11.803097-85.693328 16.296806-19.681309 61.74584-10.068184 81.171177-26.59252 19.368455-16.495894 17.832631-63.566076 39.846118-76.506821 21.814398-12.798539 61.262339 12.002185 85.238269 3.100091 23.577753-8.703006 38.054322-53.469451 63.338547-57.96316 24.573195-4.379944 53.21348 32.622053 79.009646 32.622053s54.464893-37.001998 79.009646-32.650495c25.255783 4.493709 39.760794 49.260154 63.310105 57.96316C678.243349 52.944604 717.69129 28.172321 739.505689 40.97086zM511.919227 71.090088c-204.207797 0-369.735566 165.55621-369.735566 369.764007S307.71143 810.589662 511.919227 810.589662s369.735566-165.55621 369.735566-369.764007S716.127024 71.090088 511.919227 71.090088zM255.891568-9.028765c-24.772283 14.533452-23.065811 67.519403-44.823327 86.063063-21.84284 18.600543-72.980113 7.764447-91.324685 29.92014-0.93856 1.137648-1.791795 2.332178-2.531267 3.612032L69.943019 63.2972c-22.212575-22.212575-15.386688-46.416034 14.874746-53.981393l32.3092-8.0773c30.432081-7.5938 61.29078-38.594705 68.856139-68.856139l8.0773-32.3092c7.5938-30.432081 31.626612-37.229527 53.981393-14.874746l107.564609 107.564609c-1.251413 0.654148-2.502825 1.222971-3.81112 1.706472C324.83303 4.452363 280.436321-23.420011 255.891568-9.028765zM906.540841 110.481147c-0.739471-1.222971-1.564266-2.389061-2.474384-3.498267-18.344572-22.155693-69.481845-11.319597-91.296244-29.92014-21.785957-18.543661-20.079485-71.529611-44.851768-86.063063-24.516312-14.419687-68.913021 13.481128-95.875276 3.498267-1.336736-0.4835-2.645031-1.080766-3.924885-1.763354l107.507726-107.507726c22.354781-22.354781 46.359152-15.528894 53.981393 14.874746l8.0773 32.3092c7.565359 30.261434 38.424058 61.262339 68.856139 68.856139l32.3092 8.0773c30.261434 7.565359 37.087321 31.768818 14.874746 53.981393L906.540841 110.481147zM369.71324 521.058273l0 41.524148 60.295339 0 0 39.817676L369.71324 602.400097 369.71324 706.49488 329.895564 706.49488l0-104.094783L257.086098 602.400097l0-39.817676 71.671817 0c-15.927071-72.240641-42.661796-136.517748-80.204177-193.400142l17.633542-44.937092c26.165902 44.368268 47.212388 93.287127 63.708282 146.756579l0-284.411974L369.71324 186.589791 369.71324 477.258829c12.514127-20.477662 27.872373-47.781212 45.505916-81.910649l22.752958 34.698261C415.219156 463.03823 392.466198 493.754723 369.71324 521.058273zM490.303917 517.645329l227.529579 0 0-49.487683 39.248852 0 0 85.892416-78.497705 0c7.963535 21.61531 14.789423 44.368268 19.908838 67.121226l56.313571 0L754.807053 657.57602l-128.554212 0c-6.825887 19.340014-13.651775 36.973557-21.046486 52.331803l-40.955324-6.825887c7.963535-13.651775 14.789423-29.010021 21.61531-45.505916l-131.398332 0 0-36.404733 56.313571 0c7.963535-19.908838 15.358247-42.092972 22.184134-67.121226l-81.910649 0 0-88.167712 39.248852 0L490.303917 517.645329zM659.24463 621.171287c-4.550592-23.321782-10.807655-45.505916-19.908838-67.121226L571.645742 554.050062c-6.257063 24.45943-13.082951 46.643564-19.908838 67.121226L659.24463 621.171287zM608.050474 498.305315l-40.3865-6.825887c7.963535-15.927071 15.927071-33.560613 22.752958-52.900627l-141.637163 0 0-37.542381 88.736536 0c-4.550592-87.030064-42.092972-149.031874-112.058318-186.574255l21.61531-34.129437c55.175923 30.716493 92.718304 75.084761 113.195966 132.53598l127.416564 0c-1.706472-46.643564-5.688239-73.378289-12.514127-79.635353-6.257063-5.688239-17.064718-9.101183-31.854141-9.101183l-50.625331 0 10.807655-36.404733 32.991789 0c11.376479 0 23.321782 1.137648 34.698261 2.84412 13.651775 2.84412 24.45943 7.394711 31.285317 13.082951 16.495894 14.220599 25.028254 62.570634 25.028254 145.050107l-157.564234 0c3.412944 16.495894 5.119416 34.129437 6.257063 52.331803l189.418375 0 0 37.542381-135.3801 0C623.408721 460.762934 616.01401 480.671772 608.050474 498.305315z"  horiz-adv-x="1024" />

    
    <glyph glyph-name="icon" unicode="&#59033;" d="M869.62198 605.063815c-17.316387 0-31.355125-14.039761-31.355125-31.355125l0-501.688143c0-40.342824-32.8205-73.163323-73.163323-73.163323L252.963339-1.142777c-40.342824 0-73.163323 32.8205-73.163323 73.163323l0 606.206592c0 40.342824 32.8205 73.163323 73.163323 73.163323l407.621744 0c17.316387 0 31.355125 14.039761 31.355125 31.355125s-14.039761 31.355125-31.355125 31.355125L252.963339 814.100712c-74.92341 0-135.873574-60.950164-135.873574-135.873574l0-606.206592c0-74.92341 60.950164-135.873574 135.873574-135.873574l512.140193 0c74.92341 0 135.873574 60.950164 135.873574 135.873574L900.977106 573.707666C900.978129 591.024054 886.938368 605.063815 869.62198 605.063815zM535.946388 428.617174c6.01704-5.496178 13.59053-8.205892 21.143553-8.205892 8.502651 0 16.97358 3.434216 23.159466 10.201339L898.602012 779.013589c11.682064 12.779048 10.783601 32.615838-1.995447 44.297902-12.784164 11.676947-32.615838 10.783601-44.303019-2.000564L533.950941 472.915076C522.269901 460.136028 523.167341 440.299237 535.946388 428.617174zM355.315448 301.021124l0-30.589692c0-17.316387 14.039761-31.355125 31.355125-31.355125 17.316387 0 31.355125 14.039761 31.355125 31.355125l0 30.589692c0 17.316387-14.039761 31.355125-31.355125 31.355125C369.355209 332.376249 355.315448 318.336488 355.315448 301.021124zM631.396297 239.075283c17.316387 0 31.355125 14.039761 31.355125 31.355125l0 30.589692c0 17.316387-14.039761 31.355125-31.355125 31.355125-17.316387 0-31.355125-14.039761-31.355125-31.355125l0-30.589692C600.041172 253.115044 614.07991 239.075283 631.396297 239.075283zM589.507258 190.766021c-14.600533 9.344832-33.978882 5.082762-43.317575-9.492188-0.122797-0.199545-13.431917-19.525706-34.101679-19.525706-20.067035 0-32.549324 18.167778-33.401738 19.443841-9.211802 14.488992-28.395724 18.877953-43.001373 9.803273-14.713097-9.140171-19.22997-28.472472-10.089799-43.180452 11.253298-18.117636 42.138726-48.77896 86.49291-48.77896 44.129056 0 75.393107 30.432103 86.911442 48.411593C608.339162 162.033629 604.088348 181.427328 589.507258 190.766021z"  horiz-adv-x="1024" />

    
    <glyph glyph-name="xiaoxi" unicode="&#58888;" d="M515.072 829.44c-245.76 0-445.44-199.68-445.44-445.44 0-87.04 25.088-171.008 72.704-243.712 7.68-12.288 0.512-44.544-5.12-70.656-9.216-41.472-18.432-83.968 9.728-106.496 34.816-27.648 102.4-21.504 168.448-15.872 38.4 3.584 78.336 6.656 101.376 1.536 32.256-7.168 65.536-11.264 99.328-11.264 245.76 0 445.44 199.68 445.44 445.44C960.512 629.76 760.832 829.44 515.072 829.44zM515.072-25.6c-30.72 0-61.44 3.584-91.136 10.24-11.264 2.56-24.576 3.584-39.424 3.584-22.016 0-47.104-2.048-73.216-4.608-53.248-4.608-119.296-10.24-142.848 8.192-10.24 8.192-2.56 44.032 3.072 70.656 7.68 35.84 15.872 73.216 0 97.792-43.52 66.56-66.56 143.872-66.56 224.256 0 225.792 183.808 409.6 409.6 409.6 225.792 0 409.6-183.808 409.6-409.6S740.864-25.6 515.072-25.6zM518.656 384m-49.152 0a9.6 9.6 0 1 0 98.304 0 9.6 9.6 0 1 0-98.304 0ZM276.48 384m-49.152 0a9.6 9.6 0 1 0 98.304 0 9.6 9.6 0 1 0-98.304 0ZM760.32 384m-49.152 0a9.6 9.6 0 1 0 98.304 0 9.6 9.6 0 1 0-98.304 0Z"  horiz-adv-x="1031" />

    
    <glyph glyph-name="brithday" unicode="&#58896;" d="M310.839 640c30.263 0 54.875 26.002 54.875 54.857 0 28.855-54.875 128-54.875 128s-54.839-99.145-54.839-128c0-28.855 24.576-54.857 54.839-54.857zM731.41 640c30.263 0 54.875 26.002 54.875 54.857 0 28.855-54.875 128-54.875 128s-54.839-99.145-54.839-128c0-28.855 24.576-54.857 54.839-54.857zM530.267 658.286c30.263 0 54.875 23.406 54.875 52.261s-54.875 130.597-54.875 130.597-54.839-101.742-54.839-130.597c0-28.855 24.576-52.261 54.839-52.261zM201.143 200.942c57.563 0 115.602 37.175 146.286 73.051 36.846-35.877 95.506-65.353 164.571-65.353 69.065 0 127.707 29.477 164.571 65.353 30.72-35.877 88.759-73.143 146.286-73.143 93.714 0 146.286 69.467 146.286 146.286 0 68.425-35.383 127.269-114.853 138.862-9.71 1.573-23.826 5.138-33.993 5.138l-34.011 2.578v109.714h-109.714v-109.714l-91.429-0.293 0 110.007h-109.714v-109.714l-109.714-0.293 0 110.007-109.714-0.293v-109.714l-44.581-3.438c-10.496-0.987-23.113-3.73-32.786-5.358-79.488-11.538-123.776-69.029-123.776-137.49 0-76.782 52.48-146.194 146.286-146.194zM677.266 219.429c-36.974-37.669-97.006-62.427-165.266-62.427s-127.598 24.722-164.571 62.427c-33.152-37.394-91.739-62.427-158.080-62.427-63.287 0-100.699 27.849-134.491 62.427v-146.286c0-82.304 52.462-146.286 146.286-146.286h621.714c93.733 0 139.995 62.866 146.286 146.286v146.286c-33.792-34.615-71.241-62.427-134.565-62.427-66.322 0-124.215 25.033-157.312 62.427z"  horiz-adv-x="1024" />

    
    <glyph glyph-name="close" unicode="&#58975;" d="M826.28899999 755.10950782l-314.28899999-314.27800001-314.28899999 314.27800001c-16.933 16.933-44.389 16.933-61.32100001 0-16.933-16.933-16.933-44.387-1e-8-61.31800001l314.28900001-314.277-314.28900001-314.279c-16.933-16.933-16.933-44.387 1e-8-61.318 16.933-16.933 44.389-16.933 61.32100001 0l314.28899999 314.277 314.28899999-314.277c16.933-16.933 44.388-16.933 61.323 0s16.933 44.387 0 61.318l-314.28899999 314.278 314.28899999 314.27700001c16.933 16.933 16.933 44.387 0 61.31799999-16.934 16.93100001-44.389 16.93100001-61.323 0.00100001z"  horiz-adv-x="1024" />

    
    <glyph glyph-name="weixuanze" unicode="&#58887;" d="M512 865.882353c265.035294 0 481.882353-216.847059 481.882353-481.882353s-216.847059-481.882353-481.882353-481.882353-481.882353 216.847059-481.882353 481.882353 216.847059 481.882353 481.882353 481.882353zM512-128c-283.105882 0-512 228.894118-512 512s228.894118 512 512 512 512-228.894118 512-512-228.894118-512-512-512z m0 963.764706c-246.964706 0-451.764706-204.8-451.764706-451.764706s204.8-451.764706 451.764706-451.764706c252.988235 0 451.764706 204.8 451.764706 451.764706s-198.776471 451.764706-451.764706 451.764706z"  horiz-adv-x="1024" />

    
    <glyph glyph-name="manyi" unicode="&#58926;" d="M479.314 707.544c17.111 34.67 45.11 34.67 62.221 0l51.982-105.326c17.111-34.67 62.415-67.586 100.676-73.145l116.234-16.89c38.261-5.56 46.913-32.189 19.227-59.176l-84.108-81.985c-27.686-26.987-44.991-80.245-38.455-118.352l19.855-115.765c6.536-38.106-16.116-54.564-50.338-36.573L572.646 154.99c-34.222 17.991-90.221 17.991-124.442 0L344.24 100.33299999999997c-34.222-17.991-56.874-1.534-50.338 36.573l19.855 115.765c6.536 38.106-10.769 91.365-38.455 118.352l-84.108 81.985c-27.686 26.987-19.034 53.616 19.227 59.176l116.234 16.89c38.261 5.56 83.565 38.475 100.676 73.145l51.983 105.325zM701.867 84.25300000000004c-8.993-0.001-18.867 2.793-29.347 8.303l-103.964 54.657c-15.313 8.05-35.958 12.483-58.132 12.483s-42.819-4.434-58.132-12.483l-103.963-54.657c-10.479-5.51-20.353-8.303-29.346-8.303-10.663 0-19.614 3.932-25.885 11.369-8.259 9.795-10.975 24.585-7.856 42.77l19.855 115.765c6.018 35.088-10.435 85.725-35.928 110.574l-84.108 81.985c-15.913 15.51-22.07 32.071-17.34 46.63 4.731 14.56 19.447 24.338 41.437 27.533l116.234 16.89c35.23 5.12 78.305 36.415 94.06 68.338l51.981 105.326c9.835 19.927 23.682 30.901 38.991 30.901 15.309 0 29.156-10.974 38.99-30.901l51.981-105.326c15.756-31.924 58.83-63.219 94.06-68.338l116.234-16.89c21.99-3.195 36.706-12.974 41.437-27.533 4.731-14.56-1.427-31.12-17.339-46.63l-84.107-81.985c-25.494-24.85-41.946-75.486-35.929-110.574l19.855-115.765c3.119-18.184 0.401-32.973-7.857-42.769-6.27-7.438-15.22-11.37-25.882-11.37z m-191.442 93.018c24.971 0 48.521-5.15 66.31-14.503l103.964-54.657c7.82-4.11 15.14-6.284 21.168-6.284 5.394 0.001 9.582 1.725 12.448 5.124 4.745 5.629 6.155 15.739 3.973 28.471l-19.855 115.765c-6.983 40.714 11.4 97.295 40.982 126.129l84.106 81.985c10.711 10.44 15.409 20.87 12.893 28.616s-12.448 13.422-27.25 15.572l-116.234 16.89c-40.879 5.94-89.01 40.91-107.292 77.952l-51.981 105.327c-6.619 13.412-15.086 21.104-23.23 21.104s-16.612-7.692-23.231-21.104L435.212 598.3299999999999c-18.281-37.042-66.412-72.012-107.292-77.953l-116.234-16.89c-14.801-2.15-24.734-7.827-27.25-15.572s2.183-18.176 12.893-28.616l84.108-81.985c29.581-28.834 47.965-85.415 40.982-126.129L302.564 135.41999999999996c-2.184-12.732-0.773-22.844 3.971-28.472 2.866-3.398 7.055-5.123 12.449-5.123 6.029 0 13.349 2.174 21.168 6.284l103.963 54.657c17.789 9.354 41.338 14.505 66.31 14.505z"  horiz-adv-x="1024" />

    
    <glyph glyph-name="icon-manyidu" unicode="&#58928;" d="M710.01429333 36.28487111000004c-9.34456889 0-19.60277333 2.90247111-30.49130666 8.62663111l-108.01607112 56.78648889c-15.90954667 8.36494222-37.36007111 12.97066667-60.39779555 12.97066667s-44.48824889-4.60686222-60.39779555-12.97066667l-108.01607112-56.78648889c-10.88739555-5.72416-21.14673778-8.62663111-30.49016888-8.62663111-11.07968 0-20.37987555 4.08462222-26.89479112 11.81240889-8.57998222 10.17742222-11.40280889 25.54311111-8.16241778 44.43704889l20.6290489 120.27790222c6.25322667 36.45553778-10.84188445 89.06638222-37.32821334 114.88483556l-87.38702222 85.18087111c-16.53304889 16.11548445-22.93077333 33.32209778-18.01557334 48.44885333 4.9152 15.12675555 20.20465778 25.28711111 43.05237334 28.60714667l120.76600889 17.54794667c36.60344889 5.31911111 81.3568 37.83338667 97.72714667 71.00302222l54.00803555 109.43260444c10.21724445 20.70300445 24.60444445 32.10467555 40.51057778 32.10467556 15.90499555 0 30.29219555-11.40167111 40.50944-32.10467556l54.00803555-109.43260444c16.37034667-33.16849778 61.12369778-65.68391111 97.72600889-71.00302222l120.76600889-17.54794667c22.84885333-3.32003555 38.13944889-13.47925333 43.05351111-28.60600889 4.9152-15.12675555-1.48252445-32.33336889-18.01557333-48.44885334l-87.38702222-85.18200888c-26.48632889-25.81617778-43.58144-78.42816-37.32935112-114.88483556l20.6290489-120.27790222c3.24152889-18.89166222 0.41756445-34.25735111-8.16241778-44.43591111-6.51605333-7.72892445-15.81624889-11.81354667-26.89365334-11.81354667z m-198.90517333 96.64398222c25.94474667 0 50.41265778-5.35210667 68.89585778-15.06872888l108.01607111-56.7864889c8.12487111-4.27235555 15.72977778-6.52970667 21.99324444-6.52970666 5.60355555 0 9.95441778 1.79086222 12.93312 5.32366222 4.92999111 5.84817778 6.39544889 16.35328 4.12672 29.57994667l-20.62904888 120.27790222c-7.25560889 42.30257778 11.84654222 101.08928 42.58019555 131.04696889l87.38702222 85.18087111c11.12746667 10.84643555 16.00967111 21.68376889 13.39392 29.73013333-2.61461333 8.04750222-12.93425778 13.94460445-28.3136 16.18033778l-120.76600889 17.54794667c-42.47210667 6.17130667-92.47857778 42.50396445-111.47377778 80.99043555l-54.00803555 109.43260445c-6.87786667 13.93550222-15.67516445 21.92725333-24.13681778 21.92725333-8.46279111 0-17.26008889-7.99175111-24.13681777-21.92725333l-54.00803556-109.43260445c-18.99406222-38.48647111-69.00167111-74.81912889-111.47491556-80.99043555l-120.76600888-17.54794667c-15.37820445-2.23459555-25.69784889-8.13169778-28.31246223-16.18033778-2.61461333-8.04750222 2.26759111-18.88369778 13.39505778-29.73013333l87.38702222-85.18087111c30.73365333-29.95768889 49.83466667-88.74552889 42.58019556-131.04696889l-20.62904889-120.27790222c-2.26872889-13.22894222-0.80440889-23.73290667 4.12444444-29.57994667 2.97756445-3.53166222 7.32956445-5.32366222 12.93539556-5.32366222 6.26346667 0 13.86837333 2.25735111 21.99438222 6.52970666l108.01607111 56.7864889c18.4832 9.71662222 42.95111111 15.06872889 68.89585778 15.06872888z"  horiz-adv-x="1024" />

    
    <glyph glyph-name="icon1" unicode="&#58916;" d="M615.249325 313.956231c1.125612-17.191166 16.679524-30.084541 33.256721-28.958929 68.866993 4.707105 98.644549 56.075947 104.784251 82.681323 3.888478 16.577196-6.344359 32.847407-22.921555 37.04287-2.455881 0.61397-5.01409 0.920955-7.469971 0.920955-13.81433 0-26.503048-9.41421-30.289198-23.330868-1.432597-5.423404-10.64215-32.438093-48.401319-34.996303-17.191166-1.330269-30.084541-16.167882-28.958929-33.359048zM346.330369 299.52793m-22.921555 0a22.921555 22.921555 0 1 1 45.84311 0 22.921555 22.921555 0 1 1-45.84311 0ZM326.78565 324.803038c15.860897 6.651344 23.433197 24.865794 16.781853 40.726691-12.893375 30.903168-19.340062 63.750575-19.340062 97.518937 0 139.98521 113.891476 253.876686 253.876686 253.876686 14.018987 0 28.037973-1.125612 41.749975-3.376836 5.116419-0.818627 10.130509-1.841911 15.144599-2.967523 16.781853-3.78615 33.563705 6.651344 37.349855 23.433197 3.78615 16.781853-6.651344 33.461377-23.433197 37.349855-6.242031 1.432597-12.484061 2.660538-18.82842 3.683821-17.088838 2.762866-34.484661 4.195463-51.880484 4.195464-174.367543 0-316.296992-141.827121-316.296992-316.296992 0-42.05696 8.18627-82.88598 24.149496-121.463776 6.549016-15.656241 24.763466-23.22854 40.726691-16.679524zM747.559908 730.22804c-5.218747 3.274508-10.949136 4.911762-16.679524 4.911762-10.335165 0-20.363346-5.116419-26.298391-14.4283-9.209553-14.530629-4.911762-33.768362 9.618866-43.080244C787.979614 630.662536 832.083142 550.539422 832.083142 463.150994c0-139.98521-113.891476-253.876686-253.876687-253.876686-61.49935 0-120.54282 22.102928-166.692914 62.420306-0.409313 0.511642-0.920955 1.023284-1.432598 1.534925-2.251224 2.251224-4.707105 4.093135-7.367642 5.525732-10.949136 6.446687-24.865794 5.730389-34.996303-2.148895-1.432597-1.023284-2.762866-2.148896-3.990806-3.376837l-72.755472-72.755471-89.537323 89.537324c-12.688718 12.688718-33.563705 12.688718-46.354752 0-12.688718-12.688718-12.688718-33.563705 0-46.354752L244.615969 154.119316 133.078045 42.479065c-12.688718-12.688718-12.688718-33.563705 0-46.354752 12.688718-12.688718 33.563705-12.688718 46.354752 0l111.640252 111.640252 94.756071-94.756071c12.688718-12.688718 33.563705-12.688718 46.354751 0 12.688718 12.688718 12.688718 33.563705 0 46.354752L337.223144 154.119316l54.029379 54.02938C445.281903 168.547617 510.465074 146.956331 578.206455 146.956331c174.367543-0.102328 316.194664 141.827121 316.194664 316.194663 0 108.775057-54.848006 208.647547-146.841211 267.077046z"  horiz-adv-x="1024" />

    
    <glyph glyph-name="QQ" unicode="&#58931;" d="M512 864C246.90125 864 32 649.09875 32 384c0-265.0734375 214.90125-480 480-480s480 214.9265625 480 480C992 649.09875 777.09875 864 512 864z m212.6775-597.2465625s-15.195-41.45625-43.0734375-78.69375c0 0 49.8065625-16.9275 45.6-60.9225 0 0 1.6678125-49.074375-106.370625-45.6890625 0 0-76.003125 5.925-98.7909375 38.071875h-20.085c-22.786875-32.16-98.765625-38.071875-98.765625-38.071875-108.0759375-3.384375-106.38375 45.6890625-106.38375 45.6890625-4.21875 43.995 45.5878125 60.9215625 45.5878125 60.9215625-27.853125 37.2375-43.048125 78.6946875-43.048125 78.6946875-67.554375-109.1625-60.796875 15.234375-60.796875 15.234375 12.6825 73.61625 65.8490625 121.8440625 65.8490625 121.8440625-7.6040625 66.85875 20.26125 78.69375 20.26125 78.69375C330.509375 689.356875 508.2734375 685.74375 512 685.6434375c3.73875 0.1003125 181.4775 3.7125 187.33875-203.10375 0 0 27.853125-11.848125 20.26125-78.69375 0 0 53.191875-48.2278125 65.848125-121.845 0-0.0121875 6.7453125-124.408125-60.770625-15.2465625z m0 0"  horiz-adv-x="1024" />

    
    <glyph glyph-name="chenggong" unicode="&#58927;" d="M517.116 826.621c-243.234 0-440.42-197.186-440.42-440.42 0-243.235 197.186-440.422 440.42-440.422S957.538 142.966 957.538 386.2c0 243.235-197.29 440.421-440.422 440.421z m0-828.962c-214.685 0-388.643 173.958-388.643 388.643 0 214.583 173.958 388.541 388.643 388.541S905.76 600.885 905.76 386.2c-0.103-214.583-174.061-388.54-388.644-388.54zM494.911 218.48400000000004zM707.754 537.134L471.171 300.45000000000005 340.907 430.713c-11.87 11.87-31.108 11.87-42.978 0-11.87-11.87-11.87-31.108 0-42.978l151.753-151.753c11.87-11.87 31.108-11.87 42.978 0l258.072 258.174c11.87 11.87 11.87 31.108 0 42.978-11.87 11.87-31.108 11.87-42.978 0z"  horiz-adv-x="1024" />

    
    <glyph glyph-name="weixin" unicode="&#58880;" d="M320.85344 520.42954667c17.79989333 0 29.74528 12.10165333 29.74528 30.12885334 0 18.11146667-11.94549333 30.05216-29.74528 30.05215999-17.79242667 0-35.75210667-11.94069333-35.75210666-30.05215999C285.10122667 532.5312 303.06101334 520.42954667 320.85344 520.42954667zM487.12832 580.61173333c-17.79989333 0-35.67648-11.94069333-35.67648-30.05216 0-18.02826667 17.87658667-30.12885333 35.67648-30.12885332 17.94485333 0 29.81461333 12.10165333 29.81461333 30.12885332C516.94293333 568.66986668 505.07306667 580.61173333 487.12832 580.61173333zM695.07904001 357.83583999999996c17.87658667 0 29.81354667 11.94602667 29.81354666 24.04341333 0 12.02069333-11.93696 24.12234667-29.81354666 24.12234668-11.7088 0-23.50293333-12.10165333-23.50293334-24.12234668C671.57717334 369.78186667 683.37024 357.83583999999996 695.07904001 357.83583999999996zM564.40490667 357.83583999999996c18.02794667 0 29.73674667 11.94602667 29.73674667 24.04341333 0 12.02069333-11.7088 24.12234667-29.73674667 24.12234668-11.78666667 0-23.73098667-12.10165333-23.73098667-24.12234668C540.67392 369.78186667 552.61834667 357.83583999999996 564.40490667 357.83583999999996zM27.73770667 394.21216c0-258.68224 209.67338667-468.34592 468.36298667-468.34591999 258.6896 0 468.36298667 209.66368 468.36298667 468.34591999S754.79029333 862.55488 496.10069334 862.55488C237.41109333 862.55488 27.73770667 652.89440001 27.73770667 394.21216zM614.9072 515.35669333c-112.87530667 0-202.01962667-85.39381333-202.01962667-190.53855999 0-17.56352 2.73642667-34.42464 7.34144001-50.50122667-7.34144-0.62464-14.68181333-0.93696-22.16832-0.93696-29.66965333 0-53.552 6.08650667-83.21418667 12.09738667l-83.06176-42.22954667 23.73098666 72.4384c-59.4832 42.14954667-95.07434667 96.40181333-95.07434666 162.51701334 0 114.58581333 107.02090667 204.81898667 237.61930667 204.81898666 116.85461333 0 219.19477333-72.12288 239.71605334-169.07253333C630.29045334 514.80778667 622.63658668 515.35669333 614.9072 515.35669333zM831.76106667 327.63125333000005c0-54.2512-35.51552-102.336-83.21418667-138.55029332l17.87658667-60.26208-65.17770667 36.13973332c-23.81525333-6.01088-47.61450667-12.02069333-71.27616-12.02069332-113.02666667 0-202.17205333 78.29248-202.17205333 174.69439999 0 96.32085333 89.14538667 174.76682667 202.17205333 174.76682668C736.67808 502.39808001 831.76106667 423.952 831.76106667 327.63125333000005z"  horiz-adv-x="1000" />

    
    <glyph glyph-name="shanchu" unicode="&#58917;" d="M512 844.8c-254.464 0-460.8-206.336-460.8-460.8s206.336-460.8 460.8-460.8 460.8 206.336 460.8 460.8-206.336 460.8-460.8 460.8z m203.264-521.728h-406.528c-33.28 0-60.928 27.136-60.928 60.928 0 33.28 27.136 60.928 60.928 60.928h406.528c33.28 0 60.928-27.136 60.928-60.928-0.512-33.28-27.648-60.928-60.928-60.928z"  horiz-adv-x="1024" />

    
    <glyph glyph-name="queding" unicode="&#58899;" d="M512 896c-281.6 0-512-230.4-512-512s230.4-512 512-512 512 230.4 512 512-230.4 512-512 512z m332.8-313.6l-384-390.4c-6.4-6.4-19.2-12.8-25.6-12.8-6.4 0-19.2 6.4-25.6 12.8l-204.8 211.2c-19.2 19.2-19.2 38.4 0 51.2 12.8 19.2 32 19.2 51.2 0l185.6-185.6 358.4 364.8c12.8 12.8 38.4 12.8 51.2 0 12.8-12.8 12.8-32-6.4-51.2z"  horiz-adv-x="1024" />

    
    <glyph glyph-name="fanhui" unicode="&#58881;" d="M745.8598323333337-8.817574000000036L352.8396443333333 384.202615 745.8598323333337 777.222803c12.258185 12.258185 12.432147 32.892131-0.187265 45.51052-12.707416 12.707416-32.995485 12.703323-45.511543 0.187265L288.50029033333334 411.260877c-7.120165-7.120165-10.163477-17.065677-8.990768-26.624381-1.500167-9.755178 1.5104-20.010753 8.990768-27.491121l411.660734-411.660734c12.258185-12.258185 32.892131-12.432147 45.511543 0.187265 12.707416 12.707416 12.7023 32.995485 0.187265 45.51052z"  horiz-adv-x="1024" />

    
    <glyph glyph-name="gengduo" unicode="&#58882;" d="M279.34255266666685-8.817574000000036L672.3627406666662 384.202615 279.34255266666685 777.222803c-12.258185 12.258185-12.432147 32.892131 0.187265 45.51052 12.707416 12.707416 32.995485 12.703323 45.511543 0.187265l411.660734-411.660734c7.120165-7.120165 10.163477-17.065677 8.990768-26.624381 1.500167-9.755178-1.5104-20.010753-8.990768-27.491121L325.0413606666668-54.51535899999999c-12.258185-12.258185-32.892131-12.432147-45.511543 0.187265-12.707416 12.707416-12.703323 32.995485-0.187265 45.51052z"  horiz-adv-x="1024" />

    
    <glyph glyph-name="addressbook_fill" unicode="&#59106;" d="M896 448h-128a32 32 0 0 1 0-64h128a32 32 0 0 1 0 64M896 576h-128a32 32 0 0 1 0-64h128a32 32 0 0 1 0 64M768 640h128a32 32 0 0 1 0 64h-128a32 32 0 0 1 0-64M781.76 256c-5.12 2.272-97.216 42.56-198.72 62.752 11.808 9.632 22.144 20.928 31.104 33.248a174.88 174.88 0 0 1 33.792 103.2v104.768A176.32 176.32 0 0 1 576 701.664 174.368 174.368 0 0 1 472.192 736c-96.928 0-175.776-78.976-175.776-176.032v-104.768c0-56.544 26.88-106.816 68.384-139.072-96.48-20.832-181.344-57.824-185.536-59.712C150.016 244.672 128 211.808 128 180v-131.712l1.728-5.024c9.504-27.904 35.136-46.624 63.776-46.624h572.992c33.28 0 60.832 24.864 64.96 56.96l0.544 126.4c0 15.232-5.184 30.72-13.664 44-9.088 14.272-21.952 26.016-36.576 32"  horiz-adv-x="1024" />

    
    <glyph glyph-name="businesscard_fill" unicode="&#59110;" d="M801.97657283 486.94234075h-248.55134814a41.42522469 41.42522469 0 1 0 0 82.85044939h248.55134814a41.42522469 41.42522469 0 1 0 0-82.85044939m0-165.70089877h-165.70089875a41.42522469 41.42522469 0 1 0 0 82.85044938h165.70089875a41.42522469 41.42522469 0 1 0 0-82.85044938m0-165.70089878h-165.70089875a41.42522469 41.42522469 0 1 0 0 82.85044939h165.70089875a41.42522469 41.42522469 0 1 0 0-82.85044939m-660.60805814 22.70102315L139.17297778 184.70390139000006v72.36986754c0 26.8435456 17.2743187 52.56861013 42.04660305 62.55208929 1.3256072 0.62137837 26.8435456 11.68191337 61.2264821 21.99679432a114.87214807 114.87214807 0 0 0-16.07298718 57.9124641V453.80216098c0 50.78732547 33.01590409 93.57958258 78.50080078 109.23831752 11.80618903 4.05967202 24.23375645 6.75231163 37.36555269 6.75231164a116.19775525 116.19775525 0 0 0 115.86635345-115.99062916v-54.26704434c0-20.38121055-5.71668101-39.27111301-14.99593133-55.92405333a625.52089283 625.52089283 0 0 0 69.47010181-24.44088256c16.69436555-6.91801253 29.82616178-21.87251863 36.2470716-39.35396347 2.73406483-7.29083955 4.59819995-14.91308089 4.59819994-22.74244835l-0.1657009-65.45185501a58.82381906 58.82381906 0 0 0-58.61669294-54.39132002H197.99679683a59.98372535 59.98372535 0 0 0-56.58685692 41.01097245M926.16939646 776.91891358H97.74775309A82.89187461 82.89187461 0 0 1 14.8973037 694.35844077v-663.3835482C14.8973037-14.510004149999986 52.18000592-51.58558024000001 97.87202877-51.58558024000001h828.29736769A82.85044939 82.85044939 0 0 1 1009.1026963 30.97489256999995V694.35844077A82.85044939 82.85044939 0 0 1 926.16939646 776.91891358"  horiz-adv-x="1024" />

    
    <glyph glyph-name="group_fill" unicode="&#59135;" d="M877.728 245.888c-4.992 2.208-92.64 40.416-191.04 61.088A176 176 0 0 1 768 455.2v104.736C768 657.024 689.184 736 592.288 736a175.168 175.168 0 0 1-131.584-59.712 175.424 175.424 0 0 1-44.192-116.352v-104.736c0-59.136 29.344-111.456 74.112-143.392-108.16-18.688-210.752-63.456-215.552-65.6C245.92 234.272 224 201.472 224 169.888v-126.4h0.544a65.536 65.536 0 0 1 64.96-56.96h572.992c28.672 0 54.304 18.752 63.808 46.688l1.696 4.992v131.68c0 31.808-22.016 64.672-50.272 76M322.432 318.112c34.976 10.912 51.552 17.024 51.552 17.024s22.656 9.984 16.672 29.984c-14.016 26.688-24 47.36-24 125.344V591.808s6.016 49.312 24.992 53.984c1.536 1.632 1.792 4.032 1.12 6.72a31.936 31.936 0 0 1-29.408 19.52 132.832 132.832 0 0 1-132.64-132.768v-84.256c0-32.736 12.352-62.368 32.064-85.536-62.72-19.296-117.536-49.696-127.584-55.456C112.352 303.2 96 277.312 96 251.552v-91.904a32 32 0 0 1 32-32 31.68 31.68 0 0 1 31.296 28.48c0.128 1.184 0.704 2.272 0.704 3.52v14.656c2.56 30.304 13.92 85.312 60.992 111.072 7.2 3.2 14.88 6.336 22.72 9.44a2978.88 2978.88 0 0 1 78.72 23.296"  horiz-adv-x="1024" />

    
    <glyph glyph-name="xiugai" unicode="&#58915;" d="M65.086 135.103V-51.18H251.33l484.103 521.459-186.16 186.183L65.085 135.103z m819.361 484.084c18.411 18.31 18.411 56.136 0 74.528L772.667 805.454c-18.494 18.31-56.054 18.31-74.467 0L586.504 693.716l186.162-186.223 111.781 111.694zM437.492 23.365l-74.464-74.545H958.91v74.545H437.492z"  horiz-adv-x="1024" />

    
    <glyph glyph-name="shaixuan" unicode="&#58922;" d="M389.6 86.4c-19.2 0-34.4 15.2-34.4 34.4V406.4l-272 272c-13.6 13.6-13.6 35.2 0 48.8 13.6 13.6 35.2 13.6 48.8 0l281.6-281.6c6.4-6.4 10.4-15.2 10.4-24v-299.2c0-20.8-15.2-36-34.4-36zM633.6-120c-19.2 0-34.4 15.2-34.4 34.4V412c0 8.8 4 17.6 10.4 24l291.2 291.2c13.6 13.6 35.2 13.6 48.8 0 13.6-13.6 13.6-35.2 0-48.8L668 397.6v-483.2c0-19.2-16-34.4-34.4-34.4zM108 668c-8.8 0-18.4 3.2-24.8 10.4-21.6 23.2-34.4 52.8-34.4 84.8C49.6 831.2 104 886.4 172 886.4c19.2 0 34.4-15.2 34.4-34.4s-15.2-34.4-34.4-34.4c-29.6 0-53.6-24-53.6-53.6 0-13.6 5.6-27.2 15.2-36.8 12.8-13.6 12.8-35.2-0.8-48.8-7.2-7.2-16-10.4-24.8-10.4zM924 668c-8.8 0-16.8 3.2-24 9.6-13.6 12.8-14.4 35.2-1.6 48.8 9.6 10.4 14.4 23.2 14.4 36.8 0 29.6-24 53.6-53.6 53.6-19.2 0-34.4 15.2-34.4 34.4s15.2 34.4 34.4 34.4c67.2 0 122.4-55.2 122.4-122.4 0-31.2-12-61.6-33.6-84-5.6-7.2-15.2-11.2-24-11.2zM860 816.8h-688c-19.2 0-34.4 15.2-34.4 34.4s15.2 34.4 34.4 34.4h688c19.2 0 34.4-15.2 34.4-34.4 0-18.4-15.2-34.4-34.4-34.4z"  horiz-adv-x="1024" />

    
    <glyph glyph-name="dianhua" unicode="&#59303;" d="M512 866.639c-266.256 0-482.639-216.383-482.639-482.639s216.383-482.639 482.639-482.639 482.639 216.383 482.639 482.639-216.383 482.639-482.639 482.639zM705.056 131.418c-69.984-12.066-182.598 0.803-302.453 101.356-119.856 99.747-154.447 166.512-169.727 227.646-30.567 123.879 42.634 180.186 94.116 180.186 16.090 0 30.567-5.631 38.61-16.894 32.174-45.852 49.872-98.137 49.872-123.073 0-25.741-43.437-61.937-43.437-61.937s8.043-57.917 92.505-122.268c83.658-64.353 121.463-55.503 121.463-55.503s41.026 74.809 72.396 65.156c31.372-9.653 81.243-32.174 124.683-55.503 42.634-23.327-8.043-127.095-78.027-139.162z"  horiz-adv-x="1024" />

    
    <glyph glyph-name="shezhi" unicode="&#59201;" d="M879.744 113.024c-4.864 1.344-13.696 3.136-22.08 6.144-40.064 14.272-82.432-15.552-81.344-57.856 0.192-7.552 2.112-15.36 4.8-22.528 11.584-31.296 1.024-61.376-28.16-77.888a477.952 477.952 0 0 0-106.944-44.288c-31.744-8.96-60.992 5.12-74.624 35.84-15.168 34.048-54.336 47.424-86.208 29.184a62.336 62.336 0 0 1-26.176-30.4c-11.008-25.216-35.072-40.256-61.696-36.864-12.928 1.6-25.536 6.144-38.016 10.24a461.632 461.632 0 0 0-80.704 35.904c-29.824 16.768-40.384 46.656-28.352 78.72 9.28 24.704 5.056 47.36-13.696 65.92-18.432 18.176-40.832 22.144-64.96 13.12-32.64-12.032-62.208-1.6-79.168 28.608a485.376 485.376 0 0 0-43.776 105.792 60.48 60.48 0 0 0 34.88 74.56c19.072 8.384 31.744 22.272 36.416 42.688a59.712 59.712 0 0 1-35.392 69.376c-18.368 8.064-30.912 21.056-36.48 40.448a58.56 58.56 0 0 0-0.064 32.192 481.344 481.344 0 0 0 44.672 108.8c16.512 29.44 46.72 40.256 78.336 28.16 37.248-14.272 75.968 7.168 82.944 46.272a59.52 59.52 0 0 1-3.712 32.64c-12.352 31.872-1.536 61.888 28.352 78.72A481.088 481.088 0 0 0 386.176 850.816a60.48 60.48 0 0 0 72.896-35.136c9.152-20.672 24.32-33.856 46.784-37.376 28.672-4.48 53.76 9.6 65.472 36.352 8.64 19.584 22.656 32.96 43.712 36.8 9.536 1.728 20.288 1.472 29.696-0.96a447.616 447.616 0 0 0 108.16-44.352c29.184-16.448 40-46.656 28.032-77.824-15.168-39.424 8.896-79.488 50.88-83.52 8.832-0.832 18.496 0.896 26.944 3.904 33.984 12.096 62.912 1.856 80.512-29.632 18.176-32.64 32.32-66.944 42.624-102.912 9.6-33.6-3.712-62.528-35.584-76.864-38.656-17.344-49.472-65.6-21.184-96.192 5.952-6.4 13.888-11.712 21.824-15.424 30.848-14.4 44.416-43.2 35.072-76.16a471.36 471.36 0 0 0-44.992-107.328c-11.776-20.352-29.824-30.336-57.28-31.168z m44.608 383.36c-8.96 32.896-21.952 64-38.4 93.824-2.048 3.776-4.288 1.92-6.784 1.088-22.784-8.192-46.08-10.048-69.76-4.416A120.768 120.768 0 0 0 723.2 746.496c1.728 4.864 0.832 7.04-3.648 9.088-18.112 8.128-35.904 17.088-54.208 24.704-12.032 5.056-24.768 8.448-36.8 12.48-23.296-48.128-59.968-75.584-113.024-75.584-53.312 0-90.048 27.584-113.024 75.2a414.72 414.72 0 0 1-96.32-39.936c17.344-49.984 11.008-95.488-26.752-133.12-37.696-37.568-83.2-44.096-132.928-26.56-17.344-30.72-30.784-62.72-39.872-96.384 47.36-22.848 74.816-59.2 75.136-112.064 0.32-53.632-27.2-90.56-75.2-113.792 9.28-33.856 22.656-66.048 40-96.384 48.192 16.96 92.48 11.52 129.728-23.488 40.32-37.76 47.68-84.352 29.888-136.128 30.592-17.344 62.656-30.848 96.384-39.872 23.232 47.808 59.904 75.2 112.96 75.136 53.376 0 89.984-27.776 112.896-75.2a419.2 419.2 0 0 1 96.32 39.936c-17.472 49.984-10.88 95.296 26.496 132.864 37.632 37.76 83.136 44.16 133.184 26.816a414.08 414.08 0 0 1 39.872 96.384c-48.192 23.36-75.648 60.48-75.136 114.112 0.448 52.544 27.776 88.768 75.2 111.68z m0 0M515.52 595.968c26.688-0.32 52.416-5.504 77.248-15.232 16.64-6.464 24.448-23.296 18.496-39.232-6.016-16.192-23.232-23.808-40.256-17.216a151.36 151.36 0 0 1-196.48-85.184c-36.16-91.328 23.872-193.472 120.96-205.888a151.68 151.68 0 0 1 170.88 136.448 152.96 152.96 0 0 1-10.176 69.568 30.016 30.016 0 0 0 15.744 39.424 30.08 30.08 0 0 0 40.32-16.96c13.44-33.28 18.752-67.904 13.568-103.36-12.736-86.976-60.672-146.88-143.552-175.744-123.904-43.072-257.408 39.744-276.48 169.472-17.088 116.416 63.232 224.768 179.072 241.28 10.112 1.472 20.48 1.792 30.656 2.624z m0 0"  horiz-adv-x="1024" />

    
    <glyph glyph-name="xiaofeitongji" unicode="&#58902;" d="M737.28-128H286.72V790.186667C286.72 848.213333 334.506667 896 392.533333 896h238.933334c58.026667 0 105.813333-47.786667 105.813333-105.813333V-128z m-382.293333 68.266667h314.026666V790.186667c0 20.48-17.066667 37.546667-37.546666 37.546666h-238.933334c-20.48 0-37.546667-17.066667-37.546666-37.546666V-59.733333zM354.986667-128H105.813333C47.786667-128 0-80.213333 0-22.186667V479.573333c0 58.026667 47.786667 105.813333 105.813333 105.813334h249.173334V-128zM105.813333 517.12c-20.48 0-37.546667-17.066667-37.546666-37.546667v-501.76c0-20.48 17.066667-37.546667 37.546666-37.546666h180.906667V517.12H105.813333zM918.186667-128h-249.173334V442.026667h249.173334c58.026667 0 105.813333-47.786667 105.813333-105.813334v-358.4c0-58.026667-47.786667-105.813333-105.813333-105.813333z m-180.906667 68.266667h180.906667c20.48 0 37.546667 17.066667 37.546666 37.546666V336.213333c0 20.48-17.066667 37.546667-37.546666 37.546667h-180.906667V-59.733333z"  horiz-adv-x="1024" />

    
    <glyph glyph-name="jilu" unicode="&#58905;" d="M230.4 640h563.2c14.08 0 25.6 11.52 25.6 25.6s-11.52 25.6-25.6 25.6H230.4c-14.08 0-25.6-11.52-25.6-25.6s11.52-25.6 25.6-25.6zM230.4 486.4h563.2c14.08 0 25.6 11.52 25.6 25.6s-11.52 25.6-25.6 25.6H230.4c-14.08 0-25.6-11.52-25.6-25.6s11.52-25.6 25.6-25.6zM571.1728 104.3696L860.8016 394l72.4064-72.4064-289.6288-289.6288zM1005.6 466.4c-20 20-52.48 20-72.48 0l-36.16-36.16 72.48-72.48 36.16 36.16c20 20.16 20 52.48 0 72.48zM532-24.48l92.96 37.92-72.48 72.48-37.92-92.96c-2.56-4.8-1.92-11.04 2.24-15.04 4.16-4.32 10.24-5.12 15.2-2.4zM921.6-25.76c0-28.16-22.88-51.04-51.04-51.04H153.44C125.28-76.8 102.4-53.92 102.4-25.76V793.76C102.4 821.92 125.28 844.8 153.44 844.8h717.12c28.16 0 51.04-22.88 51.04-51.04v-194.08l51.2 51.2V793.6c0 56.64-45.92 102.4-102.4 102.4H153.6C97.12 896 51.2 850.08 51.2 793.6v-819.2c0-56.64 45.92-102.4 102.4-102.4h716.8c56.64 0 102.4 45.92 102.4 102.4V216.48l-51.2-51.2v-191.04zM230.4 332.8h424.32l51.2 51.2H230.4c-14.08 0-25.6-11.52-25.6-25.6s11.52-25.6 25.6-25.6zM230.4 179.2h270.72l51.2 51.2H230.4c-14.08 0-25.6-11.52-25.6-25.6s11.52-25.6 25.6-25.6z"  horiz-adv-x="1024" />

    
    <glyph glyph-name="shanchu1" unicode="&#58973;" d="M698.82181812 443.60727281v0.37818188H332.01454531a60.01454531 60.01454531 0 0 1 0-120.02909063h240v0.14545407h6.10909124v-0.14545407h113.91999939c1.3672725 0 2.734545 0.05818219 4.10181844 0.14545407h2.70545437v0.26181842a59.95636406 59.95636406 0 0 1-0.02909062 119.24363626zM512 864C246.92363655 864 32 649.07636345 32 384S246.92363655-96 512-96 992 118.92363654999997 992 384 777.07636345 864 512 864z m0-840c-198.77818219 0-360 161.19272719-360 360 0 198.77818219 161.22181781 360 360 360 198.80727281 0 360-161.22181781 360-360 0-198.80727281-161.19272719-360-360-360z"  horiz-adv-x="1024" />

    
    <glyph glyph-name="guanbi" unicode="&#58933;" d="M511.999-128C229.717-128 0 101.717 0 384S229.717 896 511.999 896s512-229.717 512-512c0.074-282.283-229.644-512-512-512z m0 984.648C251.374 856.648 39.351 644.625 39.351 384c0-260.552 212.024-472.65 472.649-472.65S984.649 123.375 984.649 384 772.624 856.648 511.999 856.648zM347.08 186.051l-32.964 32.963 362.918 362.918 32.964-32.963L347.08 186.051zM709.935 219.043l-32.964-32.964-362.918 362.918 32.964 32.964 362.918-362.918z"  horiz-adv-x="1024" />

    
    <glyph glyph-name="nan" unicode="&#58911;" d="M390.86 433a21.32 21.32 0 0 0-3.12 42.42 193.14 193.14 0 0 0 28.38 2.08 21.32 21.32 0 1 0 0-42.65 148.54 148.54 0 0 1-22.12-1.57 23.36 23.36 0 0 0-3.14-0.28zM245.53 264.32a21.31 21.31 0 0 0-21.32 21.32 192 192 0 0 0 83.38 158.28 21.32 21.32 0 1 0 24.16-35.15 149.36 149.36 0 0 1-64.89-123.13 21.31 21.31 0 0 0-21.33-21.32zM606.11 456.79a21.32 21.32 0 0 0-15.11 36.4l226.22 226.18a21.32 21.32 0 1 0 30.15-30.15L621.19 463a21.25 21.25 0 0 0-15.08-6.21zM425.2 20a277.19 277.19 0 0 0-196 473.19A277.19 277.19 0 1 0 425.2 20z m0 511.73A233 233 0 0 1 259.34 463a234.54 234.54 0 1 1 165.86 68.7z m-180.94-53.62zM854.68 449.48a21.31 21.31 0 0 0-21.32 21.32V689.74a15.62 15.62 0 0 1-15.62 15.62H598.8a21.32 21.32 0 0 0 0 42.65h218.94A58.32 58.32 0 0 0 876 689.74V470.8a21.31 21.31 0 0 0-21.32-21.32z"  horiz-adv-x="1024" />

    
    <glyph glyph-name="xiala" unicode="&#58921;" d="M919.8 514.9L555.2 116.2a57.377 57.377 0 0 0-43.1-19.5c-16.5 0-32.2 7.1-43.1 19.5L104.4 514.9c-17.8 18.8-23.3 46.2-14.1 70.4s31.4 41.1 57.2 43.4h728.9c25.9-2.2 48.2-19 57.4-43.3 9.3-24.3 3.8-51.6-14-70.5z"  horiz-adv-x="1024" />

    
    <glyph glyph-name="add" unicode="&#58924;" d="M914.817 358.68899999999996h-805.635c-13.482 0-24.413 11.066-24.413 24.559s10.931 24.559 24.413 24.559h805.635c13.482 0 24.413-11.066 24.413-24.559s-10.931-24.559-24.413-24.559zM536.441 786.064v-805.635c0-13.482-11.066-24.413-24.559-24.413s-24.559 10.931-24.559 24.413v805.635c0 13.482 11.066 24.413 24.559 24.413s24.559-10.931 24.559-24.413z"  horiz-adv-x="1024" />

    
    <glyph glyph-name="jiantouzuoshuang-" unicode="&#58900;" d="M521.2099999999999 410.98699999999997L215.79499999999985 716.3899999999999c-14.680000000000005 14.686999999999998-37.169 16.01099999999999-50.226 2.954999999999984-13.049999999999997-13.056000000000003-11.726999999999993-35.537 2.954000000000015-50.22399999999999L453.255 384.40200000000004l-287.68599999999986-287.67300000000006c-13.049999999999997-13.056000000000003-13.04999999999999-34.214 1.7763568394002505e-14-47.269999999999996 13.057-13.055999999999994 34.22200000000001-13.05599999999999 47.277 1.4210854715202004e-14L524.1650000000001 360.765c13.056999999999999 13.056000000000003 13.05699999999999 34.21900000000001-1.7763568394002505e-14 47.275000000000006-0.4740000000000001 0.4729999999999998-0.9590000000000003 0.9239999999999997-1.4530000000000003 1.3609999999999995-0.4850000000000002 0.5379999999999998-0.9830000000000002 1.0689999999999995-1.5020000000000004 1.5859999999999994z m337.216-2.9469999999998606c-0.47300000000000014 0.4729999999999997-0.9590000000000003 0.9239999999999997-1.4530000000000003 1.3609999999999995-0.4850000000000002 0.537-0.9830000000000002 1.0669999999999993-1.5010000000000003 1.5859999999999996L550.0559999999998 716.39c-14.680000000000005 14.686999999999998-37.17 16.01099999999998-50.225 2.954999999999984-13.049999999999997-13.056000000000003-11.726999999999993-35.537 2.9550000000000125-50.22399999999999l284.73000000000013-284.7189999999999-287.6849999999999-287.6730000000001c-13.049999999999997-13.056000000000003-13.04999999999999-34.214 1.7763568394002505e-14-47.269999999999996 13.055000000000003-13.055999999999996 34.221-13.05599999999999 47.277 1.4210854715202004e-14L858.4259999999999 360.7650000000002c13.055999999999996 13.056000000000001 13.05599999999999 34.219-1.7763568394002505e-14 47.275000000000006z"  horiz-adv-x="1024" />

    
    <glyph glyph-name="shangla" unicode="&#58910;" d="M104.20000000000005 253.10000000000014L468.8000000000002 651.8a57.377 57.377 0 0 0 43.1 19.499999999999982c16.5-5.329070518200751e-15 32.2-7.100000000000012 43.09999999999999-19.50000000000001L919.5999999999999 253.10000000000002c17.799999999999994-18.800000000000004 23.29999999999998-46.20000000000001 14.09999999999998-70.4s-31.400000000000013-41.099999999999994-57.20000000000001-43.39999999999998l-728.8999999999999 1.1368683772161603e-13c-25.899999999999995 2.2000000000000117-48.2 19.000000000000018-57.399999999999984 43.30000000000001-9.299999999999994 24.299999999999997-3.79999999999999 51.60000000000001 14.000000000000014 70.5z"  horiz-adv-x="1024" />

    
    <glyph glyph-name="yunying" unicode="&#59050;" d="M848.457143 201.142857H182.857143c-29.257143 0-51.2 21.942857-51.2 51.2V515.657143s0 7.314286 7.314286 7.314286h782.628571v-248.685715c0-43.885714-36.571429-73.142857-73.142857-73.142857zM848.457143 171.885714H212.114286c-58.514286 0-102.4 43.885714-102.4 102.4V735.085714c0 58.514286 43.885714 102.4 102.4 102.4h643.657143c58.514286 0 102.4-43.885714 102.4-102.4v-460.8c-7.314286-58.514286-51.2-102.4-109.714286-102.4zM212.114286 778.971429c-21.942857 0-43.885714-21.942857-43.885715-43.885715v-460.8c0-21.942857 21.942857-43.885714 43.885715-43.885714h643.657143c21.942857 0 43.885714 21.942857 43.885714 43.885714V735.085714c0 21.942857-21.942857 43.885714-43.885714 43.885715H212.114286zM533.942857 800.914286c-14.628571 0-29.257143 14.628571-29.257143 29.257143V859.428571c0 14.628571 14.628571 29.257143 29.257143 29.257143s29.257143-14.628571 29.257143-29.257143v-29.257142c0-14.628571-14.628571-29.257143-29.257143-29.257143zM343.771429-40.228571c-7.314286 0-21.942857 7.314286-21.942858 14.628571-7.314286 14.628571 0 29.257143 14.628572 36.571429l175.542857 73.142857V193.828571c0 14.628571 14.628571 29.257143 29.257143 29.257143s29.257143-14.628571 29.257143-29.257143v-146.285714l-212.114286-87.771428h-14.628571zM731.428571-40.228571h-7.314285l-190.171429 80.457142c-21.942857 7.314286-29.257143 21.942857-21.942857 36.571429 7.314286 14.628571 21.942857 21.942857 36.571429 14.628571l190.171428-80.457142c14.628571-7.314286 21.942857-21.942857 14.628572-36.571429-7.314286-7.314286-14.628571-14.628571-21.942858-14.628571zM607.085714 420.571429l190.171429 219.428571-29.257143 21.942857-175.542857-197.485714-175.542857 95.085714-190.171429-219.428571 29.257143-21.942857 168.228571 197.485714 175.542858-95.085714h7.314285z"  horiz-adv-x="1024" />

    
    <glyph glyph-name="wendang" unicode="&#59051;" d="M526.628571 384L190.171429 610.742857l343.771428 219.428572 336.457143-219.428572zM526.628571 354.742857c-7.314286 0-7.314286 0-14.628571 7.314286L175.542857 588.8c-7.314286 0-7.314286 14.628571-7.314286 21.942857 0 7.314286 7.314286 14.628571 14.628572 21.942857L519.314286 859.428571c7.314286 7.314286 21.942857 7.314286 29.257143 0l343.771428-219.428571c7.314286-7.314286 14.628571-14.628571 14.628572-21.942857 0-7.314286-7.314286-14.628571-14.628572-21.942857L541.257143 362.057143s-7.314286-7.314286-14.628572-7.314286zM241.371429 610.742857l285.257142-190.171428 292.571429 190.171428-292.571429 190.171429-285.257142-190.171429zM526.628571 179.2L124.342857 449.828571c-14.628571 7.314286-21.942857 29.257143-7.314286 36.571429 7.314286 14.628571 21.942857 14.628571 36.571429 7.314286L533.942857 237.714286l394.971429 256c14.628571 7.314286 29.257143 7.314286 36.571428-7.314286s7.314286-29.257143-7.314285-36.571429L526.628571 179.2zM526.628571 18.285714L124.342857 288.914286c-14.628571 7.314286-21.942857 21.942857-7.314286 36.571428 7.314286 14.628571 21.942857 14.628571 36.571429 7.314286l380.342857-256 394.971429 256c14.628571 7.314286 29.257143 7.314286 36.571428-7.314286 7.314286-14.628571 7.314286-29.257143-7.314285-36.571428L526.628571 18.285714z"  horiz-adv-x="1024" />

    
    <glyph glyph-name="renwu" unicode="&#59052;" d="M811.885714-3.657143H234.057143c-73.142857 0-124.342857 58.514286-124.342857 124.342857V354.742857h775.314285c21.942857 0 36.571429-14.628571 36.571429-36.571428v-204.8c0-65.828571-51.2-117.028571-109.714286-117.028572zM760.685714-40.228571H263.314286c-102.4 0-182.857143 80.457143-182.857143 182.857142V603.428571c0 102.4 80.457143 182.857143 182.857143 182.857143h504.685714C870.4 786.285714 950.857143 705.828571 950.857143 603.428571v-460.8c-7.314286-95.085714-87.771429-182.857143-190.171429-182.857142zM263.314286 735.085714c-73.142857 0-131.657143-58.514286-131.657143-131.657143v-460.8c0-73.142857 58.514286-131.657143 131.657143-131.657142h504.685714c73.142857 0 131.657143 58.514286 131.657143 131.657142V603.428571c0 73.142857-58.514286 131.657143-131.657143 131.657143H263.314286zM731.428571 640V705.828571c0 73.142857-43.885714 131.657143-102.4 131.657143H387.657143c-58.514286 0-102.4-58.514286-102.4-131.657143V640H731.428571zM731.428571 610.742857H263.314286v21.942857 73.142857c0 87.771429 58.514286 160.914286 131.657143 160.914286h241.371428c73.142857 0 131.657143-73.142857 131.657143-160.914286v-87.771428l-36.571429-7.314286z m-416.914285 58.514286h402.285714v36.571428c0 58.514286-36.571429 102.4-80.457143 102.4H387.657143c-43.885714 0-80.457143-43.885714-80.457143-102.4v-36.571428zM833.828571 610.742857H190.171429c-14.628571 0-29.257143 14.628571-29.257143 29.257143s14.628571 29.257143 29.257143 29.257143h643.657142c14.628571 0 29.257143-14.628571 29.257143-29.257143s-14.628571-29.257143-29.257143-29.257143zM378.88 349.842286l158.208-118.125715-30.573714-40.96L348.16 308.809143zM468.260571 221.696l261.851429 275.894857 37.083429-35.254857-261.851429-275.894857z"  horiz-adv-x="1024" />

    
    <glyph glyph-name="huibao" unicode="&#59053;" d="M687.542857-69.485714H182.857143c-87.771429 0-160.914286 73.142857-160.914286 160.914285V640c0 87.771429 73.142857 160.914286 160.914286 160.914286h336.457143V749.714286H182.857143C124.342857 749.714286 73.142857 698.514286 73.142857 640v-541.257143c0-58.514286 51.2-109.714286 109.714286-109.714286h504.685714c58.514286 0 109.714286 51.2 109.714286 109.714286V362.057143h58.514286v-263.314286c-7.314286-95.085714-80.457143-168.228571-168.228572-168.228571zM877.714286 800.914286l109.714285-138.971429c7.314286-7.314286 0-14.628571-7.314285-21.942857L629.028571 369.371429c-7.314286-7.314286-160.914286 7.314286-160.914285 7.314285s29.257143 146.285714 36.571428 153.6l351.085715 270.628572c7.314286 7.314286 14.628571 7.314286 21.942857 0zM607.085714 340.114286c-21.942857 0-65.828571 0-138.971428 7.314285H438.857143V384c29.257143 160.914286 36.571429 160.914286 43.885714 168.228571L833.828571 822.857143c21.942857 14.628571 43.885714 14.628571 58.514286-7.314286L1002.057143 676.571429c14.628571-14.628571 7.314286-43.885714-7.314286-58.514286L643.657143 347.428571c-7.314286-7.314286-7.314286-7.314286-36.571429-7.314285z m-109.714285 58.514285c51.2 0 95.085714-7.314286 117.028571-7.314285L950.857143 654.628571l-87.771429 117.028572-336.457143-263.314286c-7.314286-14.628571-14.628571-58.514286-29.257142-109.714286z"  horiz-adv-x="1024" />

    
    <glyph glyph-name="yuangong" unicode="&#59055;" d="M446.171429 398.628571C321.828571 398.628571 219.428571 508.342857 219.428571 632.685714S321.828571 866.742857 453.485714 866.742857s234.057143-102.4 234.057143-234.057143-109.714286-234.057143-241.371428-234.057143z m0 409.6c-95.085714 0-175.542857-80.457143-175.542858-175.542857S351.085714 457.142857 446.171429 457.142857s175.542857 80.457143 175.542857 175.542857-73.142857 175.542857-175.542857 175.542857zM819.2-10.971429c0 241.371429-168.228571 431.542857-373.028571 431.542858S73.142857 230.4 73.142857-10.971429h746.057143zM819.2-32.914286H36.571429v29.257143C36.571429 245.028571 219.428571 449.828571 438.857143 449.828571s402.285714-204.8 402.285714-453.485714v-29.257143h-21.942857zM95.085714 18.285714h694.857143C782.628571 230.4 629.028571 391.314286 438.857143 391.314286c-182.857143 0-336.457143-160.914286-343.771429-373.028572zM672.914286 405.942857c-14.628571 0-21.942857 14.628571-21.942857 29.257143s7.314286 29.257143 21.942857 29.257143c73.142857 0 131.657143 58.514286 131.657143 138.971428 0 58.514286-36.571429 109.714286-95.085715 131.657143-7.314286-7.314286-14.628571 14.628571-7.314285 29.257143 0 14.628571 14.628571 21.942857 29.257142 14.628572 80.457143-21.942857 131.657143-95.085714 131.657143-182.857143 0-102.4-80.457143-190.171429-190.171428-190.171429zM972.8 62.171429h-65.828571c-14.628571 0-29.257143 14.628571-29.257143 29.257142s14.628571 29.257143 29.257143 29.257143h36.571428c-14.628571 160.914286-131.657143 285.257143-270.628571 285.257143-14.628571 0-29.257143 14.628571-29.257143 29.257143s7.314286 21.942857 21.942857 21.942857c182.857143 0 329.142857-168.228571 329.142857-373.028571v-29.257143l-21.942857 7.314286z"  horiz-adv-x="1024" />

    
    <glyph glyph-name="kehu" unicode="&#59054;" d="M512 390.4c-108.8 0-204.8 89.6-204.8 204.8S396.8 793.6 512 793.6c108.8 0 204.8-89.6 204.8-204.8S620.8 390.4 512 390.4z m0 358.4c-83.2 0-153.6-70.4-153.6-153.6s64-153.6 153.6-153.6 153.6 70.4 153.6 153.6S595.2 748.8 512 748.8zM832 32c0 211.2-147.2 377.6-326.4 377.6s-326.4-166.4-326.4-377.6H832zM832 6.4H147.2v25.6c0 224 160 403.2 352 403.2s352-179.2 352-396.8v-25.6l-19.2-6.4z m-633.6 51.2h608C800 236.8 665.6 384 505.6 384c-166.4 0-294.4-147.2-307.2-326.4zM710.4 396.8c-12.8 0-25.6 12.8-25.6 25.6s12.8 25.6 25.6 25.6c64 0 121.6 51.2 121.6 121.6 0 51.2-32 96-83.2 115.2-12.8 6.4-19.2 19.2-12.8 32 6.4 12.8 19.2 19.2 32 12.8 70.4-19.2 115.2-83.2 115.2-160-6.4-96-83.2-172.8-172.8-172.8zM966.4 89.6h-57.6c-12.8 0-25.6 12.8-25.6 25.6s12.8 25.6 25.6 25.6h32c-12.8 140.8-115.2 249.6-236.8 249.6-12.8 0-25.6 12.8-25.6 25.6s12.8 25.6 25.6 25.6c160 0 288-147.2 288-326.4v-25.6h-25.6zM300.8 396.8c-6.4 0-6.4 0 0 0-44.8 0-89.6 12.8-121.6 44.8-32 32-44.8 76.8-44.8 121.6 0 70.4 44.8 134.4 115.2 160 12.8 6.4 25.6 0 32-12.8 6.4-12.8 0-25.6-12.8-32-57.6-19.2-89.6-64-89.6-115.2 0-32 12.8-64 32-83.2 19.2-25.6 51.2-32 83.2-38.4 19.2 0 25.6-12.8 25.6-25.6s-6.4-19.2-19.2-19.2zM89.6 89.6H12.8v25.6c0 179.2 128 320 288 320 12.8 0 25.6-12.8 25.6-25.6s-12.8-25.6-25.6-25.6C179.2 384 76.8 275.2 64 134.4h32c12.8 0 25.6-12.8 25.6-25.6-6.4-6.4-12.8-19.2-32-19.2z"  horiz-adv-x="1024" />

    
    <glyph glyph-name="shenpi" unicode="&#59058;" d="M424.228571-3.657143H138.971429c-51.2 0-95.085714 43.885714-95.085715 95.085714V749.714286c0 51.2 43.885714 95.085714 95.085715 95.085714h548.571428c51.2 0 95.085714-43.885714 95.085714-95.085714v-219.428572c0-14.628571-14.628571-29.257143-29.257142-29.257143S731.428571 530.285714 731.428571 544.914286v219.428571c0 21.942857-21.942857 43.885714-43.885714 43.885714H138.971429c-21.942857 0-43.885714-21.942857-43.885715-43.885714v-658.285714c0-21.942857 21.942857-43.885714 43.885715-43.885714h285.257142c14.628571 0 29.257143-14.628571 29.257143-29.257143s-14.628571-36.571429-29.257143-36.571429zM650.971429 640H175.542857c-14.628571 0-29.257143 14.628571-29.257143 29.257143s14.628571 29.257143 29.257143 29.257143h475.428572c14.628571 0 29.257143-14.628571 29.257142-29.257143s-14.628571-29.257143-29.257142-29.257143zM453.485714 369.371429H175.542857c-14.628571 0-29.257143 14.628571-29.257143 29.257142s14.628571 29.257143 29.257143 29.257143h277.942857c14.628571 0 29.257143-14.628571 29.257143-29.257143s-14.628571-29.257143-29.257143-29.257142zM453.485714 208.457143H175.542857c-14.628571 0-29.257143 14.628571-29.257143 29.257143s14.628571 29.257143 29.257143 29.257143h277.942857c14.628571 0 29.257143-14.628571 29.257143-29.257143s-14.628571-29.257143-29.257143-29.257143zM650.971429 515.657143H175.542857c-14.628571 0-29.257143 7.314286-29.257143 21.942857s14.628571 29.257143 29.257143 29.257143h475.428572c14.628571 0 29.257143-14.628571 29.257142-29.257143s-14.628571-21.942857-29.257142-21.942857zM760.685714 384m-73.142857 0a73.142857 73.142857 0 1 1 146.285714 0 73.142857 73.142857 0 1 1-146.285714 0ZM760.685714 281.6c-58.514286 0-109.714286 43.885714-109.714285 102.4s43.885714 102.4 102.4 102.4c58.514286 0 102.4-43.885714 102.4-102.4 7.314286-58.514286-36.571429-102.4-95.085715-102.4z m0 153.6c-29.257143 0-51.2-21.942857-51.2-51.2s21.942857-51.2 51.2-51.2 43.885714 21.942857 43.885715 51.2-21.942857 51.2-43.885715 51.2zM760.685714 288.914286l-138.971428-153.6h270.628571zM958.171429 106.057143H563.2l197.485714 226.742857 197.485715-226.742857zM680.228571 164.571429h153.6l-73.142857 87.771428L680.228571 164.571429zM950.857143-10.971429H570.514286c-21.942857 0-36.571429 14.628571-36.571429 36.571429V91.428571c0 21.942857 14.628571 36.571429 36.571429 36.571429H950.857143c21.942857 0 36.571429-14.628571 36.571428-36.571429v-65.828571c0-14.628571-14.628571-36.571429-36.571428-36.571429zM950.857143-40.228571H570.514286c-36.571429 0-65.828571 29.257143-65.828572 65.828571V91.428571c0 36.571429 29.257143 65.828571 65.828572 65.828572H950.857143c36.571429 0 65.828571-29.257143 65.828571-65.828572v-65.828571c0-29.257143-29.257143-65.828571-65.828571-65.828571z m-380.342857 153.6c-7.314286 0-14.628571-7.314286-14.628572-14.628572v-65.828571c0-7.314286 7.314286-14.628571 14.628572-14.628572H950.857143c7.314286 0 14.628571 7.314286 14.628571 14.628572v65.828571c0 7.314286-7.314286 14.628571-14.628571 14.628572H570.514286z"  horiz-adv-x="1024" />

    


  </font>
</defs>
</svg>
